<?xml version="1.0" ?><svg enable-background="new 0 0 32 32" version="1.1" viewBox="0 0 32 32" xml:space="preserve" xmlns="http://www.w3.org/2000/svg" xmlns:xlink="http://www.w3.org/1999/xlink"><g id="stiches"><g><g id="Shopping_10_144_"><g><g><g><g><g><path d="M16,2.115C8.332,2.115,2.115,8.332,2.115,16S8.332,29.885,16,29.885S29.885,23.668,29.885,16          S23.668,2.115,16,2.115L16,2.115z" fill="#FFFFFF"/><path d="M16,30.26c-7.863,0-14.26-6.396-14.26-14.26S8.137,1.74,16,1.74c7.862,0,14.259,6.396,14.259,14.26          S23.863,30.26,16,30.26z M16,2.49C8.551,2.49,2.491,8.551,2.491,16S8.551,29.51,16,29.51S29.509,23.449,29.509,16          S23.45,2.49,16,2.49z" fill="#CCCCCC"/></g></g></g></g></g></g><g><g><g><g><g><path d="M16,0c-0.003,0-0.007,0-0.01,0c-0.001,0-0.001,0-0.002,0c-0.003,0-0.006,0-0.01,0         c0,0-0.001,0-0.002,0c-0.003,0-0.006,0-0.01,0c-0.001,0-0.001,0-0.001,0c-0.003,0-0.006,0-0.009,0h-0.001         c-0.003,0-0.007,0-0.01,0c-0.001,0-0.001,0-0.002,0c-0.003,0-0.006,0-0.01,0c-0.001,0-0.001,0-0.001,0         c-0.004,0-0.007,0-0.011,0h0c-0.003,0-0.007,0-0.01,0c-0.001,0-0.001,0-0.002,0c-0.003,0-0.007,0-0.01,0h-0.002         c-0.003,0-0.007,0-0.01,0h-0.001c-0.003,0-0.007,0-0.01,0h0c-0.003,0-0.007,0-0.01,0l-0.002,0c-0.003,0-0.007,0-0.01,0         c-0.001,0-0.001,0-0.001,0c-0.003,0-0.007,0-0.01,0h0c-0.003,0-0.007,0-0.01,0l-0.001,0c-0.003,0-0.007,0-0.01,0         c-0.001,0-0.001,0-0.002,0c-0.003,0-0.007,0-0.01,0l-0.001,0c-0.007,0-0.014,0-0.021,0c-0.001,0,0,0-0.001,0         c-0.003,0-0.007,0-0.01,0c-0.001,0-0.001,0-0.001,0c-0.004,0-0.007,0-0.011,0h0c-0.004,0-0.007,0-0.011,0         c-0.001,0,0,0-0.001,0c-0.003,0-0.007,0-0.01,0c-0.001,0-0.001,0-0.001,0c-0.004,0-0.007,0-0.01,0c-0.001,0-0.001,0-0.002,0         c-0.007,0-0.014,0-0.021,0l-0.001,0c-0.003,0-0.007,0-0.01,0l-0.001,0c-0.004,0-0.007,0-0.01,0l0,0c-0.007,0-0.014,0-0.021,0         c0,0-0.001,0-0.001,0c-0.003,0-0.007,0-0.01,0c-0.001,0,0,0,0,0c-0.004,0-0.007,0-0.011,0h0c-0.003,0-0.007,0-0.01,0         l-0.001,0c-0.003,0-0.007,0-0.01,0l-0.001,0c-0.004,0-0.007,0-0.01,0l0,0c-0.007,0-0.015,0-0.022,0.001h0         c-0.004,0-0.007,0-0.011,0l0,0c-0.011,0-0.022,0.001-0.033,0.001h0c-0.011,0-0.022,0.001-0.033,0.001h0         c-0.004,0-0.007,0-0.011,0h0c-0.011,0-0.022,0.001-0.033,0.001c-0.001,0,0,0,0,0c-0.004,0-0.007,0-0.011,0h0         c-0.011,0-0.022,0.001-0.033,0.001l0,0c-0.751,0.027-1.488,0.105-2.209,0.232l0.13,0.739C14.214,0.828,15.108,0.75,16,0.75V0         L16,0L16,0z M10.513,0.966c-0.181,0.066-0.36,0.135-0.538,0.207c0,0-0.001,0-0.001,0c-0.003,0.001-0.006,0.003-0.01,0.004         L9.963,1.178C9.959,1.18,9.957,1.181,9.954,1.182c0,0-0.001,0.001-0.002,0.001C9.946,1.185,9.941,1.187,9.935,1.189         c0,0-0.001,0-0.001,0c-0.004,0.001-0.007,0.003-0.01,0.004L9.923,1.194C9.92,1.196,9.917,1.197,9.914,1.198         c-0.001,0-0.001,0.001-0.002,0.001C9.909,1.2,9.906,1.202,9.903,1.203c-0.001,0-0.001,0.001-0.002,0.001         C9.895,1.206,9.891,1.208,9.885,1.21c-0.001,0-0.002,0.001-0.002,0.001C9.88,1.212,9.877,1.213,9.874,1.215         c-0.001,0-0.002,0.001-0.003,0.001C9.869,1.217,9.866,1.218,9.864,1.219c-0.001,0-0.002,0.001-0.002,0.001         C9.858,1.221,9.855,1.222,9.853,1.223c-0.001,0-0.002,0.001-0.003,0.001C9.849,1.225,9.847,1.226,9.845,1.227         C9.843,1.228,9.841,1.228,9.839,1.229C9.838,1.23,9.836,1.231,9.835,1.231C9.833,1.232,9.832,1.232,9.83,1.233         C9.828,1.234,9.826,1.235,9.824,1.235C9.823,1.236,9.821,1.237,9.82,1.237C9.818,1.238,9.816,1.239,9.814,1.24         C9.812,1.24,9.811,1.241,9.81,1.242C9.808,1.242,9.806,1.243,9.804,1.244C9.802,1.245,9.801,1.245,9.799,1.246         C9.798,1.247,9.796,1.247,9.795,1.248C9.793,1.249,9.791,1.25,9.788,1.251C9.787,1.251,9.786,1.252,9.784,1.252         C9.782,1.253,9.78,1.254,9.778,1.255C9.776,1.256,9.776,1.256,9.774,1.256C9.772,1.257,9.77,1.258,9.768,1.259         C9.767,1.26,9.766,1.26,9.764,1.261C9.762,1.262,9.76,1.262,9.758,1.263c-0.001,0-0.003,0.001-0.004,0.002         C9.753,1.266,9.75,1.267,9.748,1.268C9.747,1.268,9.746,1.268,9.745,1.269C9.742,1.27,9.74,1.271,9.738,1.272         c0,0-0.003,0.001-0.004,0.002C9.732,1.275,9.729,1.276,9.727,1.277c-0.001,0-0.002,0.001-0.003,0.001         C9.722,1.279,9.72,1.28,9.718,1.28C9.716,1.281,9.715,1.282,9.714,1.282C9.712,1.283,9.71,1.284,9.708,1.285         c0,0-0.002,0.001-0.003,0.001C9.703,1.287,9.7,1.288,9.698,1.289C9.696,1.29,9.696,1.29,9.694,1.291         C9.692,1.292,9.69,1.293,9.687,1.294c-0.001,0-0.002,0.001-0.003,0.001C9.682,1.296,9.679,1.297,9.677,1.298         c-0.001,0-0.002,0.001-0.003,0.001C9.671,1.3,9.669,1.301,9.667,1.302c-0.001,0-0.002,0.001-0.003,0.001         C9.662,1.305,9.66,1.305,9.657,1.306c-0.001,0-0.002,0.001-0.003,0.001C9.652,1.309,9.649,1.31,9.647,1.311         c-0.001,0-0.002,0.001-0.003,0.001C9.642,1.313,9.639,1.314,9.637,1.315c-0.001,0-0.002,0.001-0.003,0.001         C9.631,1.318,9.629,1.319,9.626,1.32c-0.001,0-0.002,0.001-0.003,0.001C9.621,1.322,9.619,1.323,9.617,1.324         c0,0-0.002,0.001-0.003,0.001C9.611,1.326,9.609,1.327,9.607,1.328c-0.001,0-0.001,0.001-0.002,0.001         C9.602,1.331,9.599,1.332,9.596,1.333L9.594,1.334C9.592,1.335,9.589,1.336,9.586,1.337c-0.001,0-0.002,0.001-0.003,0.001         C9.581,1.34,9.579,1.341,9.576,1.342c-0.001,0-0.001,0.001-0.002,0.001C9.571,1.344,9.568,1.345,9.566,1.346         c0,0-0.002,0.001-0.002,0.001C9.561,1.348,9.559,1.349,9.557,1.35c-0.001,0-0.001,0.001-0.002,0.001         C9.552,1.353,9.549,1.354,9.546,1.355L9.544,1.356C9.541,1.357,9.539,1.358,9.536,1.359c-0.001,0-0.002,0.001-0.003,0.001         C9.531,1.362,9.528,1.363,9.526,1.364c-0.001,0-0.001,0.001-0.002,0.001C9.521,1.366,9.518,1.367,9.515,1.369L9.514,1.369         C9.511,1.37,9.508,1.372,9.506,1.373c0,0-0.001,0-0.001,0.001C9.502,1.375,9.499,1.376,9.496,1.377L9.494,1.378         C9.491,1.379,9.489,1.381,9.486,1.382c-0.001,0-0.001,0-0.002,0.001C9.481,1.384,9.478,1.385,9.476,1.386         c0,0-0.001,0.001-0.001,0.001C9.471,1.388,9.468,1.39,9.465,1.391c0,0,0,0-0.001,0C9.462,1.393,9.459,1.394,9.456,1.395         c0,0-0.001,0-0.001,0.001C9.452,1.397,9.449,1.398,9.446,1.4c0,0-0.001,0.001-0.001,0.001         C9.441,1.402,9.439,1.403,9.436,1.404c-0.001,0-0.001,0-0.002,0.001C9.431,1.406,9.428,1.408,9.425,1.409         c0,0-0.001,0-0.001,0.001C9.421,1.411,9.418,1.412,9.415,1.414l0,0c-0.003,0.001-0.006,0.003-0.01,0.004l0,0         C9.402,1.42,9.399,1.421,9.396,1.422c0,0-0.001,0-0.001,0.001C9.392,1.424,9.389,1.425,9.386,1.427c0,0-0.001,0-0.001,0.001         C9.382,1.429,9.379,1.43,9.376,1.431c0,0-0.001,0-0.001,0.001C9.371,1.433,9.368,1.435,9.365,1.436l0,0         C9.362,1.438,9.359,1.439,9.356,1.441l-0.001,0C9.352,1.442,9.349,1.444,9.346,1.445c0,0,0,0,0,0         C9.342,1.447,9.339,1.448,9.336,1.45c0,0-0.001,0-0.001,0c-0.004,0.002-0.007,0.003-0.01,0.004l0,0         c-0.003,0.001-0.006,0.003-0.01,0.004h0C9.309,1.462,9.303,1.465,9.296,1.468l-0.001,0C9.292,1.47,9.289,1.471,9.286,1.473         l-0.001,0C9.282,1.474,9.279,1.476,9.276,1.477l0,0c-0.01,0.005-0.02,0.009-0.029,0.014l0,0         c-0.003,0.001-0.006,0.003-0.01,0.005l0,0C9.233,1.497,9.23,1.499,9.226,1.5l0,0C9.213,1.507,9.2,1.513,9.187,1.519l0,0         C9.183,1.521,9.18,1.522,9.177,1.524l0,0C9.164,1.53,9.151,1.536,9.137,1.542l0,0C8.742,1.73,8.356,1.934,7.98,2.152         l0.376,0.649c0.769-0.446,1.58-0.826,2.413-1.13L10.513,0.966L10.513,0.966z M5.693,3.761         C5.133,4.234,4.605,4.744,4.115,5.288l0,0C4.1,5.305,4.085,5.321,4.071,5.337h0C4.058,5.351,4.046,5.364,4.034,5.378l0,0         C4.005,5.411,3.976,5.444,3.947,5.477c0,0,0,0,0,0C3.871,5.564,3.795,5.653,3.72,5.743l0.575,0.481         c0.57-0.681,1.203-1.317,1.882-1.889L5.693,3.761L5.693,3.761z M2.12,8.036C1.877,8.458,1.653,8.892,1.449,9.338         c0,0,0,0.001,0,0.001c-0.001,0.003-0.003,0.007-0.004,0.01c0,0.001-0.001,0.001-0.001,0.002         C1.442,9.353,1.44,9.356,1.439,9.359c0,0.001-0.001,0.001-0.001,0.002C1.437,9.364,1.436,9.366,1.434,9.37L1.433,9.371         C1.433,9.373,1.432,9.375,1.431,9.377L1.43,9.378C1.429,9.381,1.428,9.384,1.426,9.387c0,0.001-0.001,0.002-0.001,0.003         C1.424,9.393,1.423,9.395,1.422,9.397c0,0.001-0.001,0.002-0.001,0.003C1.419,9.403,1.418,9.405,1.417,9.407         C1.417,9.408,1.416,9.41,1.415,9.411C1.415,9.413,1.414,9.414,1.413,9.415C1.413,9.417,1.412,9.42,1.411,9.422         C1.41,9.423,1.41,9.424,1.409,9.426C1.408,9.428,1.407,9.429,1.406,9.431C1.405,9.433,1.405,9.434,1.404,9.436         C1.403,9.438,1.403,9.439,1.402,9.441C1.401,9.443,1.4,9.445,1.399,9.446C1.399,9.448,1.398,9.449,1.397,9.451         C1.397,9.452,1.396,9.455,1.395,9.456C1.394,9.458,1.393,9.46,1.393,9.462C1.392,9.463,1.392,9.464,1.391,9.465         C1.39,9.467,1.389,9.47,1.388,9.472c0,0.001-0.001,0.003-0.002,0.004C1.385,9.478,1.384,9.48,1.383,9.482         C1.383,9.484,1.383,9.484,1.382,9.486C1.381,9.488,1.38,9.49,1.379,9.492C1.378,9.493,1.378,9.494,1.377,9.496         C1.376,9.498,1.376,9.5,1.375,9.502c0,0.001-0.001,0.002-0.001,0.003C1.372,9.507,1.371,9.509,1.37,9.512         C1.37,9.513,1.369,9.514,1.369,9.515C1.368,9.517,1.367,9.52,1.366,9.522c0,0.001-0.001,0.002-0.001,0.003         C1.363,9.528,1.362,9.53,1.361,9.532C1.36,9.534,1.36,9.534,1.36,9.536C1.359,9.538,1.358,9.54,1.356,9.543         c0,0.001-0.001,0.002-0.001,0.002C1.354,9.548,1.353,9.55,1.352,9.552C1.352,9.553,1.352,9.554,1.351,9.555         C1.35,9.557,1.349,9.56,1.348,9.562c0,0.001-0.001,0.002-0.001,0.003C1.346,9.567,1.345,9.57,1.343,9.572         c0,0.001-0.001,0.002-0.001,0.003C1.341,9.578,1.34,9.58,1.339,9.583c0,0-0.001,0.002-0.001,0.002         C1.337,9.588,1.335,9.591,1.334,9.593c0,0-0.001,0.001-0.001,0.001C1.332,9.598,1.331,9.6,1.33,9.603L1.329,9.604         C1.328,9.607,1.327,9.61,1.326,9.613c0,0-0.001,0.002-0.001,0.002C1.324,9.617,1.323,9.62,1.321,9.623         c0,0.001-0.001,0.001-0.001,0.002C1.319,9.628,1.318,9.63,1.317,9.633c0,0-0.001,0.002-0.001,0.002         C1.315,9.638,1.314,9.641,1.312,9.644L1.312,9.645C1.311,9.648,1.309,9.65,1.308,9.653c0,0,0,0.001-0.001,0.001         C1.306,9.657,1.305,9.66,1.304,9.663c0,0,0,0.001-0.001,0.002C1.302,9.668,1.301,9.67,1.3,9.673c0,0.001,0,0.001-0.001,0.002         C1.297,9.678,1.296,9.681,1.295,9.684c0,0,0,0,0,0.001C1.293,9.688,1.292,9.691,1.291,9.694c0,0,0,0,0,0         C1.288,9.701,1.285,9.707,1.282,9.714c0,0,0,0.001,0,0.001C1.28,9.718,1.279,9.721,1.278,9.724l0,0.001         C1.276,9.728,1.275,9.731,1.273,9.734c0,0,0,0,0,0C1.272,9.738,1.27,9.741,1.269,9.745c0,0,0,0,0,0         c-0.001,0.003-0.003,0.007-0.004,0.01l0,0C1.263,9.758,1.262,9.761,1.26,9.765l0,0c-0.001,0.003-0.003,0.006-0.004,0.01         l0,0.001C1.255,9.779,1.253,9.782,1.252,9.785c0,0,0,0,0,0.001C1.25,9.789,1.249,9.792,1.248,9.795c0,0,0,0,0,0         c-0.003,0.007-0.005,0.013-0.008,0.02l0,0.001C1.238,9.819,1.236,9.822,1.235,9.825l0,0.001         C1.233,9.829,1.232,9.832,1.231,9.835c0,0,0,0.001,0,0.001c-0.001,0.004-0.003,0.007-0.004,0.01l0,0         c-0.003,0.007-0.005,0.013-0.008,0.02l0,0.001C1.217,9.869,1.215,9.872,1.214,9.876c0,0,0,0.001-0.001,0.001         C1.212,9.88,1.211,9.883,1.21,9.886c0,0,0,0.001,0,0.001C1.208,9.89,1.207,9.893,1.205,9.896c0,0,0,0,0,0.001         C1.203,9.903,1.2,9.91,1.197,9.916L1.197,9.917C1.196,9.92,1.194,9.923,1.193,9.926c0,0,0,0.001-0.001,0.002         C1.191,9.931,1.19,9.934,1.189,9.937c0,0,0,0.001-0.001,0.001C1.187,9.941,1.186,9.944,1.185,9.947c0,0,0,0,0,0.001         C1.183,9.951,1.182,9.954,1.181,9.957c0,0,0,0,0,0.001C1.179,9.961,1.178,9.964,1.177,9.967L1.176,9.968         C1.175,9.971,1.174,9.974,1.172,9.977c0,0-0.001,0.001-0.001,0.002C1.171,9.981,1.169,9.984,1.168,9.987         c0,0,0,0.001-0.001,0.002C1.166,9.992,1.165,9.995,1.164,9.998c0,0,0,0.001,0,0.001c-0.001,0.003-0.002,0.006-0.004,0.009         c0,0,0,0,0,0.001c-0.001,0.003-0.002,0.006-0.004,0.009c0,0,0,0.001-0.001,0.001c-0.001,0.003-0.002,0.006-0.004,0.009         c0,0,0,0.001,0,0.001c-0.001,0.003-0.003,0.006-0.004,0.009c0,0,0,0.001-0.001,0.002c-0.001,0.003-0.002,0.006-0.004,0.009         c0,0,0,0,0,0.001c-0.001,0.003-0.002,0.006-0.004,0.009c0,0,0,0.001,0,0.001c-0.001,0.003-0.002,0.006-0.004,0.009         c0,0.001,0,0.001-0.001,0.002c-0.001,0.003-0.002,0.005-0.003,0.008c0,0.001-0.001,0.002-0.001,0.003         c-0.001,0.003-0.002,0.005-0.003,0.008c0,0-0.001,0.002-0.001,0.002c-0.001,0.003-0.002,0.006-0.003,0.008         c0,0.001-0.001,0.001-0.001,0.002c-0.001,0.003-0.002,0.005-0.003,0.007c0,0,0,0.001-0.001,0.002         c-0.001,0.003-0.002,0.005-0.003,0.008c0,0.001-0.001,0.002-0.001,0.003c-0.001,0.003-0.002,0.005-0.003,0.008         c0,0.001,0,0.001-0.001,0.002c-0.001,0.003-0.002,0.005-0.003,0.008l-0.001,0.003c-0.001,0.003-0.002,0.005-0.003,0.008         c0,0.001-0.001,0.001-0.001,0.002C1.101,10.155,1.1,10.157,1.1,10.159c-0.001,0.001-0.001,0.002-0.001,0.004         c-0.001,0.002-0.002,0.004-0.003,0.006c0,0-0.001,0.002-0.001,0.003c-0.001,0.002-0.002,0.005-0.003,0.007         c0,0.001-0.001,0.003-0.001,0.004c-0.001,0.002-0.002,0.005-0.003,0.007c-0.001,0.001-0.001,0.003-0.002,0.004         c-0.001,0.002-0.001,0.004-0.002,0.005c-0.001,0.002-0.001,0.003-0.002,0.005c-0.001,0.002-0.001,0.003-0.002,0.005         c-0.001,0.002-0.002,0.004-0.002,0.006c-0.001,0.001-0.001,0.003-0.002,0.004c-0.001,0.001-0.001,0.003-0.002,0.005         c-0.001,0.002-0.001,0.004-0.002,0.006c-0.001,0.002-0.001,0.003-0.002,0.005c0,0.001-0.001,0.001-0.001,0.002         c-0.001,0.003-0.002,0.005-0.003,0.009c0,0.001-0.001,0.002-0.001,0.003c-0.001,0.003-0.002,0.005-0.003,0.008         c0,0.001-0.001,0.002-0.001,0.003c-0.001,0.003-0.002,0.005-0.003,0.008c0,0.001-0.001,0.002-0.001,0.003         c-0.001,0.003-0.002,0.006-0.003,0.008c0,0.001,0,0.001,0,0.001c-0.002,0.006-0.004,0.011-0.007,0.017         c0,0,0,0.001-0.001,0.002c-0.001,0.003-0.002,0.006-0.004,0.009c0,0.001,0,0.001-0.001,0.002         c-0.001,0.003-0.003,0.007-0.004,0.01l0,0.001c-0.032,0.084-0.063,0.168-0.093,0.252l0.706,0.254         C1.95,9.994,2.327,9.18,2.77,8.41L2.12,8.036L2.12,8.036z M0.231,13.277c-0.087,0.506-0.15,1.02-0.188,1.542         c0,0,0,0.001,0,0.001c-0.001,0.011-0.001,0.02-0.002,0.031l0,0.001c0,0.004-0.001,0.008-0.001,0.012l0,0         c0,0.006-0.001,0.012-0.001,0.019l0,0.001c0,0.004-0.001,0.007-0.001,0.011c0,0,0,0.001,0,0.001         c0,0.007-0.001,0.012-0.001,0.019l0,0.002c0,0.003,0,0.007-0.001,0.01c0,0.001,0,0.001,0,0.001         c0,0.007-0.001,0.013-0.001,0.018c0,0.001,0,0.001,0,0.001c0,0.004-0.001,0.008-0.001,0.011l0,0.002         c0,0.006-0.001,0.012-0.001,0.018c0,0.001,0,0.001,0,0.002c0,0.003,0,0.007-0.001,0.01c0,0.001,0,0.001,0,0.001         c0,0.007-0.001,0.012-0.001,0.019c0,0.001,0,0.001,0,0.001c0,0.004,0,0.007-0.001,0.01c0,0.001,0,0.002,0,0.003         c0,0.003,0,0.006-0.001,0.009c0,0.001,0,0.002,0,0.002c0,0.003,0,0.004,0,0.006c0,0.001,0,0.002,0,0.003         c0,0.003,0,0.006-0.001,0.009c0,0.001,0,0.002,0,0.003c0,0.003,0,0.006-0.001,0.009c0,0.001,0,0.002,0,0.003         c0,0.002,0,0.004,0,0.005c0,0.001,0,0.003,0,0.004c0,0.003,0,0.005,0,0.008c0,0.001,0,0.002,0,0.004c0,0.003,0,0.005,0,0.007         c0,0.002,0,0.003,0,0.004c0,0.002,0,0.003,0,0.005c0,0.002,0,0.003,0,0.005c0,0.002,0,0.005,0,0.007c0,0.001,0,0.003,0,0.004         c0,0.002,0,0.004,0,0.006c0,0.002,0,0.003,0,0.005c0,0.002,0,0.003,0,0.005c0,0.002,0,0.004,0,0.006c0,0.002,0,0.003,0,0.005         c0,0.002,0,0.003,0,0.005c0,0.002,0,0.004,0,0.006c0,0.002,0,0.004,0,0.006c0,0.001,0,0.003,0,0.004c0,0.003,0,0.005,0,0.008         c0,0.002,0,0.002,0,0.004c0,0.002,0,0.004,0,0.005c0,0.002,0,0.004,0,0.006c0,0.002,0,0.004,0,0.005c0,0.002,0,0.003,0,0.004         c0,0.002,0,0.005,0,0.007c0,0.002,0,0.003,0,0.004c0,0.002,0,0.003,0,0.005c0,0.002,0,0.004,0,0.006c0,0.002,0,0.003,0,0.005         c0,0.002,0,0.003,0,0.004c0,0.002,0,0.005,0,0.007c0,0.002,0,0.003,0,0.005c0,0.001,0,0.003,0,0.005c0,0.002,0,0.005,0,0.007         c0,0.002,0,0.003,0,0.005c0,0.002,0,0.003,0,0.005c0,0.002,0,0.005,0,0.007c0,0.002,0,0.002,0,0.004c0,0.002,0,0.004,0,0.006         c0,0.002,0,0.004,0,0.005c0,0.002,0,0.004,0,0.006c0,0.002,0,0.002,0,0.004c0,0.002,0,0.005,0,0.007c0,0.001,0,0.003,0,0.004         c0,0.002,0,0.004,0,0.007c0,0.002,0,0.003,0,0.004c0,0.002,0,0.004,0,0.006c0,0.001,0,0.002,0,0.003c0,0.003,0,0.005,0,0.008         c0,0.001,0,0.003,0,0.004c0,0.003,0,0.005,0,0.008c0,0.001,0,0.003,0,0.004c0,0.002,0,0.004,0,0.006c0,0.001,0,0.002,0,0.003         c0,0.003,0,0.005,0,0.008c0,0.001,0,0.002,0,0.004c0,0.003,0,0.005,0,0.008c0,0.001,0,0.002,0,0.003c0,0.002,0,0.004,0,0.006         c0,0.002,0,0.003,0,0.004c0,0.002,0,0.005,0,0.007c0,0.001,0,0.003,0,0.004c0,0.003,0,0.005,0,0.008c0,0.001,0,0.002,0,0.003         c0,0.002,0,0.004,0,0.006c0,0.002,0,0.002,0,0.004c0,0.002,0,0.005,0,0.007c0,0.001,0,0.002,0,0.003c0,0.003,0,0.005,0,0.008         c0,0.001,0,0.002,0,0.003c0,0.002,0,0.004,0,0.007c0,0.001,0,0.003,0,0.004c0,0.002,0,0.005,0,0.007c0,0.001,0,0.002,0,0.003         c0,0.003,0,0.005,0,0.008c0,0.002,0,0.002,0,0.003c0,0.003,0,0.005,0,0.007c0,0.001,0,0.002,0,0.003c0,0.002,0,0.005,0,0.007         c0,0.001,0,0.002,0,0.003c0,0.003,0,0.006,0,0.008c0,0.001,0,0.002,0,0.003c0,0.003,0,0.005,0,0.008c0,0.001,0,0.002,0,0.003         c0,0.002,0,0.005,0,0.007c0,0.001,0,0.002,0,0.003c0,0.003,0,0.006,0,0.008c0,0.001,0,0.002,0,0.003c0,0.003,0,0.006,0,0.009         c0,0.001,0,0.001,0,0.002c0,0.003,0,0.005,0,0.008c0,0.001,0,0.001,0,0.002c0,0.003,0,0.006,0,0.009c0,0.001,0,0.001,0,0.003         c0,0.003,0,0.006,0,0.009c0,0,0,0.001,0,0.001c0,0.003,0,0.006,0,0.009l0,0.002c0,0.003,0,0.006,0,0.009         c0,0.001,0,0.001,0,0.002c0,0.003,0,0.006,0,0.009c0,0,0,0.001,0,0.002c0,0.003,0,0.006,0,0.008c0,0,0,0.001,0,0.002         c0,0.003,0,0.006,0,0.009c0,0.001,0,0.001,0,0.002c0,0.003,0,0.006,0,0.009c0,0.001,0,0.002,0,0.003c0,0.003,0,0.005,0,0.008         c0,0.001,0,0.001,0,0.001c0,0.004,0,0.007,0,0.01c0,0.001,0,0.001,0,0.003c0,0.003,0,0.006,0,0.009c0,0,0,0.001,0,0.002         c0,0.003,0,0.006,0,0.009c0,0.001,0,0.001,0,0.001c0,0.004,0,0.007,0,0.01c0,0,0,0.002,0,0.002c0,0.003,0,0.006,0,0.009         c0,0.001,0,0.002,0,0.002c0,0.004,0,0.007,0,0.01l0,0.001c0,0.003,0,0.006,0,0.009c0,0.001,0,0.002,0,0.002         c0,0.004,0,0.007,0,0.009c0,0.001,0,0.002,0,0.002c0,0.003,0,0.006,0,0.009c0,0,0,0,0,0.001c0,0.003,0,0.006,0,0.009         c0,0,0,0.001,0,0.002c0,0.003,0,0.006,0,0.009c0,0.001,0,0.001,0,0.002c0,0.003,0,0.006,0,0.01v0c0,0.003,0,0.006,0,0.01         c0,0.001,0,0.001,0,0.001c0,0.004,0,0.007,0,0.01c0,0.001,0,0.002,0,0.002c0,0.004,0,0.007,0,0.01l0,0.001         c0,0.003,0,0.006,0,0.009c0,0,0,0.001,0,0.002c0,0.003,0,0.006,0,0.009c0,0.001,0,0.001,0,0.002c0,0.003,0,0.006,0,0.009         c0,0.001,0,0.001,0,0.001c0,0.003,0,0.006,0,0.009c0,0,0,0.001,0,0.001c0,0.003,0,0.006,0,0.009c0,0.001,0,0.001,0,0.002         c0,0.003,0,0.006,0,0.009l0,0.001c0,0.003,0,0.006,0,0.009c0,0.001,0,0.001,0,0.001c0,0.004,0,0.007,0,0.01         c0,0,0,0.002,0,0.002c0,0.003,0,0.006,0,0.009c0,0.001,0,0.001,0,0.001c0,0.003,0,0.006,0,0.009c0,0.001,0,0,0,0.001         c0,0.003,0,0.006,0,0.01v0.002c0,0.003,0,0.006,0,0.009c0,0,0,0.001,0,0.002c0,0.003,0,0.006,0,0.009c0,0,0,0,0,0.001         c0,0.003,0,0.006,0,0.01c0,0.001,0,0.001,0,0.001c0,0.004,0,0.007,0,0.01c0,0.001,0,0.001,0,0.001c0,0.004,0,0.007,0,0.01         l0,0c0,0.002,0,0.005,0,0.007c0,0.002,0,0.002,0,0.004c0,0.001,0,0.002,0,0.003c0,0.002,0,0.004,0,0.006c0,0,0,0,0,0         c0,0.008,0,0.016,0,0.024c0,0.001,0,0.002,0,0.003l0,0.002c0,0.005,0,0.01,0,0.015l0.75-0.003l0-0.062         c0-0.871,0.074-1.745,0.22-2.596L0.231,13.277L0.231,13.277z M0.991,18.717L0.253,18.85c0,0,0,0.001,0,0.001         c0,0.003,0.001,0.005,0.001,0.008c0,0.001,0,0.002,0.001,0.003c0,0.003,0.001,0.006,0.001,0.008c0,0.001,0,0.002,0.001,0.003         c0.001,0.003,0.001,0.006,0.002,0.009c0,0,0,0.001,0,0.002c0,0.003,0.001,0.006,0.002,0.008c0,0.001,0,0.001,0,0.002         c0.001,0.003,0.001,0.006,0.002,0.009c0,0.001,0,0.001,0,0.002c0.001,0.003,0.001,0.006,0.002,0.009c0,0.001,0,0.001,0,0.002         c0.001,0.003,0.001,0.006,0.002,0.009l0,0.001c0.001,0.003,0.001,0.006,0.002,0.01l0,0.001         c0.001,0.003,0.001,0.007,0.002,0.01l0,0.001c0.001,0.003,0.001,0.007,0.002,0.01l0,0.001         c0.001,0.003,0.001,0.007,0.002,0.01l0,0.001c0.002,0.011,0.004,0.021,0.006,0.032c0,0.001,0,0,0,0         c0.001,0.004,0.001,0.007,0.002,0.011c0,0.001,0,0,0,0c0.042,0.221,0.089,0.44,0.14,0.657l0,0         c0.003,0.011,0.005,0.021,0.008,0.032l0,0c0.001,0.003,0.002,0.007,0.002,0.01l0,0.001c0.001,0.003,0.002,0.007,0.002,0.01         l0,0c0.002,0.007,0.003,0.014,0.005,0.021l0,0c0.001,0.003,0.002,0.007,0.002,0.01l0,0.001         c0.001,0.003,0.002,0.007,0.002,0.01c0,0.001,0,0,0,0.001c0.001,0.003,0.002,0.007,0.002,0.01l0,0         c0.001,0.003,0.002,0.007,0.002,0.01c0,0,0,0,0,0.001c0.001,0.003,0.002,0.006,0.002,0.01c0,0.001,0,0.001,0,0.001         c0.001,0.003,0.002,0.006,0.002,0.01c0,0.001,0,0.001,0,0.001c0.001,0.004,0.002,0.007,0.003,0.01c0,0.001,0,0,0,0         c0.001,0.004,0.002,0.007,0.003,0.01l0,0c0.001,0.003,0.002,0.006,0.002,0.009c0,0.001,0,0.001,0,0.002         c0.001,0.003,0.001,0.006,0.002,0.009c0,0.001,0,0.001,0,0.002c0.001,0.003,0.001,0.006,0.002,0.009c0,0,0,0.002,0,0.002         c0.001,0.003,0.002,0.006,0.002,0.009c0,0.001,0,0.001,0,0.002c0.001,0.003,0.001,0.005,0.002,0.008         c0,0.001,0,0.002,0.001,0.003c0.001,0.003,0.001,0.006,0.002,0.008c0,0.001,0,0.002,0.001,0.003         c0.001,0.003,0.001,0.006,0.002,0.008c0,0.001,0,0.002,0,0.002c0.001,0.003,0.002,0.006,0.002,0.009c0,0,0,0.001,0,0.002         c0.001,0.002,0.001,0.005,0.002,0.007c0,0.001,0,0.001,0.001,0.002c0.001,0.003,0.001,0.005,0.002,0.008         c0,0.001,0.001,0.002,0.001,0.003c0.001,0.003,0.001,0.005,0.002,0.008c0,0.001,0.001,0.002,0.001,0.003         c0.001,0.003,0.001,0.005,0.002,0.008c0,0.001,0,0.002,0.001,0.003c0.001,0.002,0.001,0.004,0.002,0.007         c0,0.001,0.001,0.003,0.001,0.004c0.001,0.002,0.001,0.004,0.002,0.007c0,0.001,0.001,0.002,0.001,0.003         C0.5,19.983,0.5,19.985,0.501,19.988c0,0.001,0.001,0.003,0.001,0.004c0.001,0.003,0.001,0.005,0.002,0.008         c0,0.001,0,0.002,0.001,0.003c0.001,0.002,0.001,0.004,0.002,0.007c0,0.001,0.001,0.003,0.001,0.005         c0.001,0.002,0.001,0.004,0.001,0.006c0,0.001,0.001,0.002,0.001,0.003c0.001,0.002,0.001,0.005,0.002,0.007         c0,0.001,0.001,0.003,0.001,0.004c0.001,0.002,0.001,0.005,0.002,0.007c0,0.001,0.001,0.003,0.001,0.004         c0,0.002,0.001,0.003,0.001,0.005c0.001,0.003,0.001,0.004,0.002,0.007c0,0.001,0.001,0.003,0.001,0.004         c0.001,0.003,0.001,0.004,0.002,0.007c0,0.001,0.001,0.003,0.001,0.004c0,0.001,0.001,0.004,0.001,0.005         c0.001,0.002,0.001,0.004,0.002,0.006c0,0.001,0.001,0.003,0.001,0.005c0,0.001,0.001,0.003,0.001,0.004         c0.001,0.002,0.001,0.005,0.002,0.007c0,0.001,0,0.002,0.001,0.003c0.001,0.003,0.002,0.006,0.002,0.009         c0,0.001,0,0.002,0.001,0.003c0.001,0.003,0.002,0.006,0.003,0.009l0,0.002c0.001,0.002,0.001,0.004,0.002,0.006l0,0         c0.001,0.004,0.002,0.007,0.003,0.011l0,0.002c0.001,0.003,0.002,0.007,0.003,0.01c0,0,0,0.001,0,0.001         c0.127,0.473,0.275,0.938,0.443,1.393l0.703-0.26C1.384,20.456,1.148,19.591,0.991,18.717L0.991,18.717z M2.831,23.696         l-0.647,0.379c0.473,0.808,1.016,1.571,1.619,2.281l0.571-0.486C3.799,25.193,3.28,24.461,2.831,23.696L2.831,23.696z          M6.271,27.744l-0.479,0.577c0.572,0.475,1.178,0.91,1.814,1.302c0,0,0,0,0,0c0.004,0.002,0.006,0.004,0.01,0.006         c0,0,0,0,0,0c0.016,0.01,0.03,0.019,0.046,0.028c0,0,0.001,0,0.001,0.001c0.003,0.002,0.006,0.004,0.01,0.006l0,0         c0.009,0.005,0.017,0.01,0.026,0.016c0,0,0,0,0,0c0.004,0.002,0.006,0.004,0.01,0.006c0,0,0,0,0,0         c0.003,0.002,0.007,0.004,0.01,0.006l0,0c0.015,0.009,0.031,0.019,0.046,0.028l0,0c0.034,0.021,0.069,0.041,0.103,0.062l0,0         c0.074,0.044,0.148,0.087,0.223,0.129l0.371-0.652C7.693,28.822,6.955,28.311,6.271,27.744L6.271,27.744z M10.885,30.371         l-0.251,0.707c0.87,0.31,1.775,0.546,2.707,0.702l0.124-0.74C12.588,30.894,11.721,30.669,10.885,30.371L10.885,30.371z          M18.777,30.998c-0.87,0.16-1.763,0.245-2.654,0.252l0.006,0.75c0.393-0.003,0.783-0.02,1.169-0.051h0         c0.014-0.001,0.029-0.002,0.043-0.004l0.001,0c0.004,0,0.007-0.001,0.011-0.001l0,0c0.007-0.001,0.014-0.001,0.021-0.002l0,0         c0.003,0,0.007-0.001,0.01-0.001c0.001,0,0,0,0.001,0c0.011-0.001,0.021-0.002,0.032-0.003l0.001,0         c0.003,0,0.007-0.001,0.01-0.001l0,0c0.007-0.001,0.014-0.001,0.021-0.002c0.001,0,0.001,0,0.001,0         c0.004,0,0.007-0.001,0.01-0.001c0.001,0,0.001,0,0.001,0c0.003,0,0.007-0.001,0.01-0.001l0.001,0         c0.003,0,0.007-0.001,0.01-0.001l0,0c0.003,0,0.007-0.001,0.01-0.001c0.001,0,0.001,0,0.001,0         c0.004,0,0.007-0.001,0.01-0.001l0.002,0c0.003,0,0.006-0.001,0.01-0.001c0.001,0,0.001,0,0.001,0         c0.004,0,0.007-0.001,0.01-0.001c0.001,0,0.001,0,0.001,0c0.003,0,0.006-0.001,0.009-0.001c0.001,0,0.001,0,0.002,0         c0.003,0,0.006-0.001,0.009-0.001c0.001,0,0.002,0,0.002,0c0.003,0,0.006-0.001,0.009-0.001c0.001,0,0.001,0,0.001,0         c0.004,0,0.007-0.001,0.01-0.001c0.001,0,0.002,0,0.002,0c0.004,0,0.006-0.001,0.01-0.001c0,0,0.002,0,0.002,0         c0.003,0,0.006-0.001,0.009-0.001c0.001,0,0.001,0,0.002,0c0.003,0,0.006-0.001,0.008-0.001c0,0,0.002,0,0.002,0         c0.003,0,0.006-0.001,0.009-0.001c0.001,0,0.002,0,0.003,0c0.003,0,0.006-0.001,0.009-0.001c0.001,0,0.002,0,0.003,0         c0.003,0,0.006-0.001,0.009-0.001c0,0,0.001,0,0.001,0c0.003,0,0.006-0.001,0.008-0.001c0.001,0,0.001,0,0.002,0         c0.003,0,0.006-0.001,0.009-0.001c0.001,0,0.002,0,0.003,0c0.003,0,0.006-0.001,0.008-0.001c0.001,0,0.002,0,0.003,0         c0.002,0,0.005,0,0.007-0.001c0.002,0,0.002,0,0.003,0c0.003,0,0.005-0.001,0.008-0.001c0.001,0,0.002,0,0.003,0         c0.003,0,0.005-0.001,0.008-0.001c0.001,0,0.002,0,0.004,0c0.002,0,0.005,0,0.007-0.001c0.002,0,0.003,0,0.004,0         c0.002,0,0.004,0,0.006-0.001c0.001,0,0.002,0,0.003,0c0.003,0,0.005-0.001,0.008-0.001c0.001,0,0.003,0,0.004,0         c0.003,0,0.005-0.001,0.008-0.001c0.002,0,0.002,0,0.004,0c0.002,0,0.004,0,0.006-0.001c0.002,0,0.003,0,0.005-0.001         s0.004,0,0.006-0.001c0.002,0,0.002,0,0.004,0c0.003,0,0.005-0.001,0.008-0.001c0.001,0,0.003,0,0.004,0         c0.003,0,0.005-0.001,0.008-0.001c0.001,0,0.003,0,0.004,0c0.002,0,0.003,0,0.005-0.001c0.002,0,0.004,0,0.006-0.001         c0.002,0,0.004,0,0.006-0.001c0.002,0,0.003,0,0.004,0c0.002,0,0.005-0.001,0.007-0.001c0.002,0,0.003,0,0.004,0         c0.002,0,0.004,0,0.006-0.001c0.002,0,0.003,0,0.005-0.001c0.002,0,0.004,0,0.005-0.001c0.002,0,0.003,0,0.005-0.001         c0.002,0,0.004,0,0.006-0.001c0.002,0,0.003,0,0.005-0.001c0.002,0,0.004,0,0.005-0.001c0.002,0,0.004,0,0.006-0.001         c0.001,0,0.003,0,0.004,0c0.002,0,0.005-0.001,0.007-0.001c0.001,0,0.003,0,0.004,0c0.002,0,0.003,0,0.005-0.001         c0.002,0,0.004-0.001,0.007-0.001c0.002,0,0.004,0,0.005-0.001c0.001,0,0.002,0,0.004,0c0.003,0,0.005-0.001,0.008-0.001         c0.001,0,0.002,0,0.004,0c0.003,0,0.005-0.001,0.008-0.001c0.001,0,0.002,0,0.004,0c0.002,0,0.004,0,0.005-0.001         c0.002,0,0.004-0.001,0.007-0.001c0.002,0,0.003,0,0.005-0.001c0.001,0,0.003,0,0.004,0c0.003,0,0.005-0.001,0.008-0.001         c0.001,0,0.002,0,0.003,0c0.003,0,0.005-0.001,0.007-0.001c0.001,0,0.003,0,0.004-0.001c0.002,0,0.003,0,0.005-0.001         c0.001,0,0.002,0,0.004,0c0.003,0,0.005-0.001,0.008-0.001c0.001,0,0.002,0,0.004,0c0.003,0,0.005-0.001,0.008-0.001         c0.001,0,0.002,0,0.003,0c0.002,0,0.004,0,0.005-0.001c0.001,0,0.001,0,0.002,0c0.004,0,0.007-0.001,0.01-0.001         c0.001,0,0.002,0,0.003,0c0.003,0,0.006-0.001,0.009-0.001c0.001,0,0.002,0,0.003,0c0.003,0,0.005-0.001,0.008-0.001         c0.001,0,0.003,0,0.004,0c0.002,0,0.003,0,0.005-0.001c0.001,0,0.001,0,0.002,0c0.003,0,0.007-0.001,0.01-0.001         c0,0,0.001,0,0.002,0c0.003,0,0.007-0.001,0.01-0.001c0,0,0.001,0,0.002,0c0.004,0,0.007-0.001,0.011-0.001         c0.001,0,0.001,0,0.001,0c0.002,0,0.004,0,0.006-0.001c0.001,0,0.002,0,0.002,0c0.003,0,0.006-0.001,0.01-0.001         c0.001,0,0.002,0,0.002,0c0.003,0,0.007-0.001,0.01-0.001l0.002,0c0.006-0.001,0.011-0.002,0.018-0.002         c0.001,0,0.001,0,0.002,0c0.003,0,0.007-0.001,0.01-0.001c0.001,0,0.001,0,0.002,0c0.004-0.001,0.007-0.001,0.011-0.002         c0,0,0,0,0,0c0.006-0.001,0.012-0.002,0.018-0.002l0.001,0c0.004-0.001,0.007-0.001,0.011-0.002l0.001,0         c0.006-0.001,0.012-0.002,0.018-0.003c0,0,0.001,0,0.001,0c0.005-0.001,0.007-0.001,0.012-0.002c0,0,0.001,0,0.001,0         c0.004-0.001,0.008-0.001,0.012-0.002l0,0c0.006-0.001,0.012-0.002,0.018-0.003c0,0,0.001,0,0.001,0         c0.004-0.001,0.007-0.001,0.012-0.002l0,0c0.006-0.001,0.012-0.002,0.018-0.003l0.001,0c0.004-0.001,0.007-0.001,0.011-0.002         c0,0,0.001,0,0.001,0c0.005-0.001,0.008-0.001,0.012-0.002l0,0c0.006-0.001,0.012-0.002,0.019-0.003l0,0         c0.004-0.001,0.008-0.001,0.012-0.002c0,0,0.001,0,0.001,0c0.01-0.002,0.02-0.003,0.03-0.004l0.001,0         c0.004-0.001,0.007-0.001,0.011-0.002l0.001,0c0.01-0.002,0.02-0.003,0.03-0.005c0,0,0.001,0,0.001,0         c0.005-0.001,0.008-0.001,0.012-0.002l0,0c0.006-0.001,0.012-0.002,0.018-0.003c0,0,0.001,0,0.001,0         c0.003,0,0.007-0.001,0.01-0.002c0.001,0,0.001,0,0.002,0c0.01-0.002,0.02-0.003,0.03-0.005l0.001,0         c0.004-0.001,0.007-0.001,0.011-0.002l0.001,0c0.006-0.001,0.012-0.002,0.018-0.003l0.001,0         c0.004-0.001,0.007-0.001,0.011-0.002l0.002,0c0.004-0.001,0.007-0.001,0.012-0.002l0,0c0.006-0.001,0.012-0.002,0.018-0.003         c0,0,0,0,0,0c0.004-0.001,0.008-0.001,0.012-0.002h0c0.006-0.001,0.012-0.002,0.019-0.003l0,0         c0.004-0.001,0.007-0.001,0.012-0.002c0.001,0,0.001,0,0.001,0c0.004-0.001,0.007-0.001,0.011-0.002c0,0,0.001,0,0.001,0         c0.006-0.001,0.012-0.002,0.018-0.003c0,0,0.001,0,0.001,0c0.004-0.001,0.007-0.001,0.011-0.002c0,0,0.001,0,0.001,0         c0.006-0.001,0.012-0.002,0.018-0.003c0,0,0.001,0,0.001,0c0.003-0.001,0.007-0.001,0.01-0.002c0.001,0,0.002,0,0.003,0         c0.003-0.001,0.006-0.001,0.009-0.002c0.001,0,0.001,0,0.002,0c0.006-0.001,0.011-0.002,0.017-0.003c0.001,0,0.001,0,0.001,0         c0.004-0.001,0.007-0.001,0.01-0.002c0.001,0,0.002,0,0.002,0c0.004-0.001,0.008-0.001,0.011-0.002c0,0,0.001,0,0.002,0         c0.002,0,0.004-0.001,0.006-0.001c0,0,0.001,0,0.001,0c0.004-0.001,0.007-0.001,0.01-0.002c0.001,0,0.002,0,0.003-0.001         c0.003-0.001,0.005-0.001,0.008-0.001c0.001,0,0.002,0,0.003-0.001c0.003,0,0.006-0.001,0.008-0.001         c0.001,0,0.002,0,0.003-0.001c0.002,0,0.003-0.001,0.005-0.001c0.001,0,0.002,0,0.004-0.001c0.003,0,0.005-0.001,0.008-0.001         c0.001,0,0.003,0,0.004-0.001c0.003,0,0.004-0.001,0.007-0.001c0.001,0,0.003-0.001,0.004-0.001         c0.002,0,0.003-0.001,0.005-0.001c0.002,0,0.004-0.001,0.007-0.001c0.002,0,0.003-0.001,0.004-0.001         c0.002,0,0.003-0.001,0.005-0.001c0.002,0,0.004-0.001,0.006-0.001c0.002,0,0.003-0.001,0.005-0.001         c0.002,0,0.003-0.001,0.005-0.001c0.002,0,0.004-0.001,0.006-0.001c0.001,0,0.003-0.001,0.004-0.001         c0.002,0,0.004-0.001,0.006-0.001c0.002,0,0.003-0.001,0.005-0.001c0.002,0,0.003-0.001,0.005-0.001         c0.002,0,0.004-0.001,0.006-0.001c0.002,0,0.004-0.001,0.005-0.001c0.002,0,0.003,0,0.004-0.001         c0.002,0,0.005-0.001,0.007-0.001c0.002,0,0.003-0.001,0.004-0.001c0.002,0,0.003-0.001,0.005-0.001         c0.001,0,0.002,0,0.003-0.001L18.777,30.998L18.777,30.998z M23.749,29.137c-0.765,0.452-1.574,0.839-2.404,1.15l0.263,0.702         c0.57-0.213,1.123-0.458,1.66-0.732c0,0,0,0,0,0c0.004-0.002,0.007-0.004,0.011-0.006l0,0         c0.005-0.003,0.011-0.005,0.016-0.008c0,0,0.001,0,0.001,0c0.003-0.002,0.007-0.003,0.009-0.005         c0.001,0,0.001-0.001,0.001-0.001c0.003-0.002,0.007-0.003,0.009-0.005c0.001,0,0.001-0.001,0.002-0.001         c0.003-0.002,0.006-0.003,0.009-0.005c0,0,0.001-0.001,0.002-0.001c0.005-0.003,0.01-0.005,0.015-0.008         c0,0,0.001-0.001,0.002-0.001c0.003-0.001,0.005-0.003,0.008-0.004c0.001,0,0.002-0.001,0.002-0.001         c0.003-0.001,0.005-0.003,0.008-0.004c0.001,0,0.002-0.001,0.003-0.001c0.002-0.001,0.005-0.003,0.007-0.004         c0.001-0.001,0.002-0.001,0.003-0.002c0.002-0.001,0.003-0.001,0.005-0.002c0.002-0.001,0.004-0.002,0.006-0.003         c0.001-0.001,0.003-0.002,0.004-0.002c0.001-0.001,0.003-0.001,0.004-0.002c0.002-0.001,0.004-0.002,0.006-0.003         c0.001-0.001,0.002-0.001,0.004-0.002c0.002-0.001,0.004-0.002,0.006-0.003c0.002-0.001,0.003-0.002,0.005-0.002         c0.001-0.001,0.003-0.001,0.004-0.002c0.002-0.001,0.004-0.002,0.006-0.003c0.001-0.001,0.003-0.001,0.004-0.002         c0.002-0.001,0.004-0.002,0.006-0.003c0.001-0.001,0.002-0.001,0.004-0.002c0.002-0.001,0.004-0.002,0.006-0.003         c0.001-0.001,0.003-0.001,0.004-0.002c0.002-0.001,0.004-0.002,0.006-0.003c0.001,0,0.002-0.001,0.003-0.001         c0.002-0.001,0.004-0.002,0.006-0.003c0.001,0,0.002-0.001,0.003-0.001c0.002-0.001,0.005-0.003,0.007-0.004         c0.001,0,0.002-0.001,0.003-0.001c0.002-0.001,0.005-0.003,0.007-0.004c0.001,0,0.002-0.001,0.003-0.002         c0.002-0.001,0.005-0.003,0.007-0.004c0.001,0,0.001-0.001,0.002-0.001c0.002-0.001,0.005-0.002,0.007-0.004         c0.001,0,0.002-0.001,0.003-0.001c0.002-0.001,0.005-0.002,0.007-0.004c0.001,0,0.001-0.001,0.002-0.001         c0.003-0.001,0.005-0.003,0.008-0.004c0.001,0,0.002-0.001,0.002-0.001c0.003-0.001,0.005-0.003,0.008-0.004         c0,0,0.001-0.001,0.002-0.001c0.003-0.001,0.006-0.003,0.008-0.004l0.001-0.001c0.006-0.003,0.012-0.006,0.018-0.01l0.001,0         c0.003-0.002,0.006-0.003,0.009-0.005l0.001,0c0.003-0.002,0.006-0.003,0.009-0.005l0,0c0.185-0.1,0.369-0.203,0.55-0.31         L23.749,29.137L23.749,29.137z M27.783,25.682c-0.564,0.686-1.192,1.326-1.866,1.904l0.488,0.57         c0.065-0.055,0.129-0.111,0.192-0.168c0,0,0,0,0,0c0.003-0.003,0.005-0.005,0.008-0.007c0,0,0.001-0.001,0.001-0.001         c0.002-0.002,0.004-0.004,0.007-0.006c0.001-0.001,0.002-0.002,0.003-0.002c0.002-0.002,0.004-0.004,0.006-0.005         c0.001-0.001,0.002-0.002,0.003-0.002c0.001-0.001,0.003-0.003,0.004-0.004c0.001-0.001,0.003-0.003,0.004-0.004         c0.001-0.001,0.002-0.002,0.003-0.003c0.002-0.002,0.004-0.003,0.005-0.005c0.001-0.001,0.002-0.002,0.003-0.003         c0.002-0.001,0.003-0.003,0.005-0.005c0.001-0.001,0.002-0.002,0.003-0.003c0.001-0.001,0.003-0.003,0.004-0.004         c0.001-0.001,0.002-0.002,0.003-0.003c0.002-0.001,0.003-0.003,0.005-0.004c0.001-0.001,0.002-0.002,0.003-0.002         c0.002-0.002,0.004-0.004,0.006-0.005c0.001-0.001,0.001-0.001,0.002-0.002c0.002-0.002,0.004-0.004,0.006-0.006         c0.001-0.001,0.001-0.001,0.002-0.002c0.002-0.002,0.005-0.004,0.007-0.006l0.001-0.001c0.002-0.002,0.005-0.004,0.007-0.006         c0,0,0,0,0.001-0.001c0.002-0.002,0.005-0.004,0.007-0.007c0,0,0,0,0,0c0.003-0.002,0.005-0.005,0.008-0.007l0,0         c0.003-0.002,0.005-0.005,0.008-0.007l0,0c0.003-0.002,0.005-0.005,0.008-0.007l0,0c0.584-0.528,1.128-1.099,1.629-1.708         L27.783,25.682L27.783,25.682z M30.392,21.057c-0.294,0.836-0.664,1.653-1.101,2.427l0.653,0.369         c0.054-0.096,0.107-0.192,0.159-0.289l0-0.001c0.002-0.004,0.003-0.006,0.005-0.01c0,0,0-0.001,0.001-0.001         c0.002-0.003,0.003-0.006,0.005-0.009c0-0.001,0.001-0.001,0.001-0.001c0.002-0.003,0.003-0.006,0.005-0.009         c0-0.001,0.001-0.001,0.001-0.002c0.001-0.002,0.002-0.003,0.003-0.005c0.001-0.002,0.002-0.004,0.003-0.006         c0.001-0.001,0.002-0.003,0.002-0.004c0.001-0.001,0.001-0.002,0.002-0.003c0.001-0.002,0.002-0.004,0.004-0.007         c0.001-0.001,0.001-0.002,0.002-0.004c0.001-0.002,0.002-0.004,0.003-0.005c0.001-0.002,0.002-0.003,0.002-0.005         c0.001-0.001,0.001-0.002,0.002-0.004c0.001-0.002,0.002-0.004,0.003-0.006c0-0.001,0.001-0.003,0.002-0.004         c0.001-0.002,0.002-0.004,0.003-0.006c0.001-0.001,0.001-0.002,0.002-0.004c0.001-0.002,0.002-0.004,0.003-0.006         c0.001-0.001,0.001-0.002,0.002-0.003c0.001-0.002,0.002-0.004,0.003-0.006c0.001-0.001,0.001-0.002,0.002-0.003         c0.001-0.002,0.002-0.004,0.003-0.006c0-0.001,0.001-0.002,0.002-0.003c0.001-0.002,0.002-0.005,0.004-0.007         c0-0.001,0.001-0.002,0.002-0.003c0.001-0.002,0.002-0.005,0.004-0.007c0,0,0.001-0.002,0.001-0.002         c0.001-0.003,0.003-0.005,0.004-0.008c0,0,0.001-0.001,0.001-0.002c0.001-0.002,0.003-0.005,0.004-0.007         c0,0,0.001-0.001,0.001-0.002c0.001-0.003,0.003-0.005,0.004-0.008c0,0,0.001-0.002,0.001-0.002         c0.001-0.003,0.003-0.005,0.004-0.008c0-0.001,0.001-0.001,0.001-0.001c0.002-0.004,0.003-0.006,0.005-0.009l0.001-0.001         c0.001-0.003,0.003-0.006,0.005-0.009l0,0c0.002-0.003,0.003-0.006,0.005-0.009c0,0,0,0,0-0.001         c0.002-0.003,0.003-0.006,0.005-0.009c0,0,0,0,0-0.001c0.002-0.003,0.003-0.006,0.005-0.009l0.001-0.001         c0.002-0.003,0.003-0.006,0.005-0.009l0,0c0.002-0.003,0.003-0.006,0.005-0.009c0,0,0,0,0,0         c0.004-0.007,0.007-0.013,0.01-0.02l0,0c0.003-0.006,0.007-0.013,0.01-0.019l0,0c0.007-0.013,0.013-0.026,0.02-0.039l0,0         c0.099-0.194,0.194-0.391,0.284-0.59l0,0c0.006-0.013,0.012-0.026,0.018-0.039c0,0,0,0,0-0.001         c0.001-0.003,0.003-0.006,0.004-0.009l0-0.001c0.001-0.003,0.003-0.006,0.004-0.01l0,0c0.003-0.007,0.006-0.013,0.009-0.02         c0,0,0,0,0,0c0.001-0.003,0.003-0.006,0.004-0.009c0,0,0,0,0-0.001c0.001-0.003,0.003-0.006,0.004-0.009         c0,0,0-0.001,0.001-0.001c0.001-0.003,0.003-0.006,0.004-0.009l0-0.001c0.001-0.003,0.003-0.006,0.004-0.01l0,0         c0.001-0.003,0.003-0.006,0.004-0.009l0,0c0.001-0.003,0.003-0.006,0.004-0.009c0,0,0-0.001,0.001-0.001         c0.001-0.003,0.003-0.006,0.004-0.009c0,0,0-0.001,0.001-0.001c0.001-0.003,0.003-0.006,0.004-0.009l0.001-0.002         c0.001-0.003,0.003-0.006,0.004-0.009c0,0,0-0.001,0-0.001c0.001-0.003,0.002-0.005,0.004-0.008c0,0,0.001-0.001,0.001-0.002         c0.001-0.003,0.002-0.005,0.004-0.008l0.001-0.002c0.001-0.003,0.002-0.005,0.003-0.008c0-0.001,0.001-0.002,0.001-0.003         c0.001-0.003,0.002-0.005,0.003-0.008c0-0.001,0.001-0.002,0.001-0.002c0.001-0.003,0.002-0.005,0.003-0.008         c0,0,0.001-0.002,0.001-0.002c0.001-0.002,0.002-0.005,0.003-0.007c0-0.001,0.001-0.001,0.001-0.002         c0.001-0.003,0.002-0.005,0.003-0.008l0.001-0.003c0.001-0.003,0.002-0.005,0.003-0.008c0-0.001,0.001-0.002,0.001-0.003         c0.001-0.003,0.002-0.005,0.003-0.008c0-0.001,0.001-0.002,0.001-0.003c0.001-0.002,0.002-0.004,0.003-0.006         c0.001-0.001,0.001-0.003,0.002-0.004c0.001-0.002,0.001-0.003,0.002-0.005c0.001-0.001,0.001-0.003,0.002-0.005         c0.001-0.002,0.002-0.004,0.002-0.006c0.001-0.001,0.001-0.002,0.002-0.004c0.001-0.002,0.002-0.004,0.003-0.007         c0-0.001,0.001-0.003,0.002-0.004c0.001-0.002,0.002-0.004,0.003-0.007c0.001-0.001,0.001-0.002,0.002-0.004         c0.001-0.002,0.001-0.003,0.002-0.005c0.001-0.002,0.002-0.004,0.003-0.006c0.001-0.001,0.001-0.003,0.002-0.004         c0.001-0.002,0.002-0.004,0.002-0.006c0.001-0.002,0.001-0.003,0.002-0.005c0.001-0.001,0.001-0.003,0.002-0.005         c0.001-0.002,0.002-0.004,0.003-0.006c0.001-0.002,0.001-0.003,0.002-0.004c0.001-0.001,0.001-0.002,0.002-0.004         c0.001-0.002,0.002-0.005,0.003-0.007c0-0.001,0.001-0.002,0.001-0.003c0.001-0.003,0.002-0.005,0.003-0.008         c0-0.001,0.001-0.002,0.001-0.003c0.001-0.003,0.002-0.005,0.003-0.008c0-0.001,0.001-0.002,0.001-0.003         c0.001-0.003,0.002-0.005,0.004-0.009c0,0,0.001-0.001,0.001-0.002c0.001-0.002,0.001-0.003,0.002-0.005         c0-0.001,0.001-0.002,0.001-0.002c0.001-0.003,0.003-0.007,0.004-0.009c0-0.001,0.001-0.002,0.001-0.003         c0.001-0.003,0.002-0.005,0.003-0.008c0-0.001,0.001-0.002,0.001-0.002c0.001-0.003,0.003-0.007,0.004-0.01c0,0,0,0,0,0         c0.004-0.009,0.008-0.018,0.012-0.028l0,0c0.121-0.288,0.234-0.581,0.338-0.877L30.392,21.057L30.392,21.057z M31.999,15.807         l-0.75,0.009L31.25,16c0,0.83-0.067,1.663-0.2,2.475l0.74,0.121c0.016-0.099,0.031-0.198,0.046-0.298l0,0         c0.001-0.006,0.002-0.013,0.003-0.019l0-0.001c0.001-0.006,0.002-0.013,0.003-0.019l0-0.001c0-0.003,0.001-0.006,0.001-0.01         l0-0.001c0.001-0.006,0.002-0.013,0.003-0.019l0-0.001c0.001-0.006,0.002-0.013,0.003-0.019l0-0.001         c0-0.003,0.001-0.006,0.001-0.009c0-0.001,0-0.001,0-0.001c0.001-0.006,0.002-0.012,0.003-0.018c0-0.001,0-0.001,0-0.002         c0-0.003,0.001-0.006,0.001-0.009c0,0,0,0,0,0c0-0.003,0.001-0.006,0.001-0.009c0,0,0-0.001,0-0.001         c0-0.003,0.001-0.006,0.001-0.009c0-0.001,0-0.001,0-0.001c0-0.003,0.001-0.006,0.001-0.009c0-0.001,0,0,0-0.001         c0-0.003,0.001-0.006,0.001-0.009c0-0.001,0-0.001,0-0.002c0-0.003,0.001-0.006,0.001-0.009c0-0.001,0-0.001,0-0.002         c0-0.003,0.001-0.005,0.001-0.008l0-0.002c0-0.003,0.001-0.006,0.001-0.009c0-0.001,0-0.001,0-0.002         c0-0.003,0.001-0.006,0.001-0.009l0,0c0-0.003,0.001-0.006,0.001-0.009c0-0.001,0-0.001,0-0.002         c0-0.003,0.001-0.006,0.001-0.008c0-0.001,0-0.001,0-0.001c0-0.003,0.001-0.005,0.001-0.008c0-0.001,0-0.001,0-0.001         c0-0.003,0.001-0.006,0.001-0.009c0,0,0-0.001,0-0.002c0-0.003,0.001-0.005,0.001-0.008c0,0,0-0.001,0-0.001         c0-0.003,0.001-0.006,0.001-0.009c0-0.001,0-0.001,0-0.002c0-0.003,0.001-0.006,0.001-0.008c0-0.001,0-0.001,0-0.001         c0-0.003,0.001-0.005,0.001-0.008c0-0.001,0-0.002,0-0.002c0-0.003,0.001-0.005,0.001-0.008c0,0,0-0.002,0-0.003         c0-0.002,0.001-0.005,0.001-0.007c0,0,0-0.001,0-0.002c0-0.003,0.001-0.005,0.001-0.008c0-0.001,0-0.002,0-0.003         c0-0.003,0.001-0.005,0.001-0.008c0-0.001,0-0.001,0-0.003c0-0.002,0.001-0.004,0.001-0.006c0-0.001,0-0.002,0-0.003         c0-0.003,0.001-0.005,0.001-0.008c0-0.001,0-0.002,0-0.003c0-0.002,0.001-0.004,0.001-0.006c0-0.001,0-0.002,0-0.003         c0-0.003,0.001-0.005,0.001-0.008c0-0.001,0-0.002,0-0.003c0-0.003,0.001-0.005,0.001-0.008c0-0.001,0-0.002,0-0.003         c0-0.002,0-0.004,0.001-0.006c0-0.001,0-0.002,0-0.003c0-0.003,0.001-0.005,0.001-0.008c0-0.001,0-0.002,0-0.003         c0-0.002,0-0.004,0.001-0.006c0-0.001,0-0.002,0-0.002c0-0.003,0.001-0.005,0.001-0.008c0-0.001,0-0.002,0-0.004         c0-0.002,0.001-0.005,0.001-0.007c0-0.001,0-0.002,0-0.003c0-0.002,0-0.004,0.001-0.006c0-0.001,0-0.002,0-0.004         c0-0.003,0.001-0.005,0.001-0.008c0-0.001,0-0.002,0-0.003c0-0.002,0-0.004,0.001-0.006c0-0.001,0-0.002,0-0.002         c0-0.003,0.001-0.005,0.001-0.008c0-0.001,0-0.002,0-0.003c0-0.003,0.001-0.005,0.001-0.008c0-0.001,0-0.002,0-0.003         c0-0.002,0-0.004,0.001-0.006c0-0.001,0-0.002,0-0.003c0-0.002,0.001-0.005,0.001-0.007c0-0.002,0-0.002,0-0.004         c0-0.002,0-0.004,0.001-0.005c0-0.002,0-0.002,0-0.004c0-0.002,0-0.004,0.001-0.007c0-0.001,0-0.003,0-0.004         c0-0.002,0.001-0.005,0.001-0.007c0-0.001,0-0.002,0-0.003c0-0.002,0-0.004,0.001-0.006c0-0.001,0-0.002,0-0.003         c0-0.003,0.001-0.005,0.001-0.008c0-0.001,0-0.002,0-0.003c0-0.002,0-0.004,0.001-0.006c0-0.001,0-0.002,0-0.003         c0-0.002,0.001-0.005,0.001-0.007c0-0.001,0-0.002,0-0.003c0-0.002,0-0.004,0.001-0.006c0-0.002,0-0.003,0-0.005         c0-0.002,0-0.003,0.001-0.005c0-0.002,0-0.002,0-0.004c0-0.002,0.001-0.005,0.001-0.007c0-0.002,0-0.002,0-0.003         c0-0.002,0-0.004,0.001-0.006c0-0.002,0-0.002,0-0.004c0-0.002,0-0.004,0.001-0.006c0-0.001,0-0.003,0-0.004         c0-0.002,0-0.004,0.001-0.006c0-0.002,0-0.003,0-0.005c0-0.002,0-0.003,0.001-0.005c0-0.002,0-0.002,0-0.004         c0-0.002,0-0.005,0.001-0.007c0-0.002,0-0.002,0-0.004c0-0.002,0-0.003,0.001-0.005c0-0.002,0-0.003,0-0.005         c0-0.002,0-0.004,0.001-0.006c0-0.001,0-0.003,0-0.004c0-0.002,0-0.004,0.001-0.006c0-0.002,0-0.003,0-0.005         c0-0.002,0-0.003,0-0.005c0-0.002,0-0.002,0-0.004c0-0.002,0-0.005,0.001-0.007c0-0.002,0-0.002,0-0.004         c0-0.002,0-0.004,0.001-0.005c0-0.002,0-0.003,0-0.004c0-0.002,0-0.004,0.001-0.006c0-0.001,0-0.003,0-0.004         c0-0.002,0-0.004,0.001-0.006c0-0.002,0-0.003,0-0.005c0-0.002,0-0.003,0-0.005c0-0.002,0-0.003,0-0.004         c0-0.002,0-0.005,0.001-0.007c0-0.002,0-0.002,0-0.004c0-0.002,0-0.003,0-0.005c0-0.002,0-0.003,0-0.005         c0-0.002,0-0.004,0.001-0.006c0-0.001,0-0.003,0-0.004c0-0.002,0-0.004,0.001-0.006c0-0.002,0-0.004,0.001-0.006         c0-0.001,0-0.003,0-0.005c0-0.002,0-0.003,0-0.004c0-0.002,0-0.005,0.001-0.007c0-0.002,0-0.003,0-0.004         c0-0.002,0-0.003,0-0.005c0-0.002,0-0.004,0.001-0.006c0-0.002,0-0.003,0-0.005c0-0.002,0-0.003,0-0.005         c0-0.002,0-0.003,0-0.005c0-0.002,0-0.004,0.001-0.006c0-0.002,0-0.003,0-0.005c0-0.002,0-0.003,0-0.004         c0-0.002,0-0.005,0.001-0.007c0-0.002,0-0.002,0-0.004c0-0.002,0-0.003,0-0.005c0-0.002,0-0.003,0-0.005         c0-0.002,0-0.004,0-0.006c0-0.001,0-0.003,0-0.004c0-0.002,0-0.004,0.001-0.006c0-0.002,0-0.003,0-0.005         c0-0.002,0-0.003,0-0.005c0-0.002,0-0.002,0-0.004c0-0.002,0-0.005,0.001-0.007c0-0.002,0-0.003,0-0.004         c0-0.002,0-0.003,0-0.005c0-0.002,0-0.004,0.001-0.006c0-0.002,0-0.003,0-0.005c0-0.001,0-0.003,0-0.004         c0-0.002,0-0.004,0-0.005c0-0.002,0-0.004,0-0.006c0-0.001,0-0.003,0-0.004c0-0.002,0-0.003,0-0.005         c0-0.002,0-0.004,0.001-0.007c0-0.002,0-0.003,0-0.004c0-0.001,0-0.003,0-0.004c0-0.002,0-0.004,0.001-0.006         c0-0.002,0-0.003,0-0.005c0-0.001,0-0.003,0-0.004c0-0.002,0-0.003,0-0.005c0-0.003,0-0.004,0.001-0.007         c0-0.001,0-0.003,0-0.004c0-0.002,0-0.004,0-0.006c0-0.002,0-0.004,0-0.005c0-0.002,0-0.003,0-0.005c0-0.001,0-0.003,0-0.004         c0-0.002,0-0.004,0.001-0.006c0-0.002,0-0.003,0-0.005c0-0.002,0-0.003,0-0.004c0-0.002,0-0.003,0-0.005         c0-0.002,0-0.004,0-0.006c0-0.002,0-0.003,0-0.005s0-0.002,0-0.004c0-0.002,0-0.005,0.001-0.007c0-0.002,0-0.002,0-0.004         c0-0.002,0-0.004,0-0.006c0-0.002,0-0.003,0-0.005c0-0.002,0-0.004,0-0.006c0-0.001,0-0.003,0-0.004         c0-0.002,0-0.005,0.001-0.007c0-0.001,0-0.003,0-0.004c0-0.002,0-0.004,0-0.005c0-0.001,0-0.003,0-0.004         c0-0.002,0-0.005,0.001-0.007c0-0.002,0-0.002,0-0.004c0-0.002,0-0.004,0-0.005c0-0.002,0-0.003,0-0.004         c0-0.002,0-0.004,0-0.006c0-0.001,0-0.003,0-0.004c0-0.002,0-0.005,0.001-0.008c0-0.001,0-0.002,0-0.003         c0-0.002,0-0.004,0-0.005c0-0.002,0-0.002,0-0.004c0-0.002,0-0.005,0.001-0.007c0-0.001,0-0.003,0-0.004         c0-0.002,0-0.004,0-0.006c0-0.002,0-0.002,0-0.004c0-0.002,0-0.004,0-0.007c0-0.001,0-0.002,0-0.003         c0-0.003,0-0.005,0.001-0.008c0-0.001,0-0.002,0-0.003c0-0.002,0-0.004,0-0.005c0-0.001,0-0.002,0-0.003         c0-0.003,0-0.005,0.001-0.008c0-0.001,0-0.002,0-0.003c0-0.002,0-0.004,0-0.006c0-0.001,0-0.002,0-0.003         c0-0.002,0-0.004,0-0.007c0-0.001,0-0.003,0-0.004c0-0.003,0-0.005,0.001-0.008c0-0.001,0-0.002,0-0.003         c0-0.002,0-0.004,0-0.006c0-0.001,0-0.002,0-0.003c0-0.003,0-0.005,0.001-0.008c0-0.001,0-0.002,0-0.003         c0-0.002,0-0.004,0-0.007c0-0.001,0-0.002,0-0.003c0-0.002,0-0.005,0-0.007c0-0.001,0-0.002,0-0.003c0-0.003,0-0.005,0-0.008         c0-0.001,0-0.002,0-0.003c0-0.002,0-0.004,0-0.006c0-0.001,0-0.002,0-0.003c0-0.003,0-0.005,0-0.007c0-0.002,0-0.002,0-0.004         c0-0.002,0-0.004,0-0.006c0-0.001,0-0.003,0-0.004c0-0.002,0-0.004,0-0.007c0-0.001,0-0.003,0-0.004c0-0.003,0-0.005,0-0.008         c0-0.001,0-0.002,0-0.003c0-0.002,0-0.004,0-0.006c0-0.001,0-0.002,0-0.004c0-0.003,0-0.005,0-0.008c0-0.001,0-0.002,0-0.003         c0-0.002,0-0.004,0-0.007c0-0.001,0-0.002,0-0.003c0-0.002,0-0.005,0-0.007c0-0.001,0-0.002,0-0.003c0-0.003,0-0.005,0-0.008         c0-0.001,0-0.002,0-0.003c0-0.002,0-0.004,0-0.006c0-0.001,0-0.002,0-0.003c0-0.003,0-0.005,0-0.008c0-0.001,0-0.002,0-0.003         c0-0.002,0-0.005,0-0.007l0-0.002c0-0.003,0-0.005,0-0.008c0-0.001,0-0.002,0-0.003c0-0.003,0-0.005,0-0.008         c0-0.001,0-0.001,0-0.002c0-0.002,0-0.005,0-0.007c0-0.001,0-0.002,0-0.003c0-0.003,0-0.005,0-0.008c0-0.001,0-0.002,0-0.003         c0-0.002,0-0.005,0-0.007c0-0.001,0-0.001,0-0.003c0-0.003,0-0.005,0-0.008c0-0.001,0-0.002,0-0.003c0-0.003,0-0.005,0-0.008         c0-0.001,0-0.002,0-0.003c0-0.002,0-0.004,0-0.007c0-0.001,0-0.002,0-0.003c0-0.003,0-0.005,0-0.008c0-0.001,0-0.002,0-0.003         c0-0.002,0-0.005,0-0.007c0-0.001,0-0.001,0-0.002c0-0.003,0-0.005,0-0.008c0-0.001,0-0.002,0-0.003c0-0.003,0-0.005,0-0.008         c0-0.001,0-0.002,0-0.003c0-0.002,0-0.004,0-0.006c0-0.001,0-0.002,0-0.003c0-0.003,0-0.005,0-0.008c0-0.001,0-0.002,0-0.003         c0-0.002,0-0.005,0-0.007c0-0.001,0-0.002,0-0.002c0-0.003,0-0.005,0-0.008c0-0.001,0-0.002,0-0.003c0-0.003,0-0.005,0-0.008         c0-0.001,0-0.002,0-0.003c0-0.002,0-0.004,0-0.006c0-0.001,0-0.002,0-0.003c0-0.003,0-0.005,0-0.008c0-0.001,0-0.002,0-0.003         c0-0.002,0-0.005,0-0.007c0-0.001,0-0.001,0-0.002c0-0.003,0-0.005,0-0.007c0-0.001,0-0.002,0-0.003c0-0.003,0-0.005,0-0.008         c0-0.001,0-0.002,0-0.003c0-0.002,0-0.004,0-0.007c0-0.001,0-0.002,0-0.003c0-0.003,0-0.006,0-0.008c0-0.001,0-0.002,0-0.003         c0-0.003,0-0.005,0-0.008c0-0.001,0-0.001,0-0.002c0-0.003,0-0.005,0-0.008c0-0.001,0-0.002,0-0.003c0-0.003,0-0.005,0-0.008         c0-0.001,0-0.002,0-0.003c0-0.002,0-0.004,0-0.007c0-0.001,0-0.002,0-0.003c0-0.003,0-0.005,0-0.008c0-0.001,0-0.002,0-0.003         c0-0.002,0-0.005,0-0.007c0-0.001,0-0.002,0-0.002c0-0.003,0-0.005,0-0.008c0-0.001,0-0.002,0-0.003c0-0.003,0-0.005,0-0.008         c0-0.001,0-0.002,0-0.003c0-0.002,0-0.004,0-0.007c0-0.001,0-0.002,0-0.003c0-0.003,0-0.006,0-0.008l0-0.003         c0-0.003,0-0.005,0-0.008c0-0.001,0,0,0,0c0-0.003,0-0.006,0-0.009c0-0.001,0-0.002,0-0.003c0-0.003,0-0.005,0-0.008         c0-0.001,0-0.002,0-0.003c0-0.002,0-0.005,0-0.007c0-0.001,0-0.001,0-0.003c0-0.003,0-0.006,0-0.008c0-0.001,0-0.002,0-0.003         c0-0.003,0-0.006,0-0.008l0,0c0-0.003,0-0.006,0-0.009c0-0.001,0-0.001,0-0.003c0-0.003,0-0.006,0-0.009l0-0.002         c0-0.003,0-0.005,0-0.008c0-0.001,0-0.001,0-0.002c0-0.003,0-0.006,0-0.009c0,0,0-0.001,0-0.002c0-0.003,0-0.006,0-0.009l0,0         c0-0.003,0-0.006,0-0.009c0-0.001,0-0.001,0-0.001c0-0.004,0-0.007,0-0.01c0-0.001,0-0.001,0-0.001c0-0.003,0-0.006,0-0.009         l0-0.001c0-0.003,0-0.006,0-0.009c0-0.001,0-0.002,0-0.002c0-0.003,0-0.006,0-0.009l0,0c0-0.003,0-0.006,0-0.009         c0-0.001,0-0.002,0-0.002c0-0.003,0-0.006,0-0.009c0-0.001,0-0.001,0-0.002c0-0.002,0-0.005,0-0.007c0-0.001,0-0.001,0-0.002         c0-0.003,0-0.006,0-0.009c0,0,0-0.002,0-0.002c0-0.003,0-0.006,0-0.009l0,0c0-0.003,0-0.006,0-0.009c0-0.001,0-0.002,0-0.002         c0-0.003,0-0.006,0-0.009c0-0.001,0-0.001,0-0.002c0-0.003,0-0.005,0-0.008l0-0.002c0-0.003,0-0.006,0-0.009         c0-0.001,0-0.002,0-0.002c0-0.003,0-0.006,0-0.009l0-0.001c0-0.003,0-0.006,0-0.009c0-0.001,0-0.002,0-0.003         c0-0.003,0-0.006,0-0.009c0-0.001,0-0.001,0-0.002c0-0.003,0-0.005,0-0.008l0-0.002c0-0.003,0-0.006,0-0.009         c0-0.001,0-0.001,0-0.002c0-0.006,0-0.012,0-0.018c0-0.001,0-0.002,0-0.002c0-0.004,0-0.007,0-0.009c0-0.001,0-0.001,0-0.002         c0-0.003,0-0.005,0-0.008c0-0.001,0-0.001,0-0.002c0-0.003,0-0.006,0-0.009c0-0.001,0-0.002,0-0.002c0-0.003,0-0.006,0-0.009         v0c0-0.003,0-0.006,0-0.009l0-0.002c0-0.003,0-0.006,0-0.009l0-0.001c0-0.003,0-0.005,0-0.008c0-0.001,0-0.001,0-0.002         c0-0.003,0-0.006,0-0.009c0-0.001,0-0.001,0-0.001c0-0.007,0-0.013,0-0.019c0,0,0-0.001,0-0.002c0-0.003,0-0.006,0-0.009         l0-0.002c0-0.003,0-0.006,0-0.008l0-0.001c0-0.003,0-0.006,0-0.009l0-0.002c0-0.003,0-0.006,0-0.009v0         c0-0.003,0-0.006,0-0.009c0-0.001,0-0.002,0-0.002c0-0.003,0-0.006,0-0.009c0-0.001,0-0.001,0-0.002c0-0.003,0-0.005,0-0.008         c0-0.001,0-0.001,0-0.002c0-0.003,0-0.006,0-0.009c0,0,0-0.002,0-0.002c0-0.003,0-0.006,0-0.009l0,0c0-0.004,0-0.007,0-0.011         c0-0.001,0-0.001,0-0.001c0-0.004,0-0.007,0-0.011c0,0,0-0.002,0-0.002c0-0.003,0-0.006,0-0.009c0-0.001,0-0.002,0-0.003         c0-0.003,0-0.006,0-0.009c0-0.001,0-0.003,0-0.004c0-0.003,0-0.005,0-0.008c0-0.002,0-0.004,0-0.005c0-0.001,0-0.003,0-0.004         c0-0.003,0-0.006,0-0.009c0-0.001,0-0.001,0-0.002C32,15.883,31.999,15.845,31.999,15.807L31.999,15.807z M30.967,10.332         l-0.701,0.266c0.314,0.829,0.557,1.692,0.721,2.565l0.737-0.139c0-0.001,0-0.002,0-0.003c0-0.002-0.001-0.003-0.001-0.005         c0-0.002-0.001-0.005-0.001-0.007c0-0.001-0.001-0.003-0.001-0.004c0-0.002-0.001-0.005-0.001-0.007         c0-0.001-0.001-0.003-0.001-0.004c0-0.002-0.001-0.004-0.001-0.006c0-0.002-0.001-0.003-0.001-0.005         c0-0.002-0.001-0.003-0.001-0.005c0-0.002-0.001-0.005-0.001-0.007c0-0.002-0.001-0.003-0.001-0.004         c0-0.002-0.001-0.003-0.001-0.005c0-0.002-0.001-0.005-0.001-0.007c0-0.001-0.001-0.003-0.001-0.004         c0-0.003-0.001-0.004-0.001-0.007c0-0.001-0.001-0.003-0.001-0.004c0-0.002-0.001-0.003-0.001-0.005         c0-0.002-0.001-0.004-0.001-0.007c0-0.002-0.001-0.003-0.001-0.005c0-0.001-0.001-0.003-0.001-0.004         c0-0.003-0.001-0.005-0.001-0.007c0-0.001-0.001-0.003-0.001-0.004c0-0.003-0.001-0.005-0.001-0.007         c0-0.001-0.001-0.003-0.001-0.004c0-0.002-0.001-0.005-0.001-0.007c0-0.002-0.001-0.003-0.001-0.005         c0-0.002-0.001-0.003-0.001-0.005c0-0.002-0.001-0.004-0.001-0.005c0-0.002-0.001-0.004-0.001-0.006         c0-0.001-0.001-0.003-0.001-0.004c-0.001-0.003-0.001-0.005-0.002-0.008c0-0.001,0-0.002-0.001-0.003         c-0.001-0.003-0.001-0.006-0.002-0.009c0-0.001,0-0.002-0.001-0.003c0-0.002-0.001-0.003-0.001-0.005         c0-0.001,0-0.002-0.001-0.003c-0.001-0.003-0.001-0.005-0.002-0.008c0-0.001-0.001-0.003-0.001-0.004         c-0.001-0.003-0.001-0.005-0.002-0.008c0-0.001,0-0.002-0.001-0.004c-0.001-0.003-0.001-0.005-0.002-0.008         c0-0.001-0.001-0.003-0.001-0.004c0-0.002-0.001-0.004-0.001-0.005c0-0.002-0.001-0.004-0.001-0.007         c0-0.002-0.001-0.003-0.001-0.005c0-0.002-0.001-0.003-0.001-0.005c0-0.002-0.001-0.004-0.001-0.006         c0-0.001-0.001-0.003-0.001-0.004c-0.001-0.003-0.001-0.005-0.002-0.008c0-0.001-0.001-0.003-0.001-0.004         c0-0.002-0.001-0.004-0.001-0.006c0-0.002-0.001-0.004-0.001-0.005c0-0.002-0.001-0.003-0.001-0.005         c0-0.001-0.001-0.003-0.001-0.004c-0.001-0.003-0.001-0.005-0.002-0.007c0-0.001,0-0.002-0.001-0.003         c-0.001-0.003-0.001-0.005-0.002-0.008c0-0.001,0-0.002-0.001-0.003c-0.001-0.003-0.001-0.005-0.002-0.008         c0-0.001-0.001-0.003-0.001-0.004c0-0.002-0.001-0.003-0.001-0.005l0-0.001c-0.001-0.004-0.001-0.006-0.002-0.01         c0-0.001,0-0.002-0.001-0.003c-0.001-0.003-0.001-0.005-0.002-0.009c0-0.001,0-0.002-0.001-0.003         c-0.001-0.003-0.001-0.006-0.002-0.009c0-0.001,0-0.002-0.001-0.003c0-0.002-0.001-0.005-0.002-0.007         c0-0.001-0.001-0.003-0.001-0.004c0-0.002-0.001-0.003-0.001-0.005c0-0.001-0.001-0.003-0.001-0.004         c-0.001-0.003-0.001-0.005-0.002-0.007c0-0.001-0.001-0.003-0.001-0.004c0-0.002-0.001-0.005-0.002-0.007         c0-0.001-0.001-0.002-0.001-0.004c-0.001-0.003-0.001-0.005-0.002-0.007c0-0.001-0.001-0.003-0.001-0.004         c0-0.002-0.001-0.003-0.001-0.005c0-0.002-0.001-0.004-0.001-0.005c0-0.002-0.001-0.004-0.001-0.006         c0-0.002-0.001-0.003-0.001-0.005c0-0.002-0.001-0.004-0.001-0.006c0-0.002-0.001-0.003-0.001-0.005         c-0.001-0.003-0.001-0.004-0.001-0.006c0-0.002-0.001-0.003-0.001-0.005c0-0.002-0.001-0.003-0.001-0.005         c0-0.002-0.001-0.004-0.001-0.007c0-0.002-0.001-0.003-0.001-0.005c0-0.001-0.001-0.003-0.001-0.004         c-0.001-0.003-0.001-0.004-0.001-0.007c0-0.002-0.001-0.003-0.001-0.004c0-0.002-0.001-0.005-0.001-0.007         c0-0.002-0.001-0.003-0.001-0.004c0-0.002-0.001-0.003-0.001-0.005c0-0.002-0.001-0.004-0.001-0.007         c0-0.002-0.001-0.003-0.001-0.005c0-0.002-0.001-0.004-0.001-0.006c0-0.002-0.001-0.003-0.001-0.005         c0-0.002-0.001-0.004-0.001-0.005c0-0.002-0.001-0.003-0.001-0.005c0-0.002-0.001-0.004-0.001-0.006         c0-0.001-0.001-0.003-0.001-0.004c-0.001-0.002-0.001-0.005-0.002-0.007c0-0.001-0.001-0.003-0.001-0.004         c-0.001-0.002-0.001-0.005-0.002-0.007c0-0.002-0.001-0.003-0.001-0.004c0-0.002-0.001-0.004-0.001-0.006         c0-0.002-0.001-0.004-0.001-0.005c0-0.002-0.001-0.004-0.001-0.006c0-0.002-0.001-0.003-0.001-0.005         c0-0.002-0.001-0.004-0.001-0.006c0-0.002-0.001-0.002-0.001-0.004c-0.001-0.003-0.001-0.005-0.002-0.007         c0-0.001-0.001-0.003-0.001-0.004c-0.001-0.003-0.001-0.005-0.002-0.008c0-0.001-0.001-0.002-0.001-0.003         c-0.001-0.002-0.001-0.005-0.002-0.007c0-0.001,0-0.002-0.001-0.003c-0.001-0.002-0.001-0.005-0.002-0.007         c0-0.001,0-0.002-0.001-0.003c-0.001-0.003-0.001-0.005-0.002-0.008c0-0.001,0-0.002-0.001-0.003         c-0.001-0.003-0.001-0.006-0.002-0.008c0-0.001,0-0.002-0.001-0.003c-0.001-0.003-0.001-0.005-0.002-0.008         c0-0.001,0-0.002-0.001-0.002c-0.001-0.002-0.001-0.005-0.002-0.007c0-0.001,0-0.002-0.001-0.003         c-0.001-0.003-0.001-0.005-0.002-0.008c0-0.001,0-0.002-0.001-0.003c-0.001-0.003-0.001-0.006-0.002-0.008         c0-0.001,0-0.002-0.001-0.002c-0.001-0.003-0.001-0.006-0.002-0.009c0-0.001,0-0.001,0-0.001         c-0.001-0.003-0.002-0.006-0.002-0.009c0,0,0-0.001,0-0.001c-0.001-0.003-0.002-0.006-0.002-0.01c0-0.001,0-0.001,0-0.001         c-0.001-0.003-0.001-0.006-0.002-0.009c0,0,0-0.001,0-0.002c-0.001-0.003-0.001-0.006-0.002-0.009c0-0.001,0-0.001,0-0.001         c-0.001-0.003-0.002-0.006-0.002-0.01l0,0c-0.001-0.003-0.002-0.007-0.002-0.01l0-0.001c-0.001-0.003-0.002-0.006-0.002-0.01         l0-0.002c-0.001-0.003-0.002-0.006-0.002-0.01c0-0.001,0-0.001,0-0.001c-0.001-0.003-0.002-0.007-0.002-0.01l0,0         c-0.002-0.007-0.003-0.014-0.005-0.021c0-0.001,0,0,0,0c-0.001-0.003-0.002-0.007-0.003-0.01l0,0         c-0.001-0.003-0.002-0.007-0.003-0.01l0,0C31.383,11.537,31.192,10.926,30.967,10.332L30.967,10.332z M28.113,5.547         l-0.568,0.49c0.581,0.673,1.106,1.4,1.56,2.161l0.644-0.384c-0.105-0.176-0.213-0.35-0.325-0.521l0,0         c-0.008-0.012-0.016-0.024-0.024-0.036l0,0C29.4,7.253,29.398,7.25,29.396,7.247l0-0.001         c-0.002-0.003-0.004-0.006-0.006-0.008c0,0,0-0.001-0.001-0.001c-0.002-0.003-0.004-0.006-0.006-0.008l0-0.001         c-0.002-0.003-0.004-0.006-0.006-0.009l0,0c-0.002-0.003-0.004-0.006-0.006-0.009l0-0.001         c-0.002-0.003-0.004-0.005-0.005-0.008l-0.001-0.001c-0.002-0.003-0.004-0.005-0.005-0.008c0,0-0.001-0.001-0.001-0.001         c-0.002-0.003-0.004-0.006-0.006-0.008c0,0-0.001-0.001-0.001-0.001c-0.002-0.003-0.004-0.005-0.005-0.008c0,0,0,0,0-0.001         c-0.002-0.003-0.004-0.005-0.005-0.008c0,0,0-0.001-0.001-0.001c-0.002-0.003-0.003-0.005-0.005-0.008         c0,0-0.001-0.001-0.001-0.001c-0.002-0.003-0.004-0.005-0.005-0.008c-0.001-0.001-0.001-0.001-0.001-0.002         c-0.002-0.002-0.003-0.005-0.005-0.007c0,0-0.001-0.001-0.001-0.002c-0.002-0.003-0.003-0.005-0.005-0.008         c-0.001-0.001,0-0.001-0.001-0.002c-0.002-0.002-0.003-0.005-0.005-0.007c0,0,0-0.001-0.001-0.001         c-0.002-0.002-0.003-0.005-0.005-0.007c-0.001-0.001-0.001-0.001-0.001-0.002c-0.002-0.002-0.003-0.005-0.005-0.007         c0,0-0.001-0.002-0.001-0.002c-0.002-0.002-0.003-0.005-0.005-0.007c-0.001-0.001-0.001-0.001-0.001-0.002         c-0.002-0.002-0.003-0.005-0.005-0.007c-0.001-0.001-0.001-0.002-0.002-0.002c-0.001-0.002-0.003-0.004-0.004-0.007         c-0.001-0.001-0.001-0.002-0.002-0.003c-0.001-0.002-0.003-0.004-0.004-0.006c-0.001-0.001-0.001-0.002-0.002-0.002         c-0.002-0.002-0.003-0.005-0.005-0.007c-0.001-0.001-0.001-0.001-0.001-0.002c-0.002-0.002-0.003-0.005-0.005-0.007         c-0.001-0.001-0.001-0.002-0.002-0.003c-0.001-0.002-0.003-0.004-0.004-0.007c-0.001-0.001-0.001-0.002-0.002-0.003         c-0.001-0.002-0.003-0.004-0.004-0.006c0,0-0.001-0.002-0.002-0.003c-0.001-0.002-0.002-0.003-0.003-0.005         c-0.001-0.002-0.002-0.002-0.003-0.004c-0.001-0.002-0.002-0.003-0.003-0.005c-0.001-0.001-0.002-0.003-0.003-0.004         c-0.001-0.002-0.002-0.003-0.003-0.005C29.232,7.002,29.231,7.001,29.23,7c-0.001-0.002-0.003-0.004-0.004-0.006         c-0.001-0.001-0.002-0.003-0.002-0.004c-0.001-0.002-0.003-0.004-0.004-0.006c-0.001-0.001-0.001-0.002-0.002-0.003         c-0.001-0.002-0.002-0.003-0.004-0.005c-0.001-0.001-0.002-0.003-0.003-0.004c-0.001-0.001-0.002-0.003-0.003-0.004         c-0.001-0.002-0.002-0.003-0.003-0.005c-0.001-0.001-0.002-0.003-0.003-0.004c-0.001-0.001-0.002-0.003-0.003-0.004         c-0.001-0.002-0.002-0.003-0.004-0.005c-0.001-0.001-0.002-0.003-0.003-0.004c-0.001-0.002-0.002-0.004-0.004-0.005         c-0.001-0.001-0.002-0.003-0.003-0.004c-0.001-0.001-0.001-0.002-0.002-0.003c-0.001-0.002-0.003-0.004-0.004-0.006         c-0.001-0.001-0.001-0.002-0.002-0.003c-0.002-0.002-0.003-0.004-0.005-0.007c-0.001-0.001-0.001-0.002-0.002-0.003         c-0.001-0.002-0.003-0.004-0.004-0.006c-0.001-0.001-0.002-0.002-0.002-0.003c-0.001-0.001-0.002-0.003-0.003-0.004         c-0.001-0.002-0.002-0.004-0.004-0.005c-0.001-0.002-0.002-0.003-0.003-0.004c-0.001-0.001-0.002-0.003-0.003-0.004         c-0.001-0.002-0.003-0.004-0.004-0.005c-0.001-0.001-0.002-0.002-0.002-0.003c-0.001-0.002-0.003-0.004-0.004-0.006         c-0.001-0.001-0.001-0.002-0.002-0.003c-0.002-0.002-0.003-0.004-0.005-0.007c-0.001-0.001-0.001-0.002-0.002-0.002         c-0.002-0.002-0.004-0.005-0.005-0.008c0-0.001-0.001-0.001-0.001-0.002c-0.003-0.005-0.006-0.009-0.01-0.014         c-0.001-0.001-0.001-0.002-0.002-0.002c-0.001-0.002-0.003-0.005-0.005-0.007c-0.001-0.001-0.001-0.002-0.002-0.002         c-0.002-0.002-0.003-0.005-0.005-0.007c-0.001-0.001-0.001-0.002-0.002-0.002c-0.002-0.002-0.004-0.005-0.005-0.008         c0,0-0.001-0.001-0.001-0.001c-0.006-0.008-0.011-0.016-0.017-0.024c0,0,0-0.001-0.001-0.001         c-0.002-0.002-0.004-0.006-0.006-0.008c0,0-0.001-0.001-0.001-0.001c-0.002-0.003-0.004-0.006-0.006-0.009l-0.001-0.001         c-0.002-0.003-0.004-0.006-0.006-0.009c0,0,0,0,0-0.001c-0.003-0.005-0.007-0.009-0.01-0.014c0,0-0.001-0.001-0.001-0.002         c-0.002-0.002-0.004-0.005-0.005-0.008c0-0.001-0.001-0.001-0.001-0.002c-0.002-0.002-0.004-0.006-0.006-0.008l-0.001-0.001         c-0.002-0.003-0.004-0.006-0.006-0.009l0,0c-0.008-0.011-0.016-0.023-0.024-0.034l0,0C29,6.671,28.998,6.668,28.996,6.665         l0,0c-0.011-0.015-0.021-0.029-0.031-0.043c0,0,0-0.001-0.001-0.001c-0.011-0.015-0.021-0.028-0.031-0.043l0-0.001         c-0.002-0.003-0.004-0.006-0.007-0.009l0,0c-0.006-0.008-0.012-0.016-0.018-0.024l0,0c-0.002-0.003-0.005-0.006-0.007-0.009         l0,0c-0.002-0.003-0.004-0.006-0.007-0.009l-0.001-0.001c-0.002-0.003-0.004-0.006-0.007-0.009l0,0         c-0.008-0.011-0.016-0.022-0.025-0.033c0,0,0-0.001-0.001-0.001c-0.002-0.003-0.004-0.006-0.006-0.008L28.853,6.47         c-0.002-0.003-0.004-0.006-0.007-0.009l0,0c-0.004-0.005-0.007-0.009-0.011-0.014c0,0,0-0.001-0.001-0.001         c-0.002-0.003-0.004-0.006-0.006-0.008c0-0.001-0.001-0.001-0.001-0.001c-0.002-0.003-0.004-0.006-0.006-0.008         c0-0.001-0.001-0.001-0.001-0.002c-0.002-0.002-0.004-0.005-0.006-0.007c0-0.001-0.001-0.001-0.001-0.001         c-0.003-0.004-0.004-0.006-0.007-0.009l0-0.001c-0.004-0.005-0.007-0.009-0.011-0.014c0,0,0-0.001-0.001-0.001         c-0.002-0.003-0.004-0.006-0.006-0.008c0,0-0.001-0.001-0.001-0.001c-0.002-0.003-0.004-0.006-0.006-0.008         c0,0-0.001-0.001-0.001-0.001c-0.006-0.008-0.012-0.016-0.018-0.024c0-0.001-0.001-0.001-0.001-0.002         c-0.002-0.003-0.004-0.005-0.006-0.008c0,0-0.001-0.001-0.001-0.001c-0.002-0.002-0.004-0.005-0.006-0.008         c0-0.001-0.001-0.001-0.001-0.002c-0.002-0.002-0.004-0.005-0.006-0.007c0-0.001-0.001-0.001-0.001-0.002         c-0.002-0.002-0.004-0.005-0.005-0.007c-0.001-0.001-0.001-0.001-0.002-0.002c-0.001-0.002-0.002-0.003-0.003-0.005         c0,0,0-0.001-0.001-0.001c-0.002-0.003-0.004-0.005-0.006-0.008c-0.001-0.001-0.001-0.001-0.002-0.002         c-0.002-0.002-0.003-0.005-0.005-0.007c-0.001-0.001-0.001-0.002-0.002-0.003c-0.002-0.002-0.003-0.004-0.005-0.006         c-0.001-0.001-0.002-0.002-0.002-0.003c-0.001-0.002-0.002-0.003-0.004-0.005c-0.001-0.001-0.002-0.003-0.003-0.004         c-0.001-0.001-0.002-0.003-0.003-0.004c-0.001-0.002-0.003-0.003-0.004-0.005c-0.001-0.001-0.002-0.003-0.003-0.004         c-0.001-0.001-0.002-0.002-0.003-0.004c-0.002-0.002-0.003-0.003-0.004-0.005c-0.001-0.001-0.002-0.002-0.002-0.003         c-0.002-0.002-0.003-0.004-0.005-0.006c-0.001-0.001-0.002-0.002-0.002-0.003c-0.002-0.002-0.003-0.004-0.005-0.006         c-0.001-0.001-0.001-0.002-0.002-0.003c-0.001-0.002-0.003-0.004-0.004-0.006c-0.001-0.001-0.002-0.002-0.003-0.004         c-0.001-0.002-0.002-0.002-0.003-0.004c-0.001-0.002-0.003-0.004-0.004-0.005c-0.001-0.001-0.002-0.002-0.003-0.004         C28.65,6.202,28.649,6.2,28.647,6.199c-0.001-0.001-0.002-0.003-0.003-0.004c-0.001-0.001-0.002-0.003-0.003-0.004         c-0.001-0.002-0.003-0.003-0.004-0.005c-0.001-0.001-0.002-0.003-0.003-0.004c-0.001-0.001-0.002-0.002-0.002-0.003         c-0.001-0.002-0.003-0.004-0.004-0.006c-0.001-0.001-0.002-0.002-0.003-0.003c-0.001-0.002-0.003-0.004-0.004-0.006         c-0.001-0.001-0.002-0.002-0.002-0.003c-0.001-0.002-0.003-0.004-0.004-0.005c-0.001-0.001-0.002-0.002-0.003-0.004         c-0.001-0.002-0.002-0.003-0.004-0.005c-0.001-0.001-0.002-0.002-0.003-0.004C28.603,6.142,28.602,6.14,28.6,6.138         c-0.001-0.001-0.002-0.002-0.003-0.003c-0.002-0.002-0.003-0.004-0.004-0.006c0,0-0.001-0.002-0.002-0.002         c-0.002-0.002-0.003-0.004-0.005-0.006c-0.001-0.001-0.001-0.002-0.002-0.003c-0.002-0.002-0.003-0.004-0.005-0.006         c-0.001-0.001-0.001-0.001-0.002-0.003c-0.002-0.002-0.003-0.004-0.005-0.006c-0.001-0.001-0.001-0.002-0.001-0.002         c-0.002-0.003-0.004-0.004-0.005-0.006c-0.001-0.001-0.001-0.002-0.002-0.003c-0.002-0.002-0.003-0.004-0.005-0.006         c-0.001-0.001-0.001-0.002-0.002-0.002c-0.002-0.002-0.003-0.004-0.005-0.006c-0.001-0.001-0.001-0.002-0.001-0.002         c-0.002-0.003-0.004-0.005-0.006-0.007c-0.001-0.001-0.001-0.001-0.002-0.002c-0.002-0.002-0.004-0.004-0.005-0.007         c-0.001-0.001-0.001-0.001-0.001-0.002c-0.002-0.002-0.004-0.005-0.005-0.007c0,0-0.001-0.001-0.001-0.002         c-0.002-0.002-0.004-0.005-0.005-0.007l-0.001-0.001c-0.002-0.002-0.004-0.005-0.006-0.007c0,0-0.001-0.001-0.001-0.001         c-0.002-0.002-0.004-0.005-0.006-0.007c-0.001-0.001-0.001-0.001-0.001-0.001c-0.002-0.002-0.004-0.005-0.006-0.007         c0,0-0.001-0.001-0.001-0.001c-0.002-0.003-0.004-0.005-0.006-0.008l0,0c-0.004-0.006-0.009-0.011-0.014-0.017l0,0         c-0.002-0.003-0.004-0.005-0.006-0.008c0,0,0,0-0.001-0.001c-0.002-0.003-0.004-0.005-0.007-0.008l0,0         C28.353,5.83,28.235,5.687,28.113,5.547L28.113,5.547z M23.796,2.025L23.43,2.679c0.774,0.433,1.516,0.937,2.204,1.499         l0.474-0.581c-0.11-0.09-0.221-0.178-0.333-0.265l0,0c-0.003-0.002-0.006-0.004-0.008-0.006l-0.001,0         c-0.003-0.002-0.005-0.004-0.008-0.006c0,0,0,0-0.001,0c-0.003-0.002-0.006-0.004-0.008-0.006l0,0         c-0.006-0.004-0.011-0.009-0.017-0.013l-0.001-0.001c-0.003-0.002-0.005-0.004-0.008-0.006c0,0,0,0,0,0         c-0.003-0.002-0.006-0.004-0.008-0.006c0,0-0.001-0.001-0.001-0.001c-0.002-0.002-0.005-0.004-0.007-0.006         c0,0-0.001-0.001-0.002-0.001c-0.002-0.002-0.005-0.004-0.007-0.005c0,0-0.002-0.001-0.002-0.001         c-0.002-0.002-0.005-0.004-0.007-0.005c0,0-0.001-0.001-0.001-0.001c-0.003-0.002-0.005-0.004-0.007-0.006         C25.68,3.26,25.68,3.259,25.679,3.259c-0.002-0.002-0.004-0.003-0.007-0.005c-0.001-0.001-0.002-0.001-0.002-0.002         c-0.002-0.002-0.004-0.003-0.006-0.005c-0.001-0.001-0.002-0.001-0.003-0.002c-0.002-0.002-0.004-0.003-0.006-0.005         c-0.001-0.001-0.002-0.001-0.003-0.002c-0.002-0.001-0.004-0.003-0.006-0.004c-0.001-0.001-0.002-0.002-0.003-0.002         c-0.002-0.001-0.004-0.003-0.005-0.004c-0.001-0.001-0.002-0.002-0.003-0.002c-0.002-0.001-0.004-0.003-0.006-0.004         c-0.001-0.001-0.002-0.002-0.003-0.003c-0.002-0.001-0.004-0.003-0.006-0.004c-0.001-0.001-0.002-0.002-0.003-0.003         c-0.002-0.001-0.004-0.003-0.006-0.004c-0.001-0.001-0.002-0.002-0.003-0.002c-0.002-0.001-0.003-0.002-0.004-0.003         c-0.002-0.001-0.003-0.002-0.005-0.003c-0.001-0.001-0.003-0.002-0.004-0.003c-0.002-0.002-0.003-0.002-0.005-0.004         c-0.001-0.001-0.003-0.002-0.004-0.003c-0.001-0.001-0.003-0.002-0.004-0.003c-0.002-0.001-0.003-0.002-0.005-0.004         c-0.002-0.001-0.002-0.002-0.004-0.003c-0.001-0.001-0.003-0.002-0.004-0.003c-0.002-0.001-0.003-0.002-0.005-0.004         c-0.001-0.001-0.002-0.001-0.002-0.002c-0.002-0.002-0.005-0.004-0.007-0.005c-0.001,0-0.001-0.001-0.002-0.001         c-0.002-0.002-0.005-0.004-0.008-0.006c0,0-0.001-0.001-0.001-0.001c-0.003-0.002-0.005-0.004-0.008-0.006         c0,0-0.001-0.001-0.001-0.001C24.981,2.739,24.401,2.363,23.796,2.025L23.796,2.025z M18.532,0.199L18.415,0.94         c0.877,0.139,1.747,0.358,2.584,0.648l0.246-0.709c-0.578-0.2-1.171-0.369-1.777-0.503l0,0         c-0.01-0.002-0.02-0.004-0.03-0.007c0,0-0.001,0-0.001,0c-0.004-0.001-0.007-0.002-0.011-0.002c0,0-0.001,0-0.002,0         c-0.003-0.001-0.007-0.002-0.01-0.002l-0.001,0c-0.006-0.001-0.011-0.002-0.017-0.004c-0.001,0-0.001,0-0.001,0         c-0.004-0.001-0.007-0.002-0.01-0.002c-0.001,0-0.002,0-0.002,0c-0.003-0.001-0.007-0.001-0.009-0.002         c-0.001,0-0.002-0.001-0.004-0.001c-0.002,0-0.004-0.001-0.005-0.001c-0.002,0-0.004-0.001-0.005-0.001         c-0.002,0-0.004-0.001-0.006-0.001c-0.001,0-0.002,0-0.003-0.001c-0.003-0.001-0.005-0.001-0.008-0.002         c-0.001,0-0.002-0.001-0.004-0.001c-0.003-0.001-0.005-0.001-0.007-0.001c-0.002,0-0.003-0.001-0.005-0.001         c-0.002,0-0.003-0.001-0.004-0.001c-0.002,0-0.005-0.001-0.007-0.001c-0.002,0-0.003-0.001-0.004-0.001         c-0.002,0-0.004-0.001-0.006-0.001c-0.002,0-0.004-0.001-0.005-0.001c-0.002,0-0.004-0.001-0.006-0.001         c-0.002,0-0.003-0.001-0.005-0.001c-0.002,0-0.004-0.001-0.006-0.001c-0.002,0-0.002,0-0.003-0.001         c-0.003-0.001-0.005-0.001-0.008-0.002c-0.001,0-0.002,0-0.003-0.001c-0.003-0.001-0.005-0.001-0.008-0.002         c-0.001,0-0.002,0-0.003-0.001c-0.002-0.001-0.005-0.001-0.007-0.002c-0.001,0-0.002,0-0.003-0.001         c-0.003-0.001-0.005-0.001-0.008-0.002c-0.001,0-0.002,0-0.003-0.001c-0.003-0.001-0.006-0.001-0.009-0.002         c-0.001,0-0.001,0-0.002-0.001c-0.003-0.001-0.006-0.001-0.009-0.002c-0.001,0-0.001,0-0.002,0         c-0.003-0.001-0.006-0.001-0.009-0.002c-0.001,0-0.001,0-0.001,0c-0.004-0.001-0.007-0.001-0.01-0.002         c-0.001,0-0.001,0-0.001,0c-0.003-0.001-0.006-0.001-0.009-0.002c0,0-0.001,0-0.002,0c-0.003-0.001-0.006-0.001-0.01-0.002         c-0.001,0-0.001,0-0.001,0c-0.004-0.001-0.007-0.001-0.011-0.002c-0.001,0,0,0,0,0c-0.007-0.001-0.014-0.003-0.021-0.004         l-0.001,0C18.939,0.268,18.736,0.232,18.532,0.199L18.532,0.199z" fill="#E21B1B"/></g></g></g></g></g></g><g><g><path d="M14.895,15.618c0,0,1.589-0.121,1.589-2.022c0-1.9-1.078-2.837-2.725-2.837L8.115,10.75v10.5h5.775     c0,0,2.887,0.091,2.887-3.15C16.778,18.1,16.99,15.618,14.895,15.618z M10.215,12.325h2.887c0,0,0.988,0.016,0.988,1.297     c0,1.328-0.988,1.328-0.988,1.328h-2.887V12.325z M13.365,19.675h-3.15v-3.15h3.15c0,0,1.575,0.016,1.575,1.575     C14.94,19.659,13.592,19.675,13.365,19.675z"/></g><g><path d="M21.24,13.375c-3.944,0-3.937,3.937-3.937,3.937S17.04,21.25,21.24,21.25c0,0,3.675,0,3.675-3.15h-2.1     c0,0,0,1.575-1.575,1.575c0,0-1.575,0-1.575-2.1c0,0,4.2,0,5.25,0C24.915,16.525,24.915,13.375,21.24,13.375z M19.665,16.525     c0,0-0.035-1.575,1.575-1.575c1.609,0,1.575,1.575,1.575,1.575H19.665z"/></g><g><rect height="1.05" width="4.2" x="19.14" y="11.8"/></g></g></g></svg>