<?xml version="1.0" ?><svg enable-background="new 0 0 32 32" version="1.1" viewBox="0 0 32 32" xml:space="preserve" xmlns="http://www.w3.org/2000/svg" xmlns:xlink="http://www.w3.org/1999/xlink"><g id="stiches"><g><g id="Shopping_10_131_"><g><g><g><g><g><path d="M16,2.115C8.332,2.115,2.115,8.332,2.115,16S8.332,29.885,16,29.885S29.885,23.668,29.885,16          S23.668,2.115,16,2.115L16,2.115z" fill="#FFFFFF"/><path d="M16,30.26C8.137,30.26,1.741,23.863,1.741,16C1.741,8.137,8.137,1.741,16,1.741          c7.863,0,14.26,6.396,14.26,14.259C30.26,23.863,23.863,30.26,16,30.26z M16,2.491C8.551,2.491,2.491,8.551,2.491,16          S8.551,29.51,16,29.51S29.51,23.449,29.51,16S23.449,2.491,16,2.491z" fill="#CCCCCC"/></g></g></g></g></g></g><g><g><g><g><g><path d="M16,0c-0.003,0-0.007,0-0.01,0c-0.001,0-0.001,0-0.002,0c-0.003,0-0.006,0-0.01,0         c-0.001,0-0.001,0-0.001,0c-0.004,0-0.007,0-0.01,0l-0.001,0c-0.003,0-0.006,0-0.009,0c0,0-0.001,0-0.001,0         c-0.003,0-0.007,0-0.01,0l-0.002,0c-0.003,0-0.006,0-0.01,0c-0.001,0-0.001,0-0.002,0c-0.003,0-0.007,0-0.01,0l0,0         c-0.003,0-0.007,0-0.01,0c-0.001,0-0.001,0-0.002,0c-0.003,0-0.007,0-0.01,0C15.9,0,15.9,0,15.899,0c-0.003,0-0.007,0-0.01,0         l-0.001,0c-0.003,0-0.007,0-0.01,0l0,0c-0.003,0-0.007,0-0.01,0l-0.002,0c-0.003,0-0.007,0-0.01,0c-0.001,0-0.001,0-0.001,0         c-0.004,0-0.007,0-0.011,0c0,0,0,0,0,0c-0.003,0-0.007,0-0.01,0l-0.001,0c-0.003,0-0.007,0-0.01,0c-0.001,0-0.001,0-0.002,0         c-0.003,0-0.007,0-0.01,0l-0.001,0c-0.007,0-0.014,0-0.021,0c0,0,0,0-0.001,0c-0.003,0-0.007,0-0.01,0l-0.001,0         c-0.003,0-0.007,0-0.01,0l0,0c-0.004,0-0.007,0-0.011,0c-0.001,0,0,0-0.001,0c-0.003,0-0.007,0-0.01,0l-0.001,0         c-0.003,0-0.007,0-0.01,0c-0.001,0-0.001,0-0.001,0c-0.007,0-0.014,0-0.021,0l-0.001,0c-0.003,0-0.007,0-0.01,0l-0.001,0         c-0.004,0-0.007,0-0.01,0l0,0c-0.007,0-0.014,0-0.021,0c0,0-0.001,0-0.001,0c-0.003,0-0.007,0-0.01,0c-0.001,0,0,0-0.001,0         c-0.004,0-0.007,0-0.011,0l0,0c-0.004,0-0.007,0-0.011,0l-0.001,0c-0.003,0-0.007,0-0.01,0l-0.001,0         c-0.004,0-0.007,0-0.011,0l0,0c-0.007,0-0.015,0-0.022,0.001l0,0c-0.004,0-0.007,0-0.011,0l0,0         c-0.011,0-0.022,0.001-0.033,0.001l0,0c-0.011,0-0.022,0.001-0.033,0.001l0,0c-0.004,0-0.007,0-0.011,0l0,0         c-0.011,0-0.022,0.001-0.033,0.001l0,0c-0.015,0-0.029,0.001-0.044,0.001l0,0c-0.751,0.027-1.488,0.105-2.209,0.232         l0.13,0.739C14.214,0.828,15.108,0.75,16,0.75V0L16,0L16,0z M10.513,0.966c-0.005,0.002-0.009,0.003-0.014,0.005l-0.001,0         c-0.003,0.001-0.007,0.002-0.01,0.004c0,0-0.001,0-0.001,0c-0.004,0.001-0.007,0.003-0.01,0.004c0,0-0.001,0-0.001,0.001         c-0.004,0.001-0.007,0.003-0.011,0.004c0,0,0,0,0,0c-0.006,0.002-0.011,0.004-0.017,0.006c0,0-0.001,0.001-0.002,0.001         c-0.003,0.001-0.006,0.002-0.009,0.003c-0.001,0-0.002,0.001-0.002,0.001c-0.003,0.001-0.005,0.002-0.008,0.003         c-0.001,0-0.002,0.001-0.003,0.001C10.421,1,10.418,1,10.417,1.001c-0.002,0.001-0.003,0.001-0.005,0.002         c-0.001,0.001-0.003,0.001-0.004,0.002c-0.002,0.001-0.004,0.002-0.006,0.002c-0.001,0.001-0.003,0.001-0.004,0.002         c-0.002,0.001-0.003,0.001-0.005,0.002c-0.002,0.001-0.004,0.001-0.006,0.002c-0.002,0.001-0.003,0.001-0.005,0.002         c-0.002,0.001-0.003,0.001-0.005,0.002c-0.002,0.001-0.004,0.001-0.006,0.002c-0.001,0.001-0.002,0.001-0.004,0.001         c-0.002,0.001-0.005,0.002-0.007,0.003c-0.001,0.001-0.002,0.001-0.004,0.001c-0.002,0.001-0.004,0.002-0.007,0.003         c-0.001,0.001-0.003,0.001-0.004,0.002c-0.002,0.001-0.005,0.002-0.007,0.003c-0.001,0-0.002,0.001-0.003,0.001         c-0.002,0.001-0.004,0.002-0.006,0.002c-0.001,0-0.003,0.001-0.003,0.001c-0.002,0.001-0.005,0.002-0.007,0.003         c-0.001,0-0.001,0-0.002,0.001c-0.003,0.001-0.005,0.002-0.008,0.003c-0.001,0-0.002,0.001-0.003,0.001         c-0.003,0.001-0.005,0.002-0.008,0.003c-0.001,0-0.002,0.001-0.003,0.001c-0.003,0.001-0.005,0.002-0.008,0.003         c-0.001,0-0.001,0.001-0.002,0.001c-0.003,0.001-0.005,0.002-0.008,0.003c0,0-0.001,0-0.001,0         c-0.003,0.001-0.006,0.002-0.009,0.003c-0.001,0-0.001,0.001-0.002,0.001c-0.003,0.001-0.005,0.002-0.008,0.003         c0,0-0.002,0.001-0.002,0.001c-0.003,0.001-0.006,0.002-0.009,0.003c0,0-0.001,0.001-0.001,0.001         c-0.003,0.001-0.006,0.002-0.009,0.004c0,0-0.001,0-0.001,0c-0.006,0.002-0.013,0.005-0.019,0.007l-0.001,0         c-0.003,0.001-0.006,0.002-0.009,0.004c0,0-0.001,0-0.001,0.001c-0.003,0.001-0.006,0.002-0.009,0.003         c0,0-0.001,0-0.002,0.001c-0.003,0.001-0.006,0.002-0.009,0.004l-0.001,0c-0.007,0.003-0.013,0.005-0.02,0.008l0,0         c-0.003,0.001-0.007,0.003-0.01,0.004l0,0c-0.003,0.001-0.007,0.003-0.01,0.004c0,0,0,0,0,0         c-0.014,0.005-0.027,0.011-0.041,0.016l0,0c-0.408,0.162-0.808,0.34-1.2,0.534l-0.001,0C8.898,1.659,8.895,1.66,8.892,1.662         l0,0C8.888,1.663,8.885,1.665,8.882,1.667c0,0,0,0-0.001,0C8.875,1.67,8.869,1.673,8.862,1.676l0,0         C8.859,1.678,8.856,1.68,8.853,1.681l-0.001,0C8.849,1.683,8.846,1.684,8.843,1.686c0,0-0.001,0-0.001,0.001         C8.839,1.688,8.836,1.689,8.834,1.691c0,0-0.001,0-0.001,0.001C8.829,1.693,8.827,1.694,8.824,1.696c0,0-0.001,0-0.001,0.001         C8.82,1.698,8.817,1.699,8.814,1.7c0,0-0.001,0-0.001,0C8.81,1.702,8.808,1.704,8.805,1.705c0,0-0.001,0-0.001,0.001         C8.801,1.707,8.798,1.709,8.795,1.71c-0.001,0-0.001,0-0.002,0.001C8.791,1.712,8.788,1.714,8.785,1.715         c0,0-0.002,0.001-0.002,0.001C8.78,1.718,8.778,1.719,8.775,1.72c0,0-0.001,0.001-0.002,0.001         C8.771,1.722,8.769,1.723,8.766,1.725c0,0-0.002,0.001-0.003,0.001C8.761,1.727,8.759,1.728,8.757,1.73         c-0.001,0-0.002,0.001-0.003,0.002C8.752,1.732,8.75,1.733,8.747,1.734c-0.001,0-0.003,0.001-0.004,0.002         C8.741,1.737,8.739,1.739,8.737,1.74C8.736,1.74,8.735,1.741,8.734,1.741C8.732,1.742,8.73,1.743,8.727,1.745         c-0.001,0-0.003,0.001-0.003,0.002C8.722,1.747,8.72,1.748,8.718,1.749C8.717,1.75,8.716,1.75,8.715,1.751         C8.713,1.752,8.711,1.753,8.709,1.754C8.708,1.755,8.706,1.755,8.705,1.756C8.703,1.757,8.701,1.758,8.699,1.759         C8.698,1.76,8.696,1.76,8.695,1.761C8.693,1.762,8.691,1.763,8.689,1.764C8.688,1.765,8.686,1.766,8.685,1.766         C8.683,1.767,8.682,1.768,8.681,1.768C8.679,1.77,8.677,1.771,8.674,1.772C8.673,1.772,8.672,1.773,8.671,1.773         C8.669,1.775,8.666,1.776,8.664,1.777c-0.001,0-0.002,0.001-0.002,0.001C8.659,1.78,8.656,1.781,8.653,1.783         c-0.001,0-0.001,0.001-0.002,0.001c-0.005,0.003-0.01,0.005-0.016,0.008c0,0-0.001,0-0.001,0.001         c-0.003,0.002-0.006,0.003-0.01,0.005c0,0,0,0,0,0C8.407,1.911,8.192,2.029,7.98,2.152l0.376,0.649         c0.769-0.446,1.58-0.826,2.413-1.13L10.513,0.966L10.513,0.966z M5.693,3.761C5.251,4.134,4.83,4.53,4.431,4.948c0,0,0,0,0,0         C4.415,4.964,4.4,4.98,4.385,4.996l0,0c-0.01,0.01-0.019,0.02-0.029,0.03l0,0C4.353,5.029,4.351,5.032,4.348,5.035l0,0         C4.345,5.038,4.343,5.041,4.34,5.044l0,0c-0.01,0.01-0.019,0.02-0.029,0.031c0,0,0,0,0,0C4.308,5.077,4.306,5.08,4.303,5.083         l0,0c-0.2,0.214-0.394,0.434-0.583,0.659l0.575,0.481c0.57-0.681,1.203-1.317,1.882-1.889L5.693,3.761L5.693,3.761z          M2.12,8.036C1.951,8.329,1.792,8.628,1.642,8.933c0,0,0,0,0,0C1.64,8.936,1.638,8.939,1.636,8.943L1.636,8.944         C1.634,8.947,1.633,8.951,1.631,8.954c0,0,0,0.001-0.001,0.001c-0.002,0.004-0.003,0.006-0.005,0.01c0,0,0,0.001,0,0.001         C1.624,8.969,1.622,8.971,1.621,8.975L1.62,8.976C1.619,8.978,1.618,8.98,1.618,8.981c0,0.001-0.001,0.001-0.001,0.002         C1.615,8.986,1.614,8.989,1.613,8.992c0,0.001-0.001,0.002-0.001,0.003C1.61,8.997,1.609,8.999,1.608,9.002         c0,0.001-0.001,0.002-0.001,0.003C1.605,9.007,1.604,9.01,1.603,9.012C1.602,9.013,1.602,9.014,1.601,9.015         C1.6,9.017,1.6,9.018,1.599,9.02C1.598,9.022,1.597,9.024,1.596,9.026C1.595,9.027,1.595,9.028,1.594,9.03         C1.593,9.032,1.592,9.033,1.592,9.035C1.591,9.037,1.59,9.038,1.589,9.04C1.588,9.042,1.588,9.043,1.587,9.045         C1.586,9.046,1.585,9.048,1.584,9.05C1.583,9.052,1.583,9.053,1.582,9.055C1.581,9.056,1.58,9.058,1.58,9.059         C1.579,9.061,1.578,9.063,1.577,9.065C1.576,9.067,1.576,9.067,1.575,9.068C1.574,9.071,1.573,9.073,1.572,9.075         c0,0.001-0.001,0.003-0.002,0.004C1.569,9.081,1.568,9.083,1.567,9.086C1.566,9.087,1.566,9.087,1.566,9.089         C1.565,9.091,1.564,9.093,1.563,9.095C1.562,9.096,1.561,9.097,1.561,9.099C1.56,9.101,1.559,9.103,1.558,9.105         c0,0-0.001,0.002-0.001,0.003C1.555,9.11,1.554,9.112,1.553,9.114C1.553,9.116,1.552,9.116,1.552,9.118         C1.551,9.12,1.55,9.122,1.548,9.125c0,0-0.001,0.002-0.002,0.003C1.546,9.13,1.545,9.133,1.544,9.135         C1.543,9.136,1.543,9.137,1.542,9.138C1.541,9.14,1.54,9.143,1.539,9.145c0,0.001-0.001,0.002-0.001,0.003         C1.536,9.15,1.535,9.152,1.534,9.154c0,0.001-0.001,0.002-0.001,0.003C1.532,9.159,1.531,9.162,1.53,9.164         c0,0-0.001,0.002-0.001,0.002C1.527,9.169,1.526,9.172,1.525,9.174c0,0.001-0.001,0.002-0.001,0.002         C1.522,9.179,1.521,9.182,1.52,9.185c0,0-0.001,0.002-0.001,0.002C1.518,9.19,1.516,9.192,1.515,9.195         c0,0,0,0.001-0.001,0.001C1.513,9.199,1.512,9.202,1.511,9.204c0,0,0,0.001-0.001,0.001C1.509,9.208,1.507,9.211,1.506,9.214         c0,0-0.001,0.001-0.001,0.002C1.504,9.219,1.503,9.221,1.501,9.224c0,0.001,0,0.001-0.001,0.002         C1.499,9.229,1.498,9.232,1.497,9.234c0,0-0.001,0.001-0.001,0.002C1.495,9.239,1.493,9.242,1.492,9.245         c0,0,0,0.001-0.001,0.001C1.49,9.248,1.489,9.251,1.488,9.254c0,0,0,0.001,0,0.001C1.486,9.258,1.484,9.261,1.483,9.264         L1.482,9.265C1.481,9.268,1.48,9.271,1.478,9.274c0,0-0.001,0.001-0.001,0.002C1.476,9.278,1.475,9.281,1.474,9.284         c0,0,0,0.001,0,0.001C1.472,9.288,1.47,9.291,1.469,9.294c0,0,0,0.001,0,0.001C1.467,9.298,1.466,9.301,1.464,9.304         c0,0,0,0,0,0.001C1.463,9.307,1.461,9.31,1.46,9.313c0,0-0.001,0.001-0.001,0.002C1.458,9.318,1.457,9.321,1.455,9.324         L1.455,9.325C1.453,9.328,1.452,9.331,1.451,9.334c0,0,0,0.001-0.001,0.001C1.449,9.338,1.447,9.341,1.446,9.344l0,0         c-0.001,0.003-0.003,0.006-0.004,0.01l0,0C1.44,9.357,1.438,9.36,1.437,9.363c0,0,0,0,0,0         C1.435,9.367,1.434,9.37,1.432,9.374l0,0.001C1.431,9.378,1.429,9.381,1.428,9.384l0,0.001         C1.422,9.397,1.416,9.41,1.41,9.423l0,0.001C1.408,9.427,1.407,9.43,1.405,9.433c0,0,0,0,0,0         c-0.005,0.01-0.009,0.02-0.013,0.03l0,0C1.39,9.467,1.389,9.47,1.387,9.473l0,0.001C1.381,9.487,1.375,9.5,1.37,9.513l0,0         C1.368,9.517,1.366,9.52,1.365,9.523l0,0C1.363,9.527,1.362,9.53,1.361,9.534l0,0c-0.004,0.01-0.009,0.02-0.013,0.03l0,0         C1.346,9.567,1.344,9.57,1.343,9.574l0,0C1.341,9.577,1.34,9.58,1.338,9.584l0,0c-0.004,0.01-0.009,0.02-0.013,0.03l0,0         c-0.001,0.003-0.003,0.006-0.004,0.01l0,0.001c-0.001,0.003-0.003,0.006-0.004,0.01c0,0,0,0,0,0.001         c-0.004,0.01-0.009,0.02-0.013,0.03l0,0C1.302,9.667,1.301,9.671,1.299,9.674l0,0.001c-0.001,0.003-0.003,0.006-0.004,0.01         l0,0c-0.004,0.01-0.009,0.02-0.013,0.03l0,0.001C1.28,9.718,1.279,9.721,1.278,9.724l0,0         c-0.001,0.003-0.003,0.006-0.004,0.01l0,0c-0.004,0.01-0.008,0.02-0.013,0.03l0,0c-0.001,0.003-0.003,0.006-0.004,0.01         l0,0.001C1.255,9.778,1.253,9.782,1.252,9.785c0,0,0,0.001,0,0.001C1.25,9.789,1.249,9.792,1.248,9.795c0,0,0,0,0,0.001         c-0.001,0.003-0.003,0.006-0.004,0.01l0,0C1.242,9.809,1.241,9.812,1.239,9.815c0,0,0,0.001-0.001,0.001         C1.238,9.819,1.236,9.822,1.235,9.825L1.235,9.826C1.233,9.829,1.232,9.832,1.231,9.835c0,0-0.001,0.001-0.001,0.002         C1.229,9.84,1.228,9.843,1.227,9.845c0,0,0,0.001-0.001,0.001C1.225,9.85,1.224,9.852,1.223,9.855c0,0,0,0.001,0,0.001         C1.221,9.859,1.22,9.862,1.218,9.865c0,0-0.001,0.002-0.001,0.002C1.217,9.87,1.215,9.872,1.214,9.875         c0,0.001-0.001,0.002-0.001,0.003C1.212,9.88,1.211,9.883,1.21,9.885c0,0-0.001,0.002-0.001,0.003         C1.208,9.89,1.207,9.893,1.206,9.896c0,0.001-0.001,0.002-0.001,0.002C1.204,9.9,1.203,9.903,1.202,9.905         c0,0-0.001,0.002-0.001,0.003C1.2,9.91,1.199,9.912,1.198,9.915C1.197,9.916,1.197,9.917,1.196,9.918         C1.196,9.92,1.195,9.923,1.194,9.925c0,0.001-0.001,0.003-0.001,0.004C1.191,9.931,1.19,9.933,1.189,9.936         C1.189,9.937,1.188,9.938,1.188,9.939C1.187,9.941,1.186,9.943,1.185,9.945C1.185,9.947,1.184,9.948,1.184,9.95         C1.183,9.951,1.182,9.953,1.181,9.955C1.181,9.957,1.18,9.958,1.179,9.96C1.179,9.962,1.178,9.963,1.177,9.965         C1.177,9.966,1.176,9.968,1.175,9.969C1.175,9.971,1.174,9.973,1.173,9.975C1.172,9.977,1.172,9.979,1.171,9.98         C1.17,9.982,1.17,9.984,1.169,9.986C1.168,9.987,1.167,9.989,1.167,9.991C1.166,9.992,1.166,9.993,1.165,9.994         c-0.001,0.002-0.002,0.005-0.003,0.007c0,0.001-0.001,0.002-0.001,0.003c-0.001,0.003-0.002,0.005-0.003,0.008         c0,0-0.001,0.002-0.001,0.003c-0.001,0.002-0.002,0.005-0.003,0.008c0,0.001-0.001,0.002-0.001,0.003         c-0.001,0.002-0.001,0.003-0.002,0.005c0,0.001-0.001,0.001-0.001,0.002c-0.001,0.003-0.002,0.006-0.004,0.009         c0,0.001-0.001,0.002-0.001,0.002c-0.001,0.003-0.002,0.006-0.003,0.009c0,0.001-0.001,0.001-0.001,0.002         c-0.001,0.003-0.003,0.007-0.004,0.01l0,0.001c-0.067,0.168-0.131,0.337-0.193,0.508l0.706,0.254         C1.95,9.994,2.327,9.18,2.77,8.41L2.12,8.036L2.12,8.036z M0.231,13.277c-0.092,0.537-0.157,1.083-0.195,1.638l0,0         c0,0.004-0.001,0.008-0.001,0.012c0,0,0,0,0,0c0,0.007-0.001,0.012-0.001,0.019c0,0,0,0.001,0,0.001         c0,0.004,0,0.007-0.001,0.012c0,0,0,0,0,0c0,0.007-0.001,0.012-0.001,0.019l0,0.001c0,0.004,0,0.007-0.001,0.011l0,0.001         c0,0.006-0.001,0.012-0.001,0.018c0,0,0,0.001,0,0.001c0,0.003,0,0.007-0.001,0.01c0,0.001,0,0.002,0,0.002         c0,0.005,0,0.008-0.001,0.012c0,0,0,0.001,0,0.001c0,0.002,0,0.004,0,0.006c0,0.001,0,0.001,0,0.001         c0,0.004,0,0.007-0.001,0.011c0,0.001,0,0.001,0,0.001c0,0.004,0,0.007-0.001,0.011c0,0.001,0,0.001,0,0.001         c0,0.003,0,0.004,0,0.006c0,0.001,0,0.002,0,0.003c0,0.003,0,0.006,0,0.008c0,0.001,0,0.002,0,0.003c0,0.003,0,0.006,0,0.008         c0,0.001,0,0.002,0,0.004c0,0.002,0,0.003,0,0.005c0,0.001,0,0.003,0,0.004c0,0.003,0,0.005,0,0.008c0,0.001,0,0.002,0,0.004         c0,0.003,0,0.005,0,0.008c0,0.001,0,0.003,0,0.004c0,0.002,0,0.003,0,0.005c0,0.001,0,0.003,0,0.004c0,0.003,0,0.005,0,0.007         c0,0.001,0,0.003,0,0.004c0,0.002,0,0.005,0,0.007c0,0.002,0,0.003,0,0.005c0,0.002,0,0.003,0,0.004c0,0.002,0,0.005,0,0.007         c0,0.002,0,0.003,0,0.004c0,0.002,0,0.003,0,0.005c0,0.002,0,0.004,0,0.007c0,0.002,0,0.003,0,0.005c0,0.002,0,0.003,0,0.005         c0,0.002,0,0.005,0,0.007c0,0.002,0,0.003,0,0.005c0,0.001,0,0.003,0,0.004c0,0.002,0,0.005,0,0.007c0,0.002,0,0.003,0,0.005         c0,0.002,0,0.003,0,0.005c0,0.002,0,0.005,0,0.007c0,0.002,0,0.003,0,0.005c0,0.001,0,0.003,0,0.004c0,0.002,0,0.005,0,0.007         c0,0.001,0,0.003,0,0.004c0,0.002,0,0.003,0,0.005c0,0.002,0,0.005,0,0.007c0,0.002,0,0.003,0,0.004c0,0.002,0,0.004,0,0.006         c0,0.002,0,0.004,0,0.006c0,0.002,0,0.003,0,0.005c0,0.002,0,0.003,0,0.004c0,0.002,0,0.005,0,0.007c0,0.002,0,0.003,0,0.005         c0,0.002,0,0.004,0,0.006c0,0.002,0,0.004,0,0.005c0,0.002,0,0.004,0,0.005c0,0.001,0,0.003,0,0.004c0,0.003,0,0.005,0,0.008         c0,0.001,0,0.003,0,0.004c0,0.002,0,0.005,0,0.007c0,0.002,0,0.003,0,0.005c0,0.002,0,0.004,0,0.006c0,0.001,0,0.003,0,0.004         c0,0.002,0,0.005,0,0.007c0,0.001,0,0.003,0,0.004c0,0.003,0,0.005,0,0.008c0,0.001,0,0.002,0,0.003c0,0.002,0,0.004,0,0.006         c0,0.002,0,0.003,0,0.005c0,0.002,0,0.004,0,0.006c0,0.001,0,0.003,0,0.004c0,0.003,0,0.005,0,0.008c0,0.001,0,0.003,0,0.004         c0,0.002,0,0.004,0,0.006c0,0.002,0,0.003,0,0.004c0,0.002,0,0.005,0,0.007c0,0.001,0,0.003,0,0.004c0,0.003,0,0.005,0,0.008         c0,0.002,0,0.002,0,0.004c0,0.002,0,0.004,0,0.006c0,0.002,0,0.003,0,0.005c0,0.002,0,0.004,0,0.006c0,0.001,0,0.002,0,0.004         c0,0.003,0,0.005,0,0.008c0,0.002,0,0.002,0,0.003c0,0.002,0,0.005,0,0.007c0,0.001,0,0.002,0,0.003c0,0.002,0,0.005,0,0.007         c0,0.002,0,0.002,0,0.003c0,0.003,0,0.006,0,0.008c0,0.001,0,0.002,0,0.003c0,0.003,0,0.005,0,0.008c0,0.001,0,0.002,0,0.003         c0,0.002,0,0.005,0,0.007c0,0.001,0,0.002,0,0.003c0,0.003,0,0.006,0,0.008c0,0.001,0,0.002,0,0.003c0,0.003,0,0.006,0,0.009         c0,0,0,0.002,0,0.002c0,0.003,0,0.005,0,0.008c0,0.001,0,0.002,0,0.003c0,0.003,0,0.006,0,0.009c0,0.001,0,0.002,0,0.003         c0,0.003,0,0.006,0,0.009c0,0.001,0,0.001,0,0.001c0,0.003,0,0.006,0,0.009l0,0.002c0,0.003,0,0.006,0,0.009         c0,0.001,0,0.001,0,0.002c0,0.003,0,0.006,0,0.009c0,0.001,0,0.001,0,0.002c0,0.003,0,0.006,0,0.008c0,0,0,0.001,0,0.002         c0,0.003,0,0.006,0,0.009c0,0.001,0,0.001,0,0.003c0,0.003,0,0.006,0,0.009c0,0.001,0,0.002,0,0.003c0,0.003,0,0.005,0,0.008         c0,0.001,0,0.001,0,0.001c0,0.004,0,0.007,0,0.01c0,0.001,0,0.001,0,0.003c0,0.003,0,0.006,0,0.009c0,0,0,0.001,0,0.002         c0,0.003,0,0.006,0,0.009c0,0.001,0,0.001,0,0.001c0,0.004,0,0.007,0,0.01c0,0,0,0.002,0,0.002c0,0.003,0,0.006,0,0.009         c0,0.001,0,0.002,0,0.002c0,0.004,0,0.007,0,0.01l0,0.001c0,0.003,0,0.006,0,0.009c0,0.001,0,0.002,0,0.002         c0,0.004,0,0.006,0,0.009c0,0.001,0,0.002,0,0.002c0,0.003,0,0.006,0,0.009c0,0,0,0,0,0.001c0,0.003,0,0.006,0,0.009         c0,0,0,0.001,0,0.002c0,0.003,0,0.006,0,0.009c0,0,0,0.001,0,0.002c0,0.003,0,0.006,0,0.01l0,0c0,0.003,0,0.006,0,0.01         c0,0.001,0,0.001,0,0.001c0,0.004,0,0.007,0,0.01c0,0.001,0,0.002,0,0.002c0,0.004,0,0.007,0,0.01l0,0.001         c0,0.003,0,0.006,0,0.009c0,0,0,0.001,0,0.002c0,0.003,0,0.006,0,0.009c0,0.001,0,0.001,0,0.002c0,0.003,0,0.006,0,0.009         c0,0.001,0,0.001,0,0.001c0,0.003,0,0.006,0,0.009c0,0,0,0.001,0,0.001c0,0.003,0,0.006,0,0.009c0,0.001,0,0.001,0,0.002         c0,0.003,0,0.006,0,0.009l0,0.001c0,0.003,0,0.006,0,0.009c0,0.001,0,0.001,0,0.001c0,0.003,0,0.006,0,0.009         c0,0,0,0.002,0,0.002c0,0.003,0,0.006,0,0.009c0,0.001,0,0.001,0,0.001c0,0.003,0,0.006,0,0.009c0,0.001,0,0,0,0.001         c0,0.003,0,0.006,0,0.01l0,0.002c0,0.003,0,0.006,0,0.009c0,0,0,0.001,0,0.002c0,0.003,0,0.006,0,0.009c0,0,0,0,0,0.001         c0,0.003,0,0.006,0,0.01c0,0.001,0,0.001,0,0.001c0,0.004,0,0.007,0,0.01c0,0.001,0,0.001,0,0.001c0,0.004,0,0.007,0,0.01         l0,0c0,0.002,0,0.005,0,0.007c0,0.002,0,0.002,0,0.004c0,0.001,0,0.002,0,0.003c0,0.002,0,0.004,0,0.006c0,0,0,0,0,0         c0,0.008,0,0.016,0,0.024c0,0.001,0,0.002,0,0.003c0,0.001,0,0.002,0,0.002c0,0.006,0,0.011,0,0.016l0.75-0.003l0-0.062         c0-0.871,0.074-1.745,0.22-2.596L0.231,13.277L0.231,13.277z M0.991,18.717L0.253,18.85c0,0,0,0,0,0         c0.001,0.003,0.001,0.007,0.002,0.01l0,0.001c0.001,0.003,0.001,0.007,0.002,0.01c0,0.001,0,0,0,0.001         c0.103,0.566,0.235,1.122,0.395,1.665l0,0c0.001,0.003,0.002,0.007,0.003,0.01l0,0c0.001,0.003,0.002,0.007,0.003,0.01l0,0         c0.002,0.007,0.004,0.014,0.006,0.02c0,0,0,0,0,0.001c0.001,0.003,0.002,0.006,0.003,0.01c0,0,0,0.001,0,0.001         c0.001,0.004,0.002,0.007,0.003,0.01c0,0,0,0.001,0,0.001c0.001,0.003,0.002,0.006,0.003,0.01l0,0         c0.001,0.003,0.002,0.006,0.003,0.01c0,0,0,0.001,0,0.001c0.001,0.003,0.002,0.006,0.003,0.009c0,0.001,0,0.001,0,0.002         c0.001,0.003,0.002,0.006,0.003,0.009c0,0,0,0.001,0,0.001c0.001,0.004,0.002,0.007,0.003,0.01c0,0,0,0,0,0.001         c0.001,0.003,0.002,0.006,0.003,0.009l0,0.001c0.001,0.003,0.002,0.006,0.003,0.009c0,0,0,0.002,0.001,0.002         c0.001,0.003,0.002,0.006,0.003,0.008c0,0,0.001,0.002,0.001,0.002c0.001,0.003,0.002,0.006,0.003,0.009c0,0,0,0.001,0,0.001         c0.001,0.003,0.002,0.006,0.003,0.009c0,0,0,0.001,0,0.002c0.001,0.003,0.002,0.006,0.003,0.009c0,0,0.001,0.002,0.001,0.002         c0.001,0.003,0.002,0.005,0.002,0.008c0,0.001,0.001,0.002,0.001,0.003c0.001,0.003,0.002,0.005,0.002,0.008         c0,0.001,0,0.001,0.001,0.002c0.001,0.002,0.002,0.005,0.002,0.007c0,0.001,0,0.002,0.001,0.002         c0.001,0.003,0.002,0.005,0.002,0.008c0,0.001,0,0.001,0.001,0.002c0.001,0.003,0.002,0.005,0.002,0.008         c0,0.001,0.001,0.002,0.001,0.003c0.001,0.003,0.002,0.005,0.002,0.008c0,0.001,0.001,0.002,0.001,0.003         c0.001,0.002,0.001,0.004,0.002,0.007c0,0.001,0.001,0.003,0.001,0.004c0.001,0.002,0.001,0.004,0.002,0.006         c0,0.001,0.001,0.002,0.001,0.003c0.001,0.002,0.001,0.005,0.002,0.007c0,0.001,0.001,0.003,0.001,0.004         c0.001,0.002,0.001,0.005,0.002,0.007c0,0.001,0.001,0.003,0.001,0.004c0.001,0.002,0.001,0.004,0.002,0.006         c0,0.001,0.001,0.004,0.002,0.005c0.001,0.002,0.001,0.003,0.002,0.005c0,0.001,0.001,0.004,0.002,0.005         c0.001,0.002,0.001,0.003,0.002,0.005c0,0.001,0.001,0.003,0.001,0.004c0.001,0.002,0.001,0.004,0.002,0.007         c0,0.001,0.001,0.003,0.001,0.004c0,0.001,0.001,0.003,0.001,0.004c0.001,0.002,0.001,0.004,0.002,0.007         c0,0.001,0.001,0.002,0.001,0.003c0.001,0.003,0.002,0.005,0.003,0.008c0,0.001,0.001,0.002,0.001,0.003         c0.001,0.002,0.002,0.005,0.002,0.008c0,0.001,0.001,0.002,0.001,0.004c0.001,0.002,0.001,0.003,0.002,0.005         c0,0.001,0.001,0.002,0.001,0.003c0.001,0.002,0.002,0.006,0.003,0.008c0,0.001,0.001,0.002,0.001,0.003         c0.001,0.003,0.002,0.005,0.003,0.008c0,0.001,0.001,0.002,0.001,0.002c0.001,0.003,0.002,0.006,0.003,0.009         c0,0.001,0,0.001,0.001,0.002c0.001,0.002,0.001,0.003,0.002,0.005c0,0,0,0.001,0,0.001c0.001,0.004,0.002,0.007,0.003,0.01         l0.001,0.002c0.001,0.003,0.002,0.007,0.003,0.009c0,0,0,0.001,0.001,0.002c0.001,0.003,0.002,0.007,0.003,0.01         c0,0,0,0.001,0,0.001c0.003,0.01,0.006,0.019,0.009,0.029l0,0.001c0.001,0.004,0.002,0.007,0.004,0.011l0,0.001         c0.003,0.01,0.006,0.019,0.009,0.029c0,0,0,0,0,0.001c0.001,0.004,0.002,0.007,0.004,0.011l0,0.001         c0.005,0.014,0.009,0.027,0.014,0.04l0,0c0.045,0.134,0.091,0.266,0.14,0.398l0,0.001c0.001,0.003,0.003,0.007,0.004,0.011         l0,0c0.004,0.011,0.009,0.023,0.013,0.035l0.703-0.26C1.384,20.456,1.148,19.591,0.991,18.717L0.991,18.717z M2.831,23.696         l-0.647,0.379c0.001,0.001,0.001,0.002,0.002,0.004c0,0,0,0,0,0c0.002,0.003,0.004,0.007,0.006,0.01         c0,0.001,0.001,0.001,0.001,0.001c0.002,0.003,0.004,0.006,0.005,0.009L2.199,24.1c0.002,0.003,0.003,0.006,0.005,0.009         l0.001,0.001c0.003,0.005,0.006,0.01,0.009,0.015c0.001,0.001,0.001,0.002,0.002,0.003c0.001,0.002,0.002,0.004,0.004,0.006         c0.001,0.001,0.001,0.002,0.002,0.003c0.002,0.003,0.002,0.004,0.004,0.007c0.001,0.001,0.001,0.002,0.002,0.003         c0.001,0.002,0.002,0.004,0.004,0.006c0.001,0.001,0.001,0.003,0.002,0.004c0.001,0.001,0.002,0.003,0.002,0.004         c0.001,0.002,0.002,0.004,0.004,0.006c0.001,0.001,0.001,0.002,0.002,0.004c0.001,0.002,0.002,0.004,0.003,0.006         c0.001,0.001,0.002,0.003,0.002,0.004c0.001,0.002,0.002,0.003,0.003,0.005c0.001,0.002,0.002,0.003,0.003,0.005         c0.001,0.002,0.002,0.003,0.003,0.005c0.001,0.001,0.002,0.003,0.003,0.004c0.001,0.002,0.002,0.004,0.003,0.005         c0.001,0.001,0.001,0.002,0.002,0.003c0.001,0.002,0.003,0.004,0.004,0.007c0.001,0.001,0.001,0.002,0.002,0.003         c0.001,0.002,0.003,0.004,0.004,0.006c0.001,0.001,0.001,0.002,0.002,0.003c0.001,0.002,0.003,0.004,0.004,0.007         c0.001,0.001,0.001,0.002,0.002,0.003c0.001,0.002,0.002,0.004,0.004,0.006c0.001,0.001,0.001,0.002,0.002,0.003         c0.001,0.002,0.003,0.004,0.004,0.006c0.001,0.001,0.001,0.001,0.001,0.002c0.002,0.002,0.003,0.005,0.004,0.007         c0.001,0.001,0.001,0.002,0.001,0.002c0.002,0.002,0.003,0.005,0.005,0.007c0.001,0.001,0.001,0.001,0.001,0.002         c0.002,0.003,0.003,0.005,0.005,0.008c0,0,0.001,0.001,0.001,0.002c0.002,0.003,0.003,0.005,0.005,0.008         c0,0,0,0.001,0.001,0.001c0.002,0.003,0.003,0.005,0.005,0.008c0,0,0,0,0.001,0.001c0.002,0.003,0.003,0.006,0.005,0.008         l0.001,0.001c0.002,0.003,0.003,0.006,0.005,0.008c0,0,0.001,0.001,0.001,0.001c0.002,0.003,0.003,0.005,0.005,0.008         l0.001,0.001c0.002,0.003,0.003,0.006,0.005,0.009l0,0.001c0.004,0.006,0.007,0.012,0.011,0.018l0,0.001         c0.002,0.003,0.003,0.006,0.005,0.009c0,0,0,0.001,0.001,0.001c0.002,0.003,0.003,0.005,0.005,0.008c0,0,0,0.001,0.001,0.001         c0.002,0.003,0.004,0.006,0.005,0.009l0,0c0.347,0.563,0.728,1.103,1.14,1.616l0,0c0.002,0.003,0.004,0.006,0.007,0.008l0,0         c0.005,0.006,0.009,0.011,0.014,0.017l0,0c0.002,0.003,0.004,0.005,0.006,0.008c0,0,0.001,0.001,0.001,0.001         c0.002,0.002,0.004,0.005,0.006,0.007l0.001,0.001c0.002,0.002,0.004,0.005,0.006,0.007c0.001,0.001,0.001,0.001,0.002,0.002         c0.002,0.002,0.003,0.004,0.005,0.006c0,0,0.001,0.002,0.001,0.002c0.002,0.002,0.003,0.004,0.005,0.006         c0.001,0.001,0.001,0.002,0.002,0.003c0.001,0.002,0.003,0.004,0.004,0.005c0.001,0.001,0.001,0.002,0.002,0.003         c0.002,0.002,0.003,0.004,0.005,0.006c0.001,0.001,0.002,0.002,0.003,0.003c0.001,0.002,0.003,0.004,0.004,0.005         c0.001,0.001,0.002,0.002,0.003,0.003c0.001,0.001,0.002,0.003,0.004,0.004c0.001,0.002,0.003,0.003,0.004,0.005         c0.001,0.001,0.002,0.002,0.002,0.003c0.002,0.002,0.003,0.004,0.005,0.006c0.001,0.001,0.001,0.002,0.002,0.002         c0.002,0.002,0.004,0.004,0.006,0.007c0.001,0.001,0.001,0.001,0.002,0.002c0.004,0.005,0.007,0.009,0.011,0.013         c0,0,0,0.001,0.001,0.001c0.002,0.003,0.005,0.006,0.007,0.008c0,0,0,0,0,0c0.003,0.003,0.005,0.006,0.007,0.009c0,0,0,0,0,0         c0.054,0.066,0.109,0.131,0.164,0.197l0.571-0.486C3.799,25.193,3.28,24.461,2.831,23.696L2.831,23.696z M6.271,27.744         l-0.479,0.577c0.528,0.438,1.084,0.842,1.665,1.21l0.001,0c0.019,0.012,0.037,0.023,0.056,0.035c0,0,0,0,0,0         c0.003,0.002,0.006,0.004,0.01,0.006c0,0,0,0,0,0c0.005,0.003,0.01,0.006,0.015,0.009c0.001,0,0.001,0.001,0.002,0.001         c0.003,0.002,0.005,0.003,0.008,0.005c0.001,0,0.001,0.001,0.002,0.001c0.003,0.002,0.005,0.003,0.008,0.005         c0.001,0,0.001,0.001,0.002,0.001c0.003,0.002,0.005,0.003,0.008,0.005c0.001,0,0.001,0.001,0.002,0.001         c0.002,0.001,0.005,0.003,0.007,0.004c0.001,0.001,0.002,0.001,0.003,0.002c0.002,0.001,0.003,0.002,0.005,0.003         c0.002,0.001,0.004,0.002,0.005,0.003c0.001,0.001,0.003,0.002,0.004,0.003c0.001,0.001,0.002,0.001,0.003,0.002         c0.002,0.001,0.004,0.003,0.006,0.004c0.001,0.001,0.002,0.001,0.003,0.002c0.002,0.001,0.004,0.003,0.006,0.004         c0.001,0.001,0.003,0.002,0.004,0.002c0.002,0.001,0.003,0.002,0.005,0.003c0.001,0.001,0.003,0.002,0.004,0.003         c0.001,0.001,0.003,0.002,0.004,0.003c0.002,0.001,0.004,0.002,0.006,0.003c0.001,0.001,0.003,0.002,0.004,0.003         c0.002,0.001,0.003,0.002,0.005,0.003c0.002,0.001,0.003,0.002,0.005,0.003c0.002,0.001,0.003,0.002,0.005,0.003         c0.001,0.001,0.003,0.002,0.005,0.003c0.002,0.001,0.003,0.002,0.005,0.003c0.001,0.001,0.003,0.002,0.004,0.003         c0.002,0.001,0.003,0.002,0.005,0.003c0.001,0.001,0.002,0.001,0.003,0.002c0.002,0.001,0.004,0.003,0.006,0.004         c0.001,0.001,0.002,0.001,0.003,0.002c0.002,0.001,0.005,0.003,0.007,0.004c0.001,0.001,0.002,0.001,0.003,0.002         c0.002,0.001,0.005,0.003,0.007,0.004c0.001,0.001,0.001,0.001,0.002,0.001c0.002,0.001,0.004,0.003,0.006,0.004         c0.001,0.001,0.002,0.001,0.003,0.002c0.002,0.001,0.004,0.003,0.006,0.004c0,0,0.001,0.001,0.002,0.001         c0.002,0.001,0.005,0.003,0.007,0.004c0.001,0.001,0.002,0.001,0.003,0.002c0.002,0.001,0.005,0.003,0.007,0.004         c0.001,0.001,0.002,0.001,0.002,0.001c0.002,0.001,0.005,0.003,0.007,0.004c0.001,0.001,0.002,0.001,0.003,0.002         c0.002,0.001,0.005,0.003,0.007,0.004l0.002,0.001c0.002,0.001,0.004,0.003,0.007,0.004c0.001,0.001,0.001,0.001,0.002,0.001         c0.002,0.001,0.005,0.003,0.007,0.004L7.78,29.73c0.002,0.001,0.005,0.003,0.007,0.004c0.001,0.001,0.001,0.001,0.002,0.001         c0.002,0.001,0.005,0.003,0.007,0.004c0,0,0.002,0.001,0.002,0.001c0.003,0.002,0.005,0.003,0.008,0.005         c0,0,0.001,0.001,0.001,0.001c0.003,0.002,0.005,0.003,0.008,0.005l0,0c0.003,0.002,0.006,0.003,0.009,0.005l0.001,0.001         c0.003,0.002,0.006,0.003,0.008,0.005c0,0,0.001,0,0.001,0.001c0.003,0.002,0.006,0.003,0.008,0.005c0,0,0.001,0,0.001,0.001         c0.003,0.002,0.006,0.003,0.009,0.005l0.001,0c0.009,0.006,0.018,0.011,0.028,0.016l0,0c0.003,0.002,0.006,0.004,0.009,0.005         l0,0c0.003,0.002,0.006,0.004,0.009,0.005l0,0c0.013,0.007,0.025,0.015,0.038,0.022l0,0c0.051,0.03,0.101,0.059,0.152,0.088         l0.371-0.652C7.693,28.822,6.955,28.311,6.271,27.744L6.271,27.744z M10.885,30.371l-0.251,0.707         c0.87,0.31,1.775,0.546,2.707,0.702l0.124-0.74C12.588,30.894,11.721,30.669,10.885,30.371L10.885,30.371z M18.777,30.998         c-0.87,0.16-1.763,0.245-2.654,0.252l0.006,0.75c0.393-0.003,0.783-0.02,1.169-0.051l0,0         c0.014-0.001,0.029-0.002,0.043-0.004l0.001,0c0.004,0,0.007-0.001,0.011-0.001l0,0c0.007-0.001,0.014-0.001,0.021-0.002l0,0         c0.003,0,0.007-0.001,0.01-0.001c0.001,0,0,0,0,0c0.011-0.001,0.022-0.002,0.033-0.003l0.001,0         c0.003,0,0.007-0.001,0.01-0.001l0,0c0.007-0.001,0.014-0.001,0.021-0.002c0.001,0,0.001,0,0.001,0         c0.003,0,0.007-0.001,0.01-0.001c0.001,0,0.001,0,0.001,0c0.003,0,0.007-0.001,0.01-0.001l0.001,0         c0.003,0,0.007-0.001,0.01-0.001l0,0c0.003,0,0.007-0.001,0.01-0.001c0,0,0.001,0,0.002,0c0.003,0,0.006-0.001,0.009-0.001         c0,0,0.001,0,0.002,0c0.003,0,0.006-0.001,0.01-0.001c0.001,0,0.001,0,0.001,0c0.004,0,0.007-0.001,0.01-0.001         c0.001,0,0.001,0,0.001,0c0.003,0,0.006-0.001,0.009-0.001c0.001,0,0.001,0,0.002,0c0.003,0,0.006-0.001,0.009-0.001         c0.001,0,0.002,0,0.002,0c0.003,0,0.006-0.001,0.009-0.001c0.001,0,0.001,0,0.001,0c0.004,0,0.007-0.001,0.01-0.001         c0,0,0.002,0,0.002,0c0.003,0,0.006-0.001,0.009-0.001l0.002,0c0.003,0,0.006-0.001,0.009-0.001c0.001,0,0.001,0,0.002,0         c0.003,0,0.006-0.001,0.008-0.001c0.001,0,0.002,0,0.002,0c0.003,0,0.006-0.001,0.009-0.001c0.001,0,0.002,0,0.003,0         c0.003,0,0.006-0.001,0.009-0.001c0.001,0,0.002,0,0.003,0c0.003,0,0.006-0.001,0.009-0.001c0,0,0.001,0,0.001,0         c0.003,0,0.006-0.001,0.008-0.001c0.001,0,0.001,0,0.002,0c0.003,0,0.006-0.001,0.009-0.001c0.001,0,0.002,0,0.003,0         c0.003,0,0.006-0.001,0.008-0.001c0.001,0,0.002,0,0.003,0c0.002,0,0.005,0,0.007-0.001c0.002,0,0.002,0,0.003,0         c0.003,0,0.005-0.001,0.008-0.001c0.001,0,0.002,0,0.003,0c0.003,0,0.005-0.001,0.008-0.001c0.001,0,0.002,0,0.004,0         c0.002,0,0.005,0,0.007-0.001c0.002,0,0.003,0,0.004,0c0.002,0,0.004,0,0.006-0.001c0.001,0,0.002,0,0.003,0         c0.003,0,0.005-0.001,0.008-0.001c0.001,0,0.003,0,0.004,0c0.003,0,0.005-0.001,0.008-0.001c0.002,0,0.002,0,0.004,0         c0.002,0,0.004,0,0.006-0.001c0.002,0,0.003,0,0.005-0.001c0.002,0,0.004,0,0.006-0.001c0.002,0,0.002,0,0.004,0         c0.003,0,0.005-0.001,0.008-0.001c0.001,0,0.003,0,0.004,0c0.003,0,0.005-0.001,0.008-0.001c0.001,0,0.003,0,0.004,0         c0.002,0,0.003,0,0.005-0.001c0.002,0,0.004,0,0.006-0.001c0.002,0,0.004,0,0.006-0.001c0.002,0,0.003,0,0.004,0         c0.002,0,0.005-0.001,0.007-0.001c0.002,0,0.003,0,0.004,0c0.002,0,0.004,0,0.006-0.001c0.002,0,0.003,0,0.005-0.001         c0.002,0,0.004,0,0.005-0.001c0.002,0,0.003,0,0.005-0.001c0.002,0,0.004,0,0.006-0.001c0.002,0,0.003,0,0.005-0.001         c0.002,0,0.004,0,0.005-0.001c0.002,0,0.004,0,0.006-0.001c0.001,0,0.003,0,0.004,0c0.002,0,0.005-0.001,0.007-0.001         c0.001,0,0.003,0,0.004,0c0.002,0,0.003,0,0.005-0.001c0.002,0,0.004-0.001,0.007-0.001c0.002,0,0.004,0,0.005-0.001         c0.001,0,0.002,0,0.004,0c0.003,0,0.005-0.001,0.008-0.001c0.001,0,0.002,0,0.004,0c0.003,0,0.005-0.001,0.008-0.001         c0.001,0,0.002,0,0.004,0c0.002,0,0.004,0,0.005-0.001c0.002,0,0.004-0.001,0.007-0.001c0.002,0,0.003,0,0.005-0.001         c0.001,0,0.003,0,0.004,0c0.003,0,0.005-0.001,0.008-0.001c0.001,0,0.002,0,0.003,0c0.003,0,0.005-0.001,0.007-0.001         c0.001,0,0.003,0,0.004,0c0.002,0,0.003,0,0.005-0.001c0.001,0,0.002,0,0.004,0c0.003,0,0.005-0.001,0.008-0.001         c0.001,0,0.002,0,0.004,0c0.003,0,0.005-0.001,0.008-0.001c0.001,0,0.002,0,0.003,0c0.002,0,0.004,0,0.005-0.001l0.002,0         c0.004,0,0.006-0.001,0.01-0.001c0.001,0,0.002,0,0.003,0c0.003,0,0.006-0.001,0.009-0.001c0.001,0,0.002,0,0.003,0         c0.003,0,0.005-0.001,0.008-0.001c0.001,0,0.003,0,0.004,0c0.002,0,0.003,0,0.005-0.001c0.001,0,0.001,0,0.002,0         c0.003,0,0.007-0.001,0.01-0.001c0.001,0,0.001,0,0.002,0c0.003,0,0.007-0.001,0.01-0.001c0.001,0,0.001,0,0.002,0         c0.004,0,0.007-0.001,0.011-0.001c0.001,0,0.001,0,0.001,0c0.002,0,0.004,0,0.006-0.001c0,0,0.002,0,0.002,0         c0.003,0,0.006-0.001,0.01-0.001c0.001,0,0.002,0,0.002,0c0.003,0,0.007-0.001,0.01-0.001l0.002,0         c0.006-0.001,0.011-0.002,0.018-0.002c0.001,0,0.001,0,0.002,0c0.003,0,0.007-0.001,0.01-0.001c0.001,0,0.001,0,0.002,0         c0.004-0.001,0.007-0.001,0.011-0.002c0,0,0,0,0,0c0.006-0.001,0.012-0.002,0.018-0.002l0.001,0         c0.004-0.001,0.007-0.001,0.011-0.002c0,0,0.001,0,0.001,0c0.007-0.001,0.012-0.002,0.018-0.003c0,0,0.001,0,0.001,0         c0.005-0.001,0.008-0.001,0.012-0.002c0,0,0.001,0,0.001,0c0.004-0.001,0.008-0.001,0.012-0.002l0,0         c0.006-0.001,0.012-0.002,0.018-0.003l0.001,0c0.004-0.001,0.007-0.001,0.012-0.002l0,0c0.006-0.001,0.012-0.002,0.018-0.003         c0,0,0.001,0,0.001,0c0.004-0.001,0.007-0.001,0.011-0.002c0,0,0.001,0,0.001,0c0.005-0.001,0.008-0.001,0.012-0.002l0,0         c0.006-0.001,0.012-0.002,0.019-0.003l0,0c0.004-0.001,0.008-0.001,0.012-0.002l0.001,0c0.01-0.002,0.02-0.003,0.03-0.004         l0.001,0c0.004-0.001,0.007-0.001,0.011-0.002l0.001,0c0.01-0.002,0.02-0.003,0.03-0.005c0,0,0.001,0,0.001,0         c0.004-0.001,0.007-0.001,0.012-0.002l0,0c0.006-0.001,0.012-0.002,0.018-0.003l0.001,0c0.003,0,0.007-0.001,0.011-0.002         c0.001,0,0.001,0,0.001,0c0.011-0.002,0.02-0.003,0.03-0.005l0.001,0c0.004-0.001,0.007-0.001,0.011-0.002l0.001,0         c0.006-0.001,0.012-0.002,0.018-0.003l0.001,0c0.004-0.001,0.007-0.001,0.011-0.002c0,0,0.001,0,0.002,0         c0.004-0.001,0.007-0.001,0.012-0.002l0,0c0.006-0.001,0.012-0.002,0.018-0.003l0,0c0.004-0.001,0.008-0.001,0.012-0.002h0         c0.006-0.001,0.012-0.002,0.019-0.003l0,0c0.004-0.001,0.007-0.001,0.012-0.002c0,0,0.001,0,0.001,0         c0.004-0.001,0.007-0.001,0.011-0.002c0,0,0.001,0,0.001,0c0.006-0.001,0.012-0.002,0.018-0.003l0.001,0         c0.004-0.001,0.007-0.001,0.011-0.002c0,0,0.001,0,0.001,0c0.006-0.001,0.012-0.002,0.018-0.003l0.001,0         c0.003-0.001,0.007-0.001,0.01-0.002c0.001,0,0.002,0,0.003,0c0.003-0.001,0.006-0.001,0.009-0.002c0.001,0,0.001,0,0.001,0         c0.007-0.001,0.012-0.002,0.018-0.003c0,0,0.001,0,0.002,0c0.003-0.001,0.006-0.001,0.009-0.002c0.001,0,0.002,0,0.003,0         c0.003-0.001,0.007-0.001,0.01-0.002c0,0,0.001,0,0.001,0c0.003,0,0.004-0.001,0.006-0.001c0,0,0.001,0,0.001,0         c0.004-0.001,0.007-0.001,0.01-0.002c0.001,0,0.002,0,0.003-0.001c0.003-0.001,0.005-0.001,0.008-0.001         c0.001,0,0.002,0,0.003-0.001c0.003,0,0.006-0.001,0.008-0.001c0.001,0,0.002,0,0.003-0.001c0.002,0,0.003-0.001,0.005-0.001         c0.001,0,0.002,0,0.004-0.001c0.003,0,0.005-0.001,0.008-0.001c0.001,0,0.003,0,0.004-0.001c0.003,0,0.004-0.001,0.007-0.001         c0.001,0,0.003-0.001,0.004-0.001c0.002,0,0.003-0.001,0.005-0.001c0.002,0,0.004-0.001,0.007-0.001         c0.002,0,0.003-0.001,0.004-0.001c0.002,0,0.003-0.001,0.005-0.001c0.002,0,0.004-0.001,0.006-0.001         c0.002,0,0.003-0.001,0.005-0.001c0.002,0,0.003-0.001,0.005-0.001c0.002,0,0.004-0.001,0.006-0.001         c0.001,0,0.003-0.001,0.004-0.001c0.002,0,0.004-0.001,0.006-0.001c0.002,0,0.003-0.001,0.005-0.001         c0.002,0,0.003-0.001,0.005-0.001c0.002,0,0.004-0.001,0.006-0.001c0.002,0,0.004-0.001,0.005-0.001         c0.002,0,0.003,0,0.004-0.001c0.002,0,0.005-0.001,0.007-0.001c0.002,0,0.003-0.001,0.004-0.001         c0.002,0,0.003-0.001,0.005-0.001c0.001,0,0.002,0,0.003-0.001L18.777,30.998L18.777,30.998z M23.749,29.137         c-0.765,0.452-1.574,0.839-2.404,1.15l0.263,0.702c0.881-0.33,1.724-0.734,2.523-1.207L23.749,29.137L23.749,29.137z          M27.783,25.682c-0.564,0.686-1.192,1.326-1.866,1.904l0.488,0.57c0.273-0.234,0.538-0.476,0.794-0.728l0,0         c0.003-0.003,0.005-0.005,0.008-0.008l0,0c0.007-0.007,0.014-0.014,0.021-0.021c0,0,0,0,0,0         c0.003-0.003,0.005-0.005,0.008-0.008c0,0,0.001-0.001,0.001-0.001c0.002-0.002,0.005-0.005,0.007-0.007l0.002-0.002         c0.002-0.002,0.004-0.004,0.007-0.007c0,0,0.001-0.001,0.002-0.002c0.002-0.002,0.004-0.004,0.007-0.007         c0,0,0.001-0.001,0.001-0.001c0.001-0.001,0.003-0.003,0.004-0.004l0,0c0.003-0.003,0.005-0.005,0.008-0.008         c0.001-0.001,0.002-0.002,0.002-0.002c0.002-0.002,0.004-0.004,0.006-0.005c0.001-0.001,0.002-0.002,0.003-0.003         c0.002-0.002,0.004-0.004,0.005-0.005c0.001-0.001,0.002-0.002,0.003-0.003c0.001-0.001,0.003-0.003,0.005-0.005         c0.001-0.001,0.002-0.002,0.003-0.003c0.001-0.001,0.002-0.002,0.003-0.003c0.002-0.002,0.003-0.003,0.005-0.005         c0.001-0.001,0.002-0.002,0.003-0.003c0.002-0.002,0.003-0.003,0.005-0.005c0.001-0.001,0.002-0.002,0.003-0.003         c0.001-0.001,0.003-0.003,0.004-0.004c0.001-0.001,0.003-0.003,0.004-0.004c0.001-0.001,0.003-0.003,0.004-0.004         c0.001-0.001,0.003-0.003,0.004-0.004c0.001-0.001,0.003-0.003,0.004-0.004c0.001-0.001,0.002-0.002,0.003-0.003         c0.002-0.002,0.004-0.004,0.005-0.005c0.001-0.001,0.002-0.002,0.003-0.003c0.002-0.002,0.003-0.004,0.005-0.005         c0.001-0.001,0.002-0.002,0.003-0.003c0.002-0.002,0.003-0.003,0.005-0.005c0.001-0.001,0.002-0.002,0.003-0.003         c0.001-0.001,0.003-0.003,0.004-0.005c0.001-0.001,0.002-0.002,0.003-0.003c0.002-0.002,0.003-0.003,0.005-0.005         c0.001-0.001,0.001-0.001,0.001-0.001c0.003-0.003,0.005-0.005,0.007-0.007c0.001-0.001,0.001-0.001,0.001-0.001         c0.003-0.003,0.005-0.005,0.006-0.007c0.001-0.001,0.002-0.002,0.002-0.002c0.003-0.003,0.005-0.005,0.006-0.007         c0,0,0.002-0.002,0.002-0.002c0.002-0.002,0.004-0.004,0.006-0.006c0.001-0.001,0.001-0.001,0.002-0.002         c0.002-0.002,0.004-0.004,0.006-0.006c0.001-0.001,0.001-0.001,0.002-0.002c0.002-0.002,0.004-0.004,0.006-0.006         c0.001-0.001,0.001-0.001,0.001-0.001c0.003-0.003,0.005-0.005,0.007-0.007c0,0,0.001-0.001,0.001-0.001         c0.002-0.002,0.004-0.005,0.007-0.007c0.001-0.001,0.001-0.001,0.002-0.002c0.002-0.002,0.004-0.004,0.006-0.007         c0,0,0.001-0.001,0.001-0.001c0.002-0.002,0.004-0.005,0.007-0.007c0,0,0.001-0.001,0.001-0.001         c0.002-0.002,0.004-0.004,0.006-0.007c0,0,0,0,0.001-0.001c0.002-0.002,0.005-0.005,0.007-0.007l0.001-0.001         c0.002-0.002,0.004-0.005,0.007-0.007c0,0,0.001-0.001,0.001-0.001c0.002-0.002,0.004-0.005,0.007-0.007         c0,0,0.001-0.001,0.001-0.001c0.002-0.002,0.004-0.005,0.007-0.007l0.001-0.001c0.007-0.008,0.015-0.015,0.022-0.023l0,0         c0.002-0.003,0.005-0.005,0.007-0.008l0,0c0.002-0.003,0.005-0.005,0.007-0.008l0,0c0.288-0.299,0.564-0.61,0.829-0.931         L27.783,25.682L27.783,25.682z M30.392,21.057c-0.294,0.836-0.664,1.653-1.101,2.427l0.653,0.369         c0.141-0.249,0.275-0.503,0.402-0.76l0,0c0.002-0.003,0.003-0.006,0.005-0.01l0,0c0.006-0.013,0.013-0.026,0.019-0.039l0,0         c0.276-0.561,0.519-1.141,0.729-1.737L30.392,21.057L30.392,21.057z M31.999,15.807l-0.75,0.009L31.25,16         c0,0.83-0.067,1.663-0.2,2.475l0.74,0.121c0.016-0.099,0.031-0.198,0.046-0.298l0,0c0.001-0.006,0.002-0.013,0.003-0.019         l0-0.001c0.001-0.006,0.002-0.013,0.003-0.019l0-0.001c0-0.003,0.001-0.006,0.001-0.01l0-0.001         c0.001-0.006,0.002-0.013,0.003-0.019l0-0.001c0.001-0.006,0.002-0.013,0.003-0.019l0-0.001c0-0.003,0.001-0.006,0.001-0.009         c0-0.001,0-0.001,0-0.001c0.001-0.006,0.002-0.012,0.003-0.018c0-0.001,0-0.001,0-0.002c0-0.003,0.001-0.006,0.001-0.009         c0,0,0,0,0,0c0-0.003,0.001-0.006,0.001-0.009l0-0.001c0-0.003,0.001-0.006,0.001-0.009c0-0.001,0-0.001,0-0.001         c0-0.003,0.001-0.006,0.001-0.009c0-0.001,0,0,0-0.001c0-0.003,0.001-0.006,0.001-0.009c0-0.001,0-0.001,0-0.002         c0-0.003,0.001-0.006,0.001-0.009c0-0.001,0-0.001,0-0.002c0-0.003,0.001-0.005,0.001-0.008l0-0.002         c0-0.003,0.001-0.006,0.001-0.009c0-0.001,0-0.001,0-0.002c0-0.003,0.001-0.006,0.001-0.009l0,0         c0-0.003,0.001-0.006,0.001-0.009c0-0.001,0-0.001,0-0.002c0-0.003,0.001-0.006,0.001-0.008c0-0.001,0-0.001,0-0.001         c0-0.003,0.001-0.005,0.001-0.008c0-0.001,0-0.001,0-0.001c0-0.003,0.001-0.006,0.001-0.009c0,0,0-0.001,0-0.002         c0-0.003,0.001-0.005,0.001-0.008c0,0,0-0.001,0-0.001c0-0.003,0.001-0.006,0.001-0.009c0-0.001,0-0.001,0-0.002         c0-0.003,0.001-0.006,0.001-0.008c0-0.001,0-0.001,0-0.001c0-0.003,0.001-0.005,0.001-0.008c0-0.001,0-0.002,0-0.002         c0-0.003,0.001-0.005,0.001-0.008c0,0,0-0.002,0-0.003c0-0.002,0.001-0.005,0.001-0.007l0-0.002         c0-0.003,0.001-0.005,0.001-0.008c0-0.001,0-0.002,0-0.003c0-0.003,0.001-0.005,0.001-0.008c0-0.001,0-0.001,0-0.003         c0-0.002,0.001-0.004,0.001-0.006c0-0.001,0-0.002,0-0.003c0-0.003,0.001-0.005,0.001-0.008c0-0.001,0-0.002,0-0.003         c0-0.002,0.001-0.004,0.001-0.006c0-0.001,0-0.002,0-0.003c0-0.003,0.001-0.005,0.001-0.008c0-0.001,0-0.002,0-0.003         c0-0.003,0.001-0.005,0.001-0.008c0-0.001,0-0.002,0-0.003c0-0.002,0-0.004,0.001-0.006c0-0.001,0-0.002,0-0.003         c0-0.003,0.001-0.005,0.001-0.008c0-0.001,0-0.002,0-0.003c0-0.002,0-0.004,0.001-0.006c0-0.001,0-0.002,0-0.002         c0-0.003,0.001-0.005,0.001-0.008c0-0.001,0-0.002,0-0.004c0-0.002,0.001-0.005,0.001-0.007c0-0.001,0-0.002,0-0.003         c0-0.002,0-0.004,0.001-0.006c0-0.001,0-0.002,0-0.004c0-0.003,0.001-0.005,0.001-0.008c0-0.001,0-0.002,0-0.003         c0-0.002,0-0.004,0.001-0.006c0-0.001,0-0.002,0-0.002c0-0.003,0.001-0.005,0.001-0.008c0-0.001,0-0.002,0-0.003         c0-0.003,0.001-0.005,0.001-0.008c0-0.001,0-0.002,0-0.003c0-0.002,0-0.004,0.001-0.006c0-0.001,0-0.002,0-0.003         c0-0.002,0.001-0.005,0.001-0.007c0-0.002,0-0.002,0-0.004c0-0.002,0-0.004,0.001-0.005c0-0.002,0-0.002,0-0.004         c0-0.002,0-0.004,0.001-0.007c0-0.001,0-0.003,0-0.004c0-0.002,0.001-0.005,0.001-0.007c0-0.001,0-0.002,0-0.003         c0-0.002,0-0.004,0.001-0.006c0-0.001,0-0.002,0-0.003c0-0.003,0.001-0.005,0.001-0.008c0-0.001,0-0.002,0-0.003         c0-0.002,0-0.004,0.001-0.006c0-0.001,0-0.002,0-0.003c0-0.002,0.001-0.005,0.001-0.007c0-0.001,0-0.002,0-0.003         c0-0.002,0-0.004,0.001-0.006c0-0.002,0-0.003,0-0.005c0-0.002,0-0.003,0.001-0.005c0-0.002,0-0.002,0-0.004         c0-0.002,0.001-0.005,0.001-0.007c0-0.002,0-0.002,0-0.003c0-0.002,0-0.004,0.001-0.006c0-0.002,0-0.002,0-0.004         c0-0.002,0-0.004,0.001-0.006c0-0.001,0-0.003,0-0.004c0-0.002,0-0.004,0.001-0.006c0-0.002,0-0.003,0-0.005         c0-0.002,0-0.003,0.001-0.005c0-0.002,0-0.002,0-0.004c0-0.002,0-0.005,0.001-0.007c0-0.002,0-0.002,0-0.004         c0-0.002,0-0.003,0.001-0.005c0-0.002,0-0.003,0-0.005c0-0.002,0-0.004,0.001-0.006c0-0.001,0-0.003,0-0.004         c0-0.002,0-0.004,0.001-0.006c0-0.002,0-0.003,0-0.005c0-0.002,0-0.003,0-0.005c0-0.002,0-0.002,0-0.004         c0-0.002,0-0.005,0.001-0.007c0-0.002,0-0.002,0-0.004c0-0.002,0-0.004,0.001-0.005c0-0.002,0-0.003,0-0.004         c0-0.002,0-0.004,0.001-0.006c0-0.001,0-0.003,0-0.004c0-0.002,0-0.004,0.001-0.006c0-0.002,0-0.003,0-0.005         c0-0.002,0-0.003,0-0.005c0-0.002,0-0.003,0-0.004c0-0.002,0-0.005,0.001-0.007c0-0.002,0-0.002,0-0.004         c0-0.002,0-0.003,0-0.005c0-0.002,0-0.003,0-0.005c0-0.002,0-0.004,0.001-0.006c0-0.001,0-0.003,0-0.004         c0-0.002,0-0.004,0.001-0.005c0-0.002,0-0.004,0.001-0.006c0-0.001,0-0.003,0-0.004c0-0.002,0-0.003,0-0.004         c0-0.002,0-0.005,0.001-0.007c0-0.002,0-0.003,0-0.004c0-0.002,0-0.003,0-0.005c0-0.002,0-0.004,0.001-0.006         c0-0.002,0-0.003,0-0.005s0-0.003,0-0.005c0-0.002,0-0.003,0-0.005c0-0.002,0-0.004,0.001-0.006c0-0.002,0-0.003,0-0.005         c0-0.002,0-0.003,0-0.004c0-0.002,0-0.005,0.001-0.007c0-0.002,0-0.002,0-0.004c0-0.002,0-0.003,0-0.005         c0-0.002,0-0.003,0-0.005c0-0.002,0-0.004,0.001-0.006c0-0.001,0-0.003,0-0.004c0-0.002,0-0.004,0.001-0.006         c0-0.002,0-0.003,0-0.005c0-0.002,0-0.003,0-0.005c0-0.002,0-0.002,0-0.004c0-0.002,0-0.005,0.001-0.007         c0-0.002,0-0.003,0-0.004c0-0.002,0-0.003,0-0.005c0-0.002,0-0.004,0.001-0.006c0-0.002,0-0.003,0-0.005         c0-0.001,0-0.003,0-0.004c0-0.002,0-0.004,0-0.005c0-0.002,0-0.004,0-0.006c0-0.001,0-0.003,0-0.004c0-0.002,0-0.003,0-0.005         c0-0.002,0-0.004,0.001-0.007c0-0.002,0-0.003,0-0.004c0-0.001,0-0.003,0-0.004c0-0.002,0-0.004,0.001-0.006         c0-0.002,0-0.003,0-0.005c0-0.001,0-0.003,0-0.004c0-0.002,0-0.003,0-0.005c0-0.003,0-0.004,0.001-0.007         c0-0.001,0-0.002,0-0.004c0-0.002,0-0.004,0-0.006c0-0.002,0-0.004,0-0.005c0-0.002,0-0.003,0-0.005c0-0.001,0-0.003,0-0.004         c0-0.002,0-0.004,0.001-0.006c0-0.002,0-0.003,0-0.005c0-0.002,0-0.003,0-0.004c0-0.002,0-0.003,0-0.005         c0-0.002,0-0.004,0-0.006c0-0.002,0-0.003,0-0.005c0-0.002,0-0.002,0-0.004c0-0.002,0-0.005,0.001-0.007         c0-0.002,0-0.002,0-0.004c0-0.002,0-0.004,0-0.006c0-0.002,0-0.003,0-0.005c0-0.002,0-0.004,0-0.006c0-0.001,0-0.003,0-0.004         c0-0.002,0-0.005,0.001-0.007c0-0.001,0-0.003,0-0.004c0-0.002,0-0.004,0-0.005c0-0.001,0-0.003,0-0.004         c0-0.002,0-0.005,0.001-0.007c0-0.002,0-0.002,0-0.004c0-0.002,0-0.004,0-0.005c0-0.002,0-0.003,0-0.004         c0-0.002,0-0.004,0-0.006c0-0.001,0-0.003,0-0.004c0-0.002,0-0.005,0.001-0.008c0-0.001,0-0.002,0-0.003         c0-0.002,0-0.004,0-0.005c0-0.002,0-0.002,0-0.004c0-0.002,0-0.005,0.001-0.007c0-0.001,0-0.002,0-0.004         c0-0.002,0-0.004,0-0.006c0-0.002,0-0.002,0-0.004c0-0.002,0-0.004,0-0.007c0-0.001,0-0.002,0-0.003         c0-0.003,0-0.005,0.001-0.008c0-0.001,0-0.002,0-0.003c0-0.002,0-0.004,0-0.005c0-0.001,0-0.002,0-0.003         c0-0.002,0-0.005,0.001-0.008c0-0.001,0-0.002,0-0.003c0-0.002,0-0.004,0-0.006c0-0.001,0-0.002,0-0.003         c0-0.002,0-0.004,0-0.007c0-0.001,0-0.003,0-0.004c0-0.003,0-0.005,0-0.008c0-0.001,0-0.002,0-0.003c0-0.002,0-0.004,0-0.006         c0-0.001,0-0.002,0-0.003c0-0.003,0-0.005,0.001-0.008c0-0.001,0-0.002,0-0.003c0-0.002,0-0.004,0-0.007         c0-0.001,0-0.002,0-0.003c0-0.002,0-0.005,0-0.007c0-0.001,0-0.002,0-0.003c0-0.003,0-0.005,0-0.008c0-0.001,0-0.002,0-0.003         c0-0.002,0-0.004,0-0.006c0-0.001,0-0.002,0-0.003c0-0.002,0-0.005,0-0.007c0-0.002,0-0.002,0-0.004c0-0.002,0-0.004,0-0.006         c0-0.001,0-0.003,0-0.004c0-0.002,0-0.004,0-0.007c0-0.001,0-0.003,0-0.004c0-0.003,0-0.005,0-0.008c0-0.001,0-0.002,0-0.003         c0-0.002,0-0.004,0-0.006c0-0.001,0-0.002,0-0.004c0-0.002,0-0.005,0-0.008c0-0.001,0-0.002,0-0.003c0-0.002,0-0.004,0-0.007         c0-0.001,0-0.002,0-0.003c0-0.002,0-0.005,0-0.007c0-0.001,0-0.002,0-0.003c0-0.003,0-0.005,0-0.008c0-0.001,0-0.002,0-0.003         c0-0.002,0-0.004,0-0.006c0-0.001,0-0.002,0-0.003c0-0.003,0-0.005,0-0.008c0-0.001,0-0.002,0-0.003c0-0.002,0-0.005,0-0.007         l0-0.002c0-0.003,0-0.005,0-0.008c0-0.001,0-0.002,0-0.003c0-0.003,0-0.005,0-0.008c0-0.001,0-0.001,0-0.002         c0-0.002,0-0.005,0-0.007c0-0.001,0-0.002,0-0.003c0-0.003,0-0.006,0-0.008c0-0.001,0-0.002,0-0.003c0-0.002,0-0.005,0-0.007         c0-0.001,0-0.001,0-0.003c0-0.003,0-0.005,0-0.008c0-0.001,0-0.002,0-0.003c0-0.003,0-0.005,0-0.008c0-0.001,0-0.002,0-0.003         c0-0.002,0-0.004,0-0.007c0-0.001,0-0.002,0-0.003c0-0.003,0-0.005,0-0.008c0-0.001,0-0.002,0-0.003c0-0.002,0-0.005,0-0.007         c0-0.001,0-0.001,0-0.001c0-0.003,0-0.006,0-0.008c0-0.001,0-0.002,0-0.003c0-0.003,0-0.005,0-0.008c0-0.001,0-0.002,0-0.003         c0-0.002,0-0.004,0-0.006c0-0.001,0-0.002,0-0.003c0-0.003,0-0.005,0-0.008c0-0.001,0-0.002,0-0.003c0-0.002,0-0.005,0-0.007         c0-0.001,0-0.002,0-0.002c0-0.003,0-0.005,0-0.008c0-0.001,0-0.002,0-0.003c0-0.003,0-0.005,0-0.008c0-0.001,0-0.002,0-0.003         c0-0.002,0-0.004,0-0.006c0-0.001,0-0.002,0-0.003c0-0.003,0-0.005,0-0.008c0-0.001,0-0.002,0-0.003c0-0.002,0-0.005,0-0.007         c0-0.001,0-0.001,0-0.002c0-0.003,0-0.005,0-0.007c0-0.001,0-0.002,0-0.003c0-0.003,0-0.005,0-0.008c0-0.001,0-0.002,0-0.003         c0-0.002,0-0.004,0-0.007c0-0.001,0-0.002,0-0.003c0-0.003,0-0.006,0-0.008c0-0.001,0-0.002,0-0.003c0-0.003,0-0.005,0-0.008         c0-0.001,0-0.001,0-0.002c0-0.003,0-0.005,0-0.008c0-0.001,0-0.002,0-0.003c0-0.003,0-0.005,0-0.008c0-0.001,0-0.002,0-0.003         c0-0.002,0-0.004,0-0.007c0-0.001,0-0.002,0-0.003c0-0.003,0-0.005,0-0.008c0-0.001,0-0.002,0-0.003c0-0.002,0-0.005,0-0.007         c0-0.001,0-0.002,0-0.002c0-0.003,0-0.005,0-0.008c0-0.001,0-0.002,0-0.003c0-0.003,0-0.005,0-0.008c0-0.001,0-0.002,0-0.003         c0-0.002,0-0.004,0-0.007c0-0.001,0-0.002,0-0.003c0-0.003,0-0.006,0-0.008l0-0.003c0-0.003,0-0.005,0-0.008c0-0.001,0,0,0,0         c0-0.003,0-0.006,0-0.009c0-0.001,0-0.002,0-0.003c0-0.003,0-0.005,0-0.008c0-0.001,0-0.002,0-0.003c0-0.002,0-0.005,0-0.007         c0-0.001,0-0.001,0-0.003c0-0.003,0-0.006,0-0.008c0-0.001,0-0.002,0-0.003c0-0.003,0-0.006,0-0.008l0,0         c0-0.003,0-0.006,0-0.009c0-0.001,0-0.001,0-0.003c0-0.003,0-0.006,0-0.009l0-0.002c0-0.003,0-0.005,0-0.008         c0-0.001,0-0.001,0-0.002c0-0.003,0-0.006,0-0.009c0,0,0-0.001,0-0.002c0-0.003,0-0.006,0-0.009l0,0c0-0.003,0-0.006,0-0.009         c0-0.001,0-0.001,0-0.001c0-0.004,0-0.007,0-0.01c0-0.001,0-0.001,0-0.001c0-0.003,0-0.006,0-0.009l0-0.001         c0-0.003,0-0.006,0-0.009c0-0.001,0-0.002,0-0.002c0-0.003,0-0.006,0-0.009l0,0c0-0.003,0-0.006,0-0.009         c0-0.001,0-0.002,0-0.002c0-0.003,0-0.006,0-0.009c0-0.001,0-0.001,0-0.002c0-0.002,0-0.005,0-0.007c0-0.001,0-0.001,0-0.002         c0-0.003,0-0.006,0-0.009c0,0,0-0.002,0-0.002c0-0.003,0-0.006,0-0.009l0,0c0-0.003,0-0.006,0-0.009c0-0.001,0-0.002,0-0.002         c0-0.003,0-0.006,0-0.009c0-0.001,0-0.001,0-0.002c0-0.003,0-0.005,0-0.008l0-0.002c0-0.003,0-0.006,0-0.009         c0-0.001,0-0.002,0-0.002c0-0.003,0-0.006,0-0.009l0-0.001c0-0.003,0-0.006,0-0.009c0-0.001,0-0.002,0-0.003         c0-0.003,0-0.006,0-0.009c0-0.001,0-0.001,0-0.002c0-0.003,0-0.005,0-0.008l0-0.002c0-0.003,0-0.006,0-0.009         c0-0.001,0-0.001,0-0.002c0-0.006,0-0.012,0-0.018c0-0.001,0-0.002,0-0.002c0-0.003,0-0.007,0-0.009c0-0.001,0-0.001,0-0.002         c0-0.003,0-0.005,0-0.008c0-0.001,0-0.001,0-0.002c0-0.003,0-0.006,0-0.009c0-0.001,0-0.002,0-0.002c0-0.003,0-0.006,0-0.009         l0,0c0-0.003,0-0.006,0-0.009l0-0.002c0-0.003,0-0.006,0-0.009l0-0.001c0-0.003,0-0.005,0-0.008c0-0.001,0-0.001,0-0.002         c0-0.003,0-0.006,0-0.009c0-0.001,0-0.001,0-0.001c0-0.007,0-0.013,0-0.019c0,0,0-0.001,0-0.002c0-0.003,0-0.006,0-0.009         l0-0.002c0-0.003,0-0.006,0-0.008l0-0.001c0-0.003,0-0.006,0-0.009l0-0.002c0-0.003,0-0.006,0-0.009v0         c0-0.003,0-0.006,0-0.009c0-0.001,0-0.002,0-0.002c0-0.003,0-0.006,0-0.009c0-0.001,0-0.001,0-0.002c0-0.003,0-0.005,0-0.008         c0-0.001,0-0.001,0-0.002c0-0.003,0-0.006,0-0.009c0,0,0-0.002,0-0.002c0-0.003,0-0.006,0-0.009l0,0c0-0.004,0-0.007,0-0.011         c0-0.001,0-0.001,0-0.001c0-0.004,0-0.007,0-0.011c0,0,0-0.002,0-0.002c0-0.003,0-0.006,0-0.01c0-0.001,0-0.002,0-0.003         c0-0.003,0-0.006,0-0.009c0-0.001,0-0.003,0-0.004c0-0.003,0-0.005,0-0.008c0-0.002,0-0.004,0-0.005c0-0.001,0-0.003,0-0.004         c0-0.003,0-0.006,0-0.009c0-0.001,0-0.001,0-0.002C32,15.883,31.999,15.845,31.999,15.807L31.999,15.807z M30.967,10.332         l-0.701,0.266c0.314,0.829,0.557,1.692,0.721,2.565l0.737-0.139c-0.023-0.123-0.048-0.246-0.074-0.368l0,0         c-0.001-0.004-0.002-0.007-0.002-0.011l0,0c-0.001-0.004-0.002-0.007-0.002-0.011l0,0c-0.002-0.007-0.003-0.014-0.005-0.021         l0-0.001c-0.001-0.003-0.001-0.007-0.002-0.01c0,0,0-0.001,0-0.001c-0.001-0.003-0.001-0.006-0.002-0.01c0,0,0-0.001,0-0.001         c-0.001-0.007-0.003-0.013-0.004-0.02c0-0.001,0,0,0-0.001c-0.001-0.003-0.001-0.006-0.002-0.01c0-0.001,0-0.001,0-0.001         c-0.001-0.004-0.001-0.007-0.002-0.01c0-0.001,0-0.002,0-0.002c-0.001-0.003-0.001-0.006-0.002-0.009         c0-0.001,0-0.001,0-0.001c-0.001-0.003-0.001-0.006-0.002-0.009l0-0.002c-0.001-0.003-0.001-0.006-0.002-0.008         c0-0.001,0-0.002-0.001-0.003c-0.001-0.003-0.001-0.006-0.002-0.008c0-0.001,0-0.002-0.001-0.003         c-0.001-0.003-0.001-0.005-0.002-0.008c0-0.001,0-0.002-0.001-0.003c-0.001-0.003-0.001-0.005-0.002-0.008         c0-0.001,0-0.002-0.001-0.003c-0.001-0.002-0.001-0.005-0.002-0.007c0-0.001,0-0.002-0.001-0.003         c-0.001-0.003-0.001-0.005-0.002-0.008c0-0.001-0.001-0.002-0.001-0.003c-0.001-0.003-0.001-0.005-0.002-0.008         c0-0.002,0-0.002-0.001-0.004c0-0.002-0.001-0.004-0.001-0.006c0-0.002-0.001-0.003-0.001-0.005         c0-0.002-0.001-0.004-0.001-0.006c0-0.002-0.001-0.004-0.001-0.005c0-0.002-0.001-0.003-0.001-0.005         c0-0.002-0.001-0.003-0.001-0.005c-0.001-0.002-0.001-0.005-0.002-0.007c0-0.002-0.001-0.003-0.001-0.005         c0-0.002-0.001-0.003-0.001-0.005c0-0.002-0.001-0.004-0.001-0.007c0-0.002-0.001-0.003-0.001-0.004         c0-0.002-0.001-0.005-0.002-0.007c0-0.001-0.001-0.003-0.001-0.004c-0.001-0.003-0.001-0.005-0.002-0.007         c0-0.001-0.001-0.002-0.001-0.004c0-0.002-0.001-0.003-0.001-0.005c0-0.001,0-0.002-0.001-0.003         c-0.001-0.003-0.001-0.006-0.002-0.008c0-0.001,0-0.002-0.001-0.003c-0.001-0.003-0.001-0.006-0.002-0.009         c0,0,0-0.001,0-0.002c-0.001-0.004-0.002-0.007-0.003-0.011c0,0,0,0,0,0c-0.001-0.006-0.003-0.012-0.004-0.018l0,0         c-0.001-0.004-0.002-0.007-0.003-0.011c0,0,0-0.001,0-0.001c-0.001-0.004-0.002-0.007-0.003-0.011l0,0         C31.407,11.616,31.207,10.965,30.967,10.332L30.967,10.332z M28.113,5.547l-0.568,0.49c0.581,0.673,1.106,1.4,1.56,2.161         l0.644-0.384C29.27,7.01,28.722,6.252,28.113,5.547L28.113,5.547z M23.796,2.024L23.43,2.679         c0.774,0.433,1.516,0.937,2.204,1.499l0.474-0.581c-0.631-0.515-1.302-0.983-2.008-1.398l0,0         c-0.003-0.002-0.006-0.004-0.009-0.005c0,0,0,0-0.001,0c-0.003-0.002-0.006-0.003-0.009-0.005l-0.001-0.001         c-0.003-0.002-0.005-0.003-0.008-0.005c0,0-0.001,0-0.001-0.001c-0.003-0.002-0.006-0.003-0.008-0.005l-0.001-0.001         c-0.003-0.002-0.005-0.003-0.008-0.005c0,0,0,0-0.001,0c-0.003-0.002-0.006-0.003-0.008-0.005c0,0-0.001-0.001-0.001-0.001         c-0.003-0.002-0.005-0.003-0.008-0.005c0,0-0.002-0.001-0.002-0.001c-0.003-0.001-0.005-0.003-0.008-0.004         c-0.001-0.001-0.002-0.001-0.002-0.001c-0.002-0.001-0.005-0.003-0.007-0.004c-0.001-0.001-0.001-0.001-0.002-0.001         c-0.002-0.001-0.005-0.003-0.007-0.004c-0.001-0.001-0.002-0.001-0.002-0.001C24.002,2.142,24,2.141,23.998,2.139         c-0.001-0.001-0.002-0.001-0.002-0.001c-0.003-0.002-0.005-0.003-0.008-0.004c-0.001-0.001-0.002-0.001-0.003-0.002         c-0.002-0.001-0.004-0.003-0.007-0.004c-0.001-0.001-0.003-0.002-0.003-0.002c-0.002-0.001-0.004-0.002-0.006-0.004         c-0.001-0.001-0.002-0.001-0.004-0.002c-0.002-0.001-0.003-0.002-0.005-0.003c-0.002-0.001-0.003-0.002-0.006-0.003         c-0.001-0.001-0.002-0.001-0.003-0.002c-0.002-0.001-0.005-0.003-0.007-0.004c-0.001-0.001-0.002-0.001-0.003-0.002         c-0.002-0.001-0.005-0.003-0.007-0.004c-0.001-0.001-0.002-0.001-0.003-0.002c-0.005-0.003-0.01-0.006-0.015-0.009         c0,0,0,0-0.001,0c-0.003-0.002-0.006-0.004-0.01-0.006c0,0,0,0,0,0c-0.004-0.002-0.007-0.004-0.01-0.006l0,0         C23.863,2.062,23.829,2.043,23.796,2.024L23.796,2.024z M18.532,0.199L18.415,0.94c0.877,0.139,1.747,0.358,2.584,0.648         l0.246-0.709c-0.223-0.077-0.448-0.15-0.675-0.217l-0.001,0c-0.004-0.001-0.007-0.002-0.011-0.003c0,0-0.001,0-0.001,0         c-0.004-0.001-0.007-0.002-0.011-0.003l0,0c-0.006-0.002-0.011-0.003-0.017-0.005c-0.001,0-0.001,0-0.002,0         c-0.003-0.001-0.007-0.002-0.01-0.003c-0.001,0-0.001,0-0.002-0.001c-0.003-0.001-0.007-0.002-0.01-0.003         c0,0-0.001,0-0.001,0c-0.006-0.002-0.011-0.003-0.017-0.005c-0.001,0-0.002-0.001-0.003-0.001         c-0.002-0.001-0.005-0.001-0.008-0.002c-0.001,0-0.003-0.001-0.004-0.001c-0.002-0.001-0.005-0.001-0.007-0.002         c-0.001,0-0.002-0.001-0.004-0.001c-0.002-0.001-0.005-0.001-0.007-0.002c-0.002,0-0.003-0.001-0.005-0.001         c-0.002-0.001-0.003-0.001-0.005-0.001c-0.002,0-0.003-0.001-0.005-0.001c-0.002-0.001-0.004-0.001-0.006-0.002         c-0.002,0-0.003-0.001-0.005-0.001c-0.002-0.001-0.004-0.001-0.006-0.002c-0.002,0-0.003-0.001-0.005-0.001         c-0.001,0-0.003-0.001-0.005-0.001c-0.002-0.001-0.004-0.001-0.007-0.002c-0.001,0-0.003-0.001-0.004-0.001         c-0.002-0.001-0.005-0.001-0.007-0.002c-0.001,0-0.002-0.001-0.004-0.001C20.392,0.61,20.39,0.61,20.387,0.609         c-0.001,0-0.002-0.001-0.003-0.001c-0.002-0.001-0.005-0.001-0.007-0.002c-0.001,0-0.002-0.001-0.003-0.001         c-0.003-0.001-0.005-0.002-0.008-0.002c-0.001,0-0.002-0.001-0.003-0.001c-0.003-0.001-0.005-0.001-0.008-0.002         c-0.001,0-0.002-0.001-0.003-0.001c-0.003-0.001-0.005-0.001-0.008-0.002c-0.001,0-0.002,0-0.003-0.001         c-0.002-0.001-0.005-0.001-0.007-0.002c-0.001,0-0.001,0-0.002-0.001c-0.003-0.001-0.006-0.002-0.008-0.002l-0.003-0.001         c-0.003-0.001-0.005-0.002-0.008-0.002c-0.001,0-0.002,0-0.003-0.001c-0.003-0.001-0.006-0.002-0.008-0.002         c-0.001,0-0.001,0-0.002-0.001c-0.003-0.001-0.005-0.002-0.008-0.002c0,0-0.001,0-0.001,0         c-0.003-0.001-0.006-0.002-0.009-0.003c0,0-0.001,0-0.002,0c-0.003-0.001-0.006-0.002-0.009-0.002         c-0.001,0-0.001,0-0.002-0.001c-0.003-0.001-0.006-0.002-0.009-0.002l-0.002,0c-0.003-0.001-0.006-0.002-0.009-0.003         l-0.001,0c-0.003-0.001-0.006-0.002-0.01-0.003l-0.001,0c-0.003-0.001-0.006-0.002-0.01-0.003c0,0-0.001,0-0.001,0         c-0.004-0.001-0.007-0.002-0.01-0.003l0,0C19.667,0.412,19.105,0.29,18.532,0.199L18.532,0.199z" fill="#E21B1B"/></g></g></g></g></g></g><g><path d="M13.892,24.123h3.357v-8.124h2.239l0.297-2.799h-2.536l0.003-1.402c0-0.73,0.07-1.121,1.117-1.121h1.4v-2.8h-2.24    c-2.69,0-3.637,1.358-3.637,3.642V13.2h-1.677V16h1.677V24.123z"/></g></g></svg>