<?xml version="1.0" ?><svg enable-background="new 0 0 32 32" version="1.1" viewBox="0 0 32 32" xml:space="preserve" xmlns="http://www.w3.org/2000/svg" xmlns:xlink="http://www.w3.org/1999/xlink"><g id="stiches"><g><g id="Shopping_10_137_"><g><g><g><g><g><path d="M16,2.115C8.332,2.115,2.115,8.332,2.115,16S8.332,29.885,16,29.885S29.885,23.668,29.885,16          S23.668,2.115,16,2.115L16,2.115z" fill="#FFFFFF"/><path d="M16,30.259C8.137,30.259,1.74,23.863,1.74,16c0-7.863,6.397-14.26,14.26-14.26          S30.259,8.137,30.259,16C30.259,23.863,23.863,30.259,16,30.259z M16,2.491C8.551,2.491,2.49,8.551,2.49,16          S8.551,29.509,16,29.509c7.449,0,13.509-6.06,13.509-13.509S23.449,2.491,16,2.491z" fill="#CCCCCC"/></g></g></g></g></g></g><g><g><g><g><g><path d="M16,0c-0.003,0-0.007,0-0.01,0c0,0-0.001,0-0.002,0c-0.003,0-0.006,0-0.01,0         c-0.001,0-0.001,0-0.001,0c-0.004,0-0.007,0-0.01,0h-0.001c-0.003,0-0.006,0-0.009,0c-0.001,0-0.001,0-0.001,0         c-0.003,0-0.007,0-0.01,0h-0.002c-0.003,0-0.006,0-0.01,0c0,0-0.001,0-0.002,0c-0.003,0-0.007,0-0.01,0h0         c-0.003,0-0.007,0-0.01,0L15.91,0c-0.003,0-0.007,0-0.01,0C15.9,0,15.9,0,15.899,0c-0.003,0-0.007,0-0.01,0l-0.001,0         c-0.003,0-0.007,0-0.01,0h0c-0.003,0-0.007,0-0.01,0c-0.001,0-0.001,0-0.002,0c-0.003,0-0.007,0-0.01,0l-0.001,0         c-0.003,0-0.007,0-0.01,0c-0.001,0,0,0,0,0c-0.003,0-0.007,0-0.01,0l-0.001,0c-0.003,0-0.007,0-0.01,0c0,0-0.001,0-0.002,0         c-0.003,0-0.007,0-0.01,0l-0.001,0c-0.007,0-0.014,0-0.021,0l-0.001,0c-0.003,0-0.007,0-0.01,0c0,0-0.001,0-0.001,0         c-0.003,0-0.007,0-0.01,0l0,0c-0.004,0-0.007,0-0.011,0c0,0,0,0-0.001,0c-0.003,0-0.007,0-0.01,0l-0.001,0         c-0.003,0-0.007,0-0.01,0c-0.001,0-0.001,0-0.001,0c-0.007,0-0.014,0-0.021,0l-0.001,0c-0.003,0-0.007,0-0.01,0l-0.001,0         c-0.004,0-0.007,0-0.01,0l0,0c-0.007,0-0.014,0-0.021,0c-0.001,0-0.001,0-0.001,0c-0.003,0-0.007,0-0.01,0c0,0,0,0-0.001,0         c-0.004,0-0.007,0-0.011,0h0c-0.004,0-0.007,0-0.011,0l-0.001,0c-0.003,0-0.007,0-0.01,0l-0.001,0c-0.004,0-0.007,0-0.011,0         l0,0c-0.007,0-0.015,0-0.022,0.001l0,0c-0.004,0-0.007,0-0.011,0c0,0,0,0,0,0c-0.011,0-0.022,0.001-0.033,0.001l0,0         c-0.011,0-0.022,0.001-0.033,0.001h0c-0.004,0-0.007,0-0.011,0l0,0c-0.011,0-0.022,0.001-0.033,0.001l0,0         c-0.015,0-0.029,0.001-0.044,0.001l0,0c-0.751,0.027-1.488,0.105-2.209,0.232l0.13,0.739C14.214,0.828,15.108,0.75,16,0.75V0         L16,0L16,0z M10.513,0.966c-0.129,0.047-0.257,0.096-0.385,0.146l0,0c-0.013,0.005-0.026,0.01-0.039,0.016l-0.001,0         c-0.004,0.002-0.007,0.003-0.011,0.004l-0.001,0c-0.003,0.001-0.007,0.003-0.01,0.004l-0.001,0.001         c-0.003,0.001-0.006,0.003-0.01,0.004l-0.002,0.001c-0.006,0.002-0.011,0.004-0.016,0.007c0,0-0.001,0.001-0.002,0.001         c-0.003,0.001-0.006,0.002-0.009,0.004c-0.001,0-0.001,0.001-0.001,0.001c-0.004,0.001-0.007,0.003-0.01,0.004         c-0.001,0-0.001,0.001-0.001,0.001c-0.003,0.001-0.006,0.003-0.009,0.004c-0.001,0-0.002,0.001-0.002,0.001         c-0.003,0.001-0.004,0.002-0.006,0.002C9.995,1.165,9.993,1.166,9.992,1.166C9.99,1.167,9.988,1.168,9.987,1.168         c-0.001,0-0.002,0.001-0.003,0.001C9.981,1.171,9.978,1.172,9.976,1.173c-0.001,0-0.002,0.001-0.004,0.001         C9.97,1.175,9.968,1.176,9.966,1.177C9.964,1.177,9.963,1.178,9.962,1.179C9.96,1.179,9.958,1.18,9.956,1.181         C9.954,1.182,9.953,1.182,9.951,1.183C9.95,1.184,9.948,1.184,9.947,1.185C9.945,1.186,9.943,1.186,9.941,1.187         C9.939,1.188,9.937,1.189,9.936,1.189C9.934,1.19,9.933,1.191,9.931,1.191C9.929,1.192,9.927,1.193,9.926,1.193         C9.924,1.194,9.923,1.195,9.921,1.195C9.919,1.196,9.917,1.197,9.915,1.198C9.914,1.198,9.912,1.199,9.911,1.2         C9.909,1.2,9.908,1.201,9.906,1.201C9.904,1.202,9.902,1.203,9.9,1.204C9.899,1.204,9.897,1.205,9.896,1.206         C9.894,1.206,9.892,1.207,9.89,1.208C9.888,1.209,9.887,1.209,9.886,1.21C9.884,1.211,9.882,1.212,9.88,1.212         C9.878,1.213,9.877,1.214,9.875,1.214C9.873,1.215,9.872,1.216,9.87,1.216C9.868,1.217,9.867,1.218,9.865,1.218         C9.863,1.219,9.862,1.22,9.86,1.221C9.858,1.221,9.857,1.222,9.855,1.223C9.853,1.223,9.851,1.224,9.849,1.225         C9.848,1.226,9.847,1.226,9.846,1.226C9.843,1.227,9.841,1.228,9.839,1.229c-0.001,0-0.003,0.001-0.004,0.002         C9.833,1.232,9.83,1.233,9.828,1.234c-0.001,0-0.002,0.001-0.003,0.001C9.823,1.236,9.821,1.237,9.819,1.238         C9.817,1.238,9.816,1.239,9.815,1.239C9.813,1.24,9.811,1.241,9.809,1.242c-0.001,0-0.002,0.001-0.003,0.001         C9.803,1.244,9.801,1.245,9.798,1.246c-0.001,0-0.002,0.001-0.003,0.001C9.793,1.249,9.79,1.25,9.788,1.251         c-0.001,0-0.002,0.001-0.003,0.001C9.782,1.253,9.78,1.254,9.777,1.255c-0.001,0-0.001,0.001-0.002,0.001         C9.772,1.257,9.77,1.258,9.767,1.26c0,0-0.001,0-0.001,0C9.763,1.261,9.76,1.262,9.758,1.264c-0.001,0-0.001,0-0.002,0.001         C9.753,1.266,9.75,1.267,9.747,1.268c0,0-0.002,0.001-0.002,0.001C9.742,1.27,9.74,1.271,9.737,1.272         c-0.001,0-0.001,0.001-0.002,0.001C9.732,1.274,9.729,1.276,9.726,1.277c0,0-0.001,0-0.002,0.001         C9.722,1.279,9.719,1.28,9.716,1.281c0,0-0.001,0-0.001,0.001C9.712,1.283,9.709,1.284,9.707,1.285c0,0-0.001,0-0.001,0.001         C9.703,1.287,9.7,1.288,9.697,1.289L9.695,1.29C9.692,1.292,9.689,1.293,9.687,1.294c0,0-0.001,0.001-0.001,0.001         C9.682,1.296,9.679,1.297,9.676,1.298L9.675,1.299C9.672,1.3,9.669,1.302,9.666,1.303l-0.001,0         C9.662,1.304,9.659,1.306,9.657,1.307c0,0-0.001,0-0.002,0.001C9.652,1.309,9.649,1.31,9.646,1.311         c0,0-0.001,0.001-0.001,0.001C9.642,1.313,9.639,1.314,9.636,1.316c0,0-0.001,0.001-0.001,0.001         C9.632,1.318,9.629,1.319,9.626,1.32c0,0-0.001,0-0.001,0.001C9.621,1.322,9.618,1.323,9.615,1.325l-0.001,0         C9.612,1.326,9.609,1.328,9.606,1.329c0,0,0,0-0.001,0C9.602,1.331,9.599,1.332,9.596,1.333c0,0,0,0,0,0         c-0.004,0.002-0.007,0.003-0.01,0.004c0,0-0.001,0-0.001,0C9.582,1.339,9.578,1.341,9.576,1.342c0,0-0.001,0-0.001,0         c-0.004,0.002-0.007,0.003-0.01,0.004l0,0C9.562,1.348,9.559,1.349,9.556,1.351c0,0,0,0,0,0         c-0.003,0.002-0.006,0.003-0.01,0.004c0,0-0.001,0-0.001,0.001C9.542,1.357,9.539,1.358,9.536,1.36         c0,0-0.001,0.001-0.002,0.001C9.531,1.362,9.528,1.363,9.525,1.364l-0.001,0c-0.01,0.004-0.019,0.009-0.029,0.013         c0,0,0,0-0.001,0C9.491,1.379,9.488,1.381,9.485,1.382l-0.001,0c-0.003,0.001-0.006,0.003-0.01,0.004l0,0         c-0.01,0.004-0.02,0.009-0.03,0.013l0,0c-0.003,0.001-0.006,0.003-0.01,0.004l0,0C9.422,1.411,9.408,1.417,9.395,1.423l0,0         c-0.003,0.001-0.006,0.003-0.01,0.004l0,0C9.382,1.429,9.379,1.43,9.375,1.432l0,0C9.362,1.438,9.349,1.444,9.335,1.45l0,0         c-0.013,0.006-0.026,0.012-0.04,0.018l0,0C8.846,1.676,8.407,1.904,7.98,2.152l0.376,0.649         c0.769-0.446,1.58-0.826,2.413-1.13L10.513,0.966L10.513,0.966z M5.693,3.761C5.306,4.088,4.934,4.433,4.579,4.795l0,0         C4.576,4.797,4.574,4.8,4.572,4.802l0,0C4.564,4.81,4.556,4.818,4.549,4.826l0,0C4.546,4.828,4.544,4.831,4.541,4.833         c0,0-0.001,0.001-0.001,0.001C4.538,4.837,4.536,4.839,4.533,4.841c0,0,0,0-0.001,0.001C4.53,4.844,4.528,4.847,4.526,4.849         c0,0,0,0-0.001,0.001C4.52,4.855,4.516,4.86,4.511,4.864c0,0-0.001,0.001-0.001,0.001C4.508,4.868,4.506,4.87,4.503,4.872         c0,0-0.001,0.001-0.001,0.001C4.5,4.876,4.498,4.878,4.496,4.88C4.495,4.881,4.495,4.881,4.495,4.881         C4.492,4.884,4.49,4.886,4.488,4.888L4.487,4.889C4.485,4.892,4.482,4.894,4.48,4.896c0,0-0.001,0.001-0.001,0.001         C4.477,4.899,4.475,4.902,4.473,4.904c0,0-0.001,0.001-0.001,0.001C4.47,4.907,4.468,4.909,4.466,4.911         C4.465,4.912,4.465,4.912,4.464,4.913C4.462,4.915,4.46,4.917,4.458,4.919c0,0-0.001,0.001-0.002,0.002         C4.454,4.923,4.452,4.925,4.45,4.927C4.45,4.928,4.449,4.928,4.449,4.929C4.447,4.931,4.445,4.933,4.443,4.935         C4.442,4.936,4.442,4.936,4.441,4.937C4.439,4.939,4.437,4.941,4.435,4.943C4.435,4.944,4.434,4.944,4.433,4.945         C4.432,4.947,4.43,4.949,4.428,4.95C4.427,4.951,4.427,4.952,4.426,4.952C4.424,4.954,4.423,4.956,4.421,4.958         C4.42,4.959,4.42,4.959,4.419,4.961C4.417,4.962,4.415,4.964,4.413,4.966C4.412,4.967,4.411,4.968,4.411,4.969         C4.409,4.971,4.407,4.973,4.405,4.974C4.404,4.976,4.404,4.976,4.403,4.977C4.401,4.979,4.399,4.981,4.398,4.983         C4.397,4.983,4.396,4.984,4.395,4.985C4.394,4.987,4.392,4.988,4.391,4.989C4.39,4.991,4.389,4.992,4.388,4.993         C4.386,4.995,4.385,4.996,4.383,4.998C4.383,4.998,4.381,5,4.381,5C4.379,5.002,4.377,5.004,4.376,5.006         C4.375,5.007,4.374,5.007,4.373,5.008C4.371,5.01,4.37,5.012,4.368,5.014C4.367,5.015,4.366,5.016,4.365,5.017         C4.364,5.019,4.362,5.02,4.36,5.022C4.359,5.023,4.358,5.024,4.357,5.025C4.356,5.026,4.355,5.028,4.353,5.03         C4.352,5.031,4.351,5.032,4.35,5.033C4.349,5.034,4.347,5.036,4.346,5.037C4.345,5.038,4.344,5.04,4.342,5.041         C4.341,5.042,4.34,5.044,4.338,5.045C4.337,5.046,4.337,5.047,4.336,5.048C4.334,5.05,4.332,5.051,4.331,5.053         C4.33,5.054,4.329,5.055,4.328,5.057C4.326,5.058,4.325,5.06,4.323,5.061C4.322,5.063,4.321,5.064,4.32,5.065         C4.319,5.066,4.317,5.067,4.316,5.069C4.315,5.07,4.314,5.072,4.312,5.073C4.311,5.074,4.31,5.075,4.309,5.076         C4.308,5.078,4.306,5.08,4.305,5.081C4.304,5.082,4.303,5.083,4.302,5.085C4.3,5.086,4.298,5.088,4.297,5.09         C4.296,5.091,4.295,5.092,4.294,5.093C4.293,5.094,4.292,5.095,4.291,5.096C4.289,5.098,4.287,5.1,4.286,5.101         C4.285,5.102,4.284,5.104,4.283,5.105C4.281,5.106,4.28,5.108,4.278,5.109C4.277,5.111,4.276,5.112,4.275,5.113         C4.274,5.114,4.273,5.115,4.272,5.116C4.271,5.118,4.269,5.12,4.267,5.122C4.266,5.122,4.265,5.123,4.265,5.124         C4.263,5.126,4.261,5.128,4.259,5.13C4.259,5.131,4.258,5.132,4.257,5.132C4.255,5.135,4.253,5.136,4.251,5.139         C4.251,5.139,4.25,5.14,4.25,5.14C4.247,5.144,4.245,5.146,4.242,5.149c0,0,0,0,0,0C4.24,5.151,4.239,5.152,4.238,5.153         C4.237,5.154,4.237,5.155,4.236,5.155C4.234,5.157,4.232,5.16,4.23,5.162C4.229,5.162,4.229,5.163,4.228,5.164         C4.226,5.166,4.224,5.168,4.222,5.17C4.222,5.171,4.221,5.172,4.22,5.172C4.218,5.175,4.216,5.176,4.214,5.179         C4.214,5.179,4.213,5.18,4.213,5.18C4.211,5.183,4.208,5.185,4.206,5.188c0,0-0.001,0.001-0.001,0.001         C4.201,5.193,4.197,5.197,4.193,5.202c0,0-0.001,0.001-0.001,0.001C4.19,5.205,4.188,5.208,4.185,5.211         c0,0-0.001,0.001-0.001,0.001C4.182,5.214,4.18,5.217,4.177,5.219L4.176,5.22C4.174,5.223,4.172,5.225,4.169,5.228         c0,0-0.001,0.001-0.001,0.001C4.166,5.232,4.164,5.234,4.162,5.236c0,0.001-0.001,0.001-0.001,0.002         C4.159,5.239,4.158,5.24,4.157,5.242C4.156,5.242,4.155,5.243,4.155,5.244C4.153,5.246,4.151,5.248,4.149,5.25         C4.148,5.251,4.148,5.252,4.147,5.252C4.145,5.254,4.143,5.257,4.141,5.259c0,0-0.001,0.001-0.002,0.002         C4.137,5.263,4.135,5.265,4.133,5.268C4.133,5.268,4.132,5.269,4.132,5.269C4.13,5.272,4.127,5.274,4.125,5.277         c0,0-0.001,0.001-0.001,0.001c-0.007,0.007-0.013,0.014-0.02,0.022c0,0-0.001,0.001-0.001,0.001         C4.101,5.303,4.099,5.306,4.097,5.308L4.096,5.309C4.094,5.312,4.091,5.315,4.089,5.317c0,0-0.001,0.001-0.001,0.001         C4.081,5.325,4.075,5.332,4.068,5.34l0,0C4.065,5.343,4.063,5.346,4.061,5.349c0,0-0.001,0.001-0.001,0.001         C4.058,5.352,4.055,5.355,4.053,5.357L4.052,5.358C4.049,5.361,4.047,5.363,4.045,5.366L4.044,5.367         C4.037,5.375,4.031,5.382,4.025,5.389c0,0-0.001,0.001-0.001,0.001C4.021,5.393,4.019,5.395,4.017,5.398L4.016,5.399         C4.013,5.402,4.011,5.404,4.008,5.407l0,0C3.999,5.418,3.99,5.428,3.981,5.439c0,0,0,0-0.001,0.001         C3.978,5.442,3.976,5.444,3.973,5.447c0,0-0.001,0.001-0.001,0.001C3.97,5.451,3.968,5.453,3.965,5.456         c0,0-0.001,0.001-0.001,0.001c-0.01,0.011-0.018,0.021-0.027,0.031c0,0,0,0-0.001,0.001C3.934,5.492,3.932,5.494,3.929,5.497         c0,0,0,0,0,0.001C3.926,5.501,3.924,5.503,3.922,5.506c0,0,0,0,0,0C3.917,5.511,3.914,5.515,3.91,5.52         c0,0-0.001,0.001-0.001,0.001C3.907,5.524,3.904,5.526,3.902,5.529C3.902,5.529,3.901,5.53,3.9,5.531         C3.899,5.533,3.896,5.535,3.895,5.537C3.894,5.538,3.893,5.539,3.893,5.539C3.891,5.542,3.889,5.544,3.887,5.546         C3.886,5.547,3.886,5.547,3.885,5.548C3.883,5.55,3.881,5.553,3.879,5.555C3.879,5.556,3.878,5.556,3.878,5.557         C3.876,5.559,3.873,5.562,3.871,5.565c0,0,0,0.001-0.001,0.001C3.869,5.567,3.868,5.568,3.867,5.57         c0,0-0.001,0.001-0.001,0.001C3.863,5.574,3.861,5.576,3.859,5.579c0,0-0.001,0.001-0.001,0.001         C3.856,5.582,3.854,5.585,3.852,5.587C3.851,5.588,3.85,5.589,3.85,5.589C3.848,5.591,3.846,5.594,3.844,5.596         C3.843,5.597,3.843,5.597,3.842,5.598C3.836,5.605,3.83,5.613,3.824,5.62c0,0.001-0.001,0.001-0.001,0.001         C3.82,5.624,3.818,5.626,3.816,5.629C3.816,5.629,3.815,5.63,3.815,5.63C3.813,5.633,3.811,5.635,3.809,5.637         C3.808,5.638,3.808,5.639,3.807,5.64C3.805,5.642,3.803,5.644,3.801,5.646C3.801,5.647,3.8,5.648,3.8,5.648         C3.798,5.65,3.796,5.653,3.794,5.655c0,0-0.001,0.002-0.002,0.002C3.791,5.659,3.79,5.66,3.789,5.661         C3.788,5.662,3.787,5.663,3.786,5.664C3.784,5.666,3.783,5.668,3.781,5.67C3.78,5.671,3.78,5.672,3.779,5.673         C3.777,5.675,3.776,5.677,3.774,5.678C3.773,5.679,3.772,5.68,3.772,5.681C3.77,5.683,3.768,5.685,3.767,5.687         C3.766,5.688,3.765,5.689,3.764,5.69C3.763,5.692,3.761,5.694,3.759,5.696C3.758,5.697,3.758,5.698,3.757,5.698         C3.756,5.7,3.755,5.701,3.754,5.703C3.753,5.704,3.752,5.705,3.751,5.706C3.749,5.708,3.748,5.709,3.746,5.711         C3.745,5.712,3.745,5.713,3.744,5.714C3.742,5.716,3.74,5.718,3.739,5.72C3.738,5.721,3.737,5.722,3.737,5.723         C3.735,5.725,3.734,5.726,3.732,5.729C3.731,5.73,3.73,5.731,3.729,5.732C3.728,5.734,3.726,5.735,3.724,5.737         C3.724,5.738,3.723,5.739,3.722,5.74C3.721,5.741,3.721,5.742,3.72,5.743l0.575,0.481c0.57-0.681,1.203-1.317,1.882-1.889         L5.693,3.761L5.693,3.761z M2.12,8.036C1.657,8.84,1.263,9.689,0.944,10.573l0.706,0.254C1.95,9.994,2.327,9.18,2.77,8.41         L2.12,8.036L2.12,8.036z M0.231,13.277c-0.092,0.537-0.157,1.084-0.195,1.638l0,0c0,0.004-0.001,0.008-0.001,0.013l0,0         c0,0.006-0.001,0.012-0.001,0.019c0,0,0,0.001,0,0.001c0,0.005-0.001,0.008-0.001,0.012l0,0c0,0.006-0.001,0.012-0.001,0.019         c0,0,0,0,0,0c0,0.004,0,0.008-0.001,0.012c0,0,0,0.001,0,0.001c0,0.006-0.001,0.012-0.001,0.019c0,0,0,0.001,0,0.001         c0,0.004,0,0.007-0.001,0.011c0,0.001,0,0.002,0,0.002c0,0.004,0,0.008-0.001,0.012l0,0c0,0.002,0,0.004,0,0.006         c0,0.001,0,0.001,0,0.002c0,0.003,0,0.007-0.001,0.01c0,0.001,0,0.001,0,0.002c0,0.003,0,0.007-0.001,0.01         c0,0.001,0,0.001,0,0.001c0,0.003,0,0.004,0,0.006c0,0.001,0,0.002,0,0.003c0,0.003,0,0.006,0,0.009c0,0.001,0,0.002,0,0.003         c0,0.003,0,0.006,0,0.009c0,0.001,0,0.002,0,0.003c0,0.002,0,0.003,0,0.005c0,0.001,0,0.003,0,0.004c0,0.003,0,0.005,0,0.008         c0,0.001,0,0.002,0,0.003c0,0.003,0,0.005,0,0.008c0,0.001,0,0.002,0,0.004c0,0.002,0,0.003,0,0.005c0,0.001,0,0.002,0,0.004         c0,0.003,0,0.005,0,0.008c0,0.001,0,0.003,0,0.004c0,0.003,0,0.004,0,0.007c0,0.002,0,0.003,0,0.005c0,0.002,0,0.003,0,0.004         c0,0.002,0,0.005,0,0.007c0,0.002,0,0.003,0,0.004c0,0.002,0,0.003,0,0.005c0,0.002,0,0.005,0,0.007c0,0.002,0,0.003,0,0.005         c0,0.002,0,0.003,0,0.005c0,0.002,0,0.005,0,0.007c0,0.002,0,0.003,0,0.005c0,0.001,0,0.003,0,0.004c0,0.002,0,0.005,0,0.007         c0,0.002,0,0.003,0,0.005c0,0.002,0,0.003,0,0.005c0,0.002,0,0.005,0,0.007c0,0.002,0,0.003,0,0.005c0,0.001,0,0.003,0,0.004         c0,0.002,0,0.005,0,0.007c0,0.001,0,0.003,0,0.004c0,0.002,0,0.003,0,0.005c0,0.002,0,0.005,0,0.007c0,0.002,0,0.003,0,0.004         c0,0.002,0,0.004,0,0.006c0,0.002,0,0.004,0,0.006c0,0.002,0,0.003,0,0.005c0,0.002,0,0.003,0,0.004c0,0.002,0,0.005,0,0.007         c0,0.002,0,0.003,0,0.005c0,0.002,0,0.004,0,0.005c0,0.002,0,0.004,0,0.006c0,0.002,0,0.004,0,0.005c0,0.001,0,0.003,0,0.004         c0,0.003,0,0.005,0,0.008c0,0.001,0,0.003,0,0.004c0,0.002,0,0.004,0,0.007c0,0.002,0,0.003,0,0.005c0,0.002,0,0.004,0,0.005         c0,0.001,0,0.003,0,0.004c0,0.002,0,0.005,0,0.007c0,0.001,0,0.003,0,0.004c0,0.003,0,0.005,0,0.008c0,0.001,0,0.002,0,0.003         c0,0.002,0,0.004,0,0.006c0,0.002,0,0.004,0,0.005c0,0.002,0,0.004,0,0.006c0,0.001,0,0.003,0,0.004c0,0.003,0,0.005,0,0.008         c0,0.001,0,0.003,0,0.004c0,0.002,0,0.004,0,0.006c0,0.002,0,0.003,0,0.004c0,0.002,0,0.005,0,0.007c0,0.001,0,0.003,0,0.004         c0,0.003,0,0.005,0,0.008c0,0.002,0,0.002,0,0.004c0,0.002,0,0.004,0,0.006c0,0.002,0,0.003,0,0.005c0,0.002,0,0.004,0,0.006         c0,0.001,0,0.002,0,0.004c0,0.003,0,0.005,0,0.008c0,0.002,0,0.002,0,0.003c0,0.002,0,0.005,0,0.007c0,0.001,0,0.002,0,0.003         c0,0.002,0,0.005,0,0.007c0,0.002,0,0.002,0,0.003c0,0.003,0,0.006,0,0.008c0,0.001,0,0.002,0,0.003c0,0.003,0,0.005,0,0.008         c0,0.001,0,0.002,0,0.003c0,0.002,0,0.005,0,0.007c0,0.001,0,0.002,0,0.003c0,0.003,0,0.006,0,0.008c0,0.001,0,0.002,0,0.003         c0,0.003,0,0.006,0,0.009c0,0,0,0.002,0,0.002c0,0.003,0,0.005,0,0.008c0,0.001,0,0.002,0,0.003c0,0.003,0,0.006,0,0.009         c0,0.001,0,0.002,0,0.003c0,0.003,0,0.006,0,0.009c0,0.001,0,0.001,0,0.002c0,0.003,0,0.006,0,0.009c0,0.001,0,0.001,0,0.001         c0,0.004,0,0.007,0,0.01c0,0.001,0,0.001,0,0.002c0,0.003,0,0.006,0,0.009c0,0.001,0,0.001,0,0.002c0,0.003,0,0.006,0,0.008         c0,0,0,0.001,0,0.002c0,0.003,0,0.006,0,0.009c0,0.001,0,0.001,0,0.003c0,0.003,0,0.006,0,0.009c0,0.001,0,0.002,0,0.003         c0,0.003,0,0.005,0,0.008c0,0.001,0,0.001,0,0.002c0,0.003,0,0.006,0,0.009c0,0.001,0,0.001,0,0.003c0,0.003,0,0.006,0,0.009         c0,0.001,0,0.001,0,0.001c0,0.003,0,0.006,0,0.009c0,0.001,0,0.001,0,0.001c0,0.004,0,0.007,0,0.01c0,0.001,0,0.002,0,0.002         c0,0.003,0,0.006,0,0.009c0,0,0,0.002,0,0.002c0,0.003,0,0.006,0,0.009l0,0.001c0,0.003,0,0.006,0,0.009l0,0.002         c0,0.003,0,0.006,0,0.009c0,0.001,0,0.002,0,0.002c0,0.004,0,0.007,0,0.01c0,0,0,0,0,0.001c0,0.003,0,0.006,0,0.009l0,0.002         c0,0.003,0,0.006,0,0.009c0,0,0,0.001,0,0.002c0,0.003,0,0.006,0,0.01l0,0c0,0.003,0,0.006,0,0.01c0,0.001,0,0.001,0,0.002         c0,0.003,0,0.006,0,0.009c0,0.001,0,0.002,0,0.002c0,0.004,0,0.007,0,0.01c0,0,0,0.001,0,0.001c0,0.003,0,0.006,0,0.009         l0,0.002c0,0.003,0,0.006,0,0.009c0,0.001,0,0.001,0,0.002c0,0.003,0,0.006,0,0.009c0,0.001,0,0.001,0,0.001         c0,0.004,0,0.007,0,0.01c0,0.001,0,0.001,0,0.001c0,0.003,0,0.006,0,0.009c0,0.001,0,0.001,0,0.002c0,0.003,0,0.006,0,0.009         l0,0.001c0,0.003,0,0.006,0,0.009c0,0.001,0,0.001,0,0.001c0,0.003,0,0.006,0,0.009c0,0,0,0.002,0,0.002         c0,0.003,0,0.006,0,0.009c0,0.001,0,0.001,0,0.001c0,0.003,0,0.006,0,0.009c0,0.001,0,0,0,0.001c0,0.003,0,0.006,0,0.01         c0,0.001,0,0.001,0,0.001c0,0.004,0,0.007,0,0.01c0,0,0,0.001,0,0.002c0,0.003,0,0.006,0,0.009c0,0.001,0,0,0,0         c0,0.004,0,0.007,0,0.01c0,0,0,0.001,0,0.002c0,0.003,0,0.006,0,0.009c0,0.001,0,0.001,0,0.002c0,0.003,0,0.007,0,0.01l0,0         c0,0.002,0,0.005,0,0.007c0,0.002,0,0.002,0,0.004c0,0.001,0,0.002,0,0.003c0,0.002,0,0.004,0,0.006l0,0         c0,0.008,0,0.016,0,0.024c0,0.001,0,0.002,0,0.003c0,0,0,0.002,0,0.002c0,0.005,0,0.01,0,0.015l0.75-0.003l0-0.062         c0-0.871,0.074-1.745,0.22-2.596L0.231,13.277L0.231,13.277z M0.991,18.717L0.253,18.85c0.018,0.098,0.036,0.196,0.056,0.293         c0,0.001,0,0,0,0c0.001,0.003,0.001,0.007,0.002,0.01c0,0.001,0,0,0,0.001c0.002,0.01,0.004,0.021,0.006,0.031         c0,0.001,0,0.001,0,0.001c0.001,0.003,0.001,0.006,0.002,0.009c0,0.001,0,0.001,0,0.002c0.001,0.003,0.001,0.006,0.002,0.009         c0,0,0,0.001,0,0.002c0.001,0.003,0.001,0.006,0.002,0.01l0,0c0.001,0.003,0.001,0.006,0.002,0.01l0,0.001         c0.001,0.003,0.001,0.006,0.002,0.009c0,0.001,0,0.002,0.001,0.003c0.001,0.003,0.001,0.006,0.002,0.008         c0,0.001,0,0.002,0,0.002c0.001,0.003,0.001,0.006,0.002,0.008c0,0.002,0,0.002,0.001,0.004c0,0.002,0.001,0.004,0.001,0.007         c0,0.001,0,0.002,0.001,0.003c0.001,0.003,0.001,0.005,0.002,0.008c0,0.002,0,0.002,0.001,0.004         c0.001,0.002,0.001,0.005,0.002,0.007c0,0.001,0.001,0.003,0.001,0.004c0,0.002,0.001,0.004,0.001,0.007         c0,0.002,0.001,0.003,0.001,0.005c0,0.002,0.001,0.004,0.001,0.005c0,0.002,0.001,0.003,0.001,0.005         c0,0.002,0.001,0.004,0.001,0.005c0,0.002,0.001,0.003,0.001,0.005c0,0.002,0.001,0.004,0.001,0.006         c0,0.002,0.001,0.003,0.001,0.005c0,0.001,0.001,0.003,0.001,0.004c0.001,0.003,0.001,0.005,0.002,0.008         c0,0.001,0,0.002,0.001,0.003c0.001,0.003,0.001,0.006,0.002,0.009c0,0.001,0,0.001,0,0.001         c0.001,0.004,0.002,0.008,0.002,0.011c0,0,0,0.001,0,0.001c0.001,0.006,0.003,0.012,0.004,0.018c0,0,0,0.001,0,0.001         c0.001,0.004,0.002,0.007,0.002,0.011l0,0.001c0.001,0.004,0.002,0.007,0.002,0.011l0,0.001         c0.155,0.713,0.358,1.407,0.604,2.081c0,0,0,0.001,0,0.001c0.006,0.015,0.011,0.031,0.017,0.046l0.703-0.26         C1.384,20.456,1.148,19.591,0.991,18.717L0.991,18.717z M2.831,23.696l-0.647,0.379c0.001,0.001,0.001,0.002,0.002,0.004l0,0         c0.002,0.003,0.004,0.006,0.006,0.009c0,0.001,0.001,0.001,0.001,0.002c0.002,0.003,0.003,0.006,0.005,0.008         c0,0.001,0.001,0.001,0.001,0.001c0.002,0.004,0.004,0.006,0.005,0.009c0,0,0.001,0.001,0.001,0.001         c0.003,0.005,0.006,0.01,0.009,0.015c0.001,0.001,0.001,0.002,0.002,0.003c0.001,0.002,0.002,0.004,0.004,0.006         c0.001,0.001,0.001,0.002,0.002,0.003c0.002,0.003,0.003,0.004,0.004,0.007c0.001,0.001,0.001,0.002,0.002,0.003         c0.001,0.002,0.003,0.005,0.004,0.007c0.001,0.001,0.001,0.002,0.002,0.003c0.001,0.001,0.002,0.003,0.003,0.004         c0.001,0.002,0.002,0.004,0.003,0.006c0.001,0.001,0.002,0.003,0.002,0.004c0.001,0.002,0.002,0.003,0.003,0.005         c0.001,0.002,0.002,0.003,0.003,0.005c0.001,0.001,0.002,0.003,0.002,0.004c0.001,0.002,0.002,0.004,0.003,0.006         c0.001,0.001,0.002,0.003,0.003,0.004c0.001,0.002,0.002,0.003,0.003,0.005c0.001,0.001,0.002,0.003,0.003,0.005         c0.001,0.001,0.001,0.002,0.002,0.004c0.001,0.002,0.002,0.004,0.004,0.006c0.001,0.001,0.001,0.002,0.002,0.004         c0.001,0.002,0.002,0.004,0.004,0.006c0.001,0.001,0.002,0.003,0.002,0.004c0.001,0.002,0.002,0.004,0.003,0.005         c0.001,0.002,0.001,0.002,0.002,0.004c0.001,0.002,0.002,0.003,0.003,0.005c0.001,0.002,0.002,0.003,0.003,0.005         c0.001,0.002,0.002,0.003,0.003,0.005c0.001,0.001,0.001,0.002,0.002,0.003c0.001,0.002,0.003,0.004,0.004,0.007         c0.001,0.001,0.001,0.002,0.002,0.003c0.001,0.002,0.003,0.004,0.004,0.007c0,0,0.001,0.002,0.002,0.003         c0.001,0.002,0.003,0.005,0.004,0.007c0.001,0.001,0.001,0.002,0.002,0.003c0.001,0.002,0.003,0.005,0.004,0.007         c0,0,0.001,0.002,0.001,0.002c0.001,0.002,0.003,0.004,0.004,0.006l0.002,0.003c0.001,0.002,0.003,0.005,0.004,0.007         c0.001,0.001,0.001,0.001,0.001,0.002c0.002,0.002,0.003,0.005,0.004,0.007c0.001,0.001,0.001,0.002,0.001,0.002         c0.001,0.002,0.003,0.005,0.004,0.007c0,0,0.001,0.002,0.001,0.002c0.002,0.003,0.003,0.005,0.005,0.008         c0.001,0.001,0.001,0.001,0.001,0.002c0.001,0.002,0.003,0.005,0.004,0.007c0.001,0.001,0.001,0.001,0.001,0.002         c0.001,0.002,0.003,0.005,0.004,0.007c0.001,0.001,0.001,0.001,0.001,0.002c0.002,0.002,0.003,0.005,0.005,0.007         c0,0,0.001,0.002,0.001,0.002c0.001,0.002,0.003,0.005,0.004,0.007c0.001,0.001,0.001,0.002,0.002,0.003         c0.001,0.002,0.003,0.005,0.004,0.007c0.001,0.001,0.001,0.001,0.001,0.002c0.001,0.002,0.003,0.005,0.004,0.007         c0,0,0.001,0.002,0.001,0.002c0.001,0.002,0.003,0.004,0.004,0.007l0.001,0.002c0.002,0.003,0.003,0.005,0.005,0.008         c0.001,0.001,0.001,0.001,0.001,0.002c0.002,0.003,0.003,0.005,0.005,0.008c0.001,0.001,0.001,0.001,0.001,0.002         c0.002,0.003,0.003,0.005,0.005,0.008c0,0,0.001,0.001,0.001,0.002c0.002,0.003,0.003,0.005,0.005,0.008         c0,0,0.001,0.001,0.001,0.001c0.002,0.003,0.003,0.006,0.005,0.008c0.001,0.001,0,0.001,0.001,0.001         c0.002,0.003,0.003,0.005,0.005,0.008l0.001,0.001c0.002,0.003,0.003,0.005,0.005,0.008c0,0,0.001,0.001,0.001,0.002         c0.002,0.003,0.003,0.005,0.005,0.008c0.001,0.001,0,0.001,0.001,0.002c0.002,0.003,0.003,0.005,0.005,0.008         c0.001,0.001,0.001,0.001,0.001,0.002c0.002,0.003,0.003,0.005,0.005,0.008c0,0,0.001,0.001,0.001,0.001         c0.002,0.002,0.003,0.005,0.005,0.007c0,0,0.001,0.001,0.001,0.001c0.002,0.003,0.003,0.005,0.005,0.008         c0.001,0.001,0.001,0.001,0.001,0.002c0.002,0.002,0.003,0.005,0.005,0.007c0.001,0.001,0.001,0.001,0.001,0.002         c0.002,0.002,0.003,0.005,0.005,0.007c0,0,0.001,0.001,0.001,0.001c0.002,0.003,0.004,0.006,0.005,0.008c0,0,0,0.001,0,0.001         c0.002,0.003,0.004,0.006,0.006,0.009l0,0c0.002,0.003,0.003,0.005,0.005,0.008c0,0,0.001,0.001,0.001,0.001         c0.002,0.003,0.003,0.005,0.005,0.008c0,0,0.001,0.001,0.001,0.002c0.002,0.003,0.003,0.005,0.005,0.008         c0,0,0.001,0.001,0.001,0.001c0.002,0.003,0.003,0.005,0.005,0.008c0,0,0.001,0.001,0.001,0.001         c0.002,0.003,0.003,0.005,0.005,0.008c0,0,0.001,0.001,0.001,0.001c0.002,0.003,0.003,0.005,0.005,0.008c0,0,0,0,0,0         c0.002,0.003,0.004,0.006,0.005,0.008c0,0,0.001,0.001,0.001,0.001c0.002,0.003,0.003,0.005,0.005,0.008         c0,0,0.001,0.001,0.001,0.001c0.002,0.003,0.004,0.006,0.005,0.008c0,0,0.001,0.001,0.001,0.002         c0.002,0.003,0.003,0.005,0.005,0.008c0,0,0.001,0.001,0.001,0.001c0.002,0.003,0.003,0.005,0.005,0.008         c0,0,0.001,0.001,0.001,0.001c0.002,0.003,0.003,0.005,0.005,0.008c0,0,0.001,0.001,0.001,0.001         c0.002,0.002,0.003,0.005,0.005,0.007c0,0,0.001,0.002,0.001,0.002c0.002,0.003,0.003,0.005,0.005,0.008         c0.001,0.001,0.001,0.001,0.001,0.002c0.002,0.003,0.003,0.005,0.005,0.008c0,0,0.001,0.001,0.001,0.001         c0.002,0.003,0.004,0.006,0.005,0.008c0,0,0,0,0.001,0.001c0.002,0.003,0.003,0.005,0.005,0.008c0,0,0,0.001,0.001,0.001         c0.002,0.003,0.003,0.005,0.005,0.008c0,0,0.001,0.001,0.001,0.001c0.002,0.003,0.004,0.006,0.005,0.008         c0.001,0.001,0.001,0.001,0.001,0.002c0.002,0.003,0.003,0.005,0.005,0.008c0,0,0.001,0.001,0.001,0.002         c0.002,0.003,0.003,0.005,0.005,0.008c0.001,0.001,0,0.001,0.001,0.002c0.002,0.002,0.003,0.005,0.005,0.007         c0.001,0.001,0,0.001,0.001,0.002c0.002,0.002,0.003,0.005,0.005,0.007c0,0,0.001,0.001,0.001,0.001         c0.002,0.003,0.003,0.005,0.005,0.008c0,0,0.001,0.001,0.001,0.002c0.002,0.003,0.003,0.005,0.005,0.008         c0,0,0.001,0.001,0.001,0.002c0.002,0.003,0.003,0.005,0.005,0.008c0,0,0.001,0.001,0.001,0.002         c0.002,0.003,0.003,0.005,0.005,0.008c0,0,0.001,0.001,0.001,0.001c0.002,0.002,0.003,0.005,0.005,0.007l0.001,0.001         c0.002,0.002,0.003,0.005,0.005,0.008c0.001,0.001,0.001,0.001,0.001,0.002c0.002,0.003,0.003,0.005,0.005,0.007         c0.001,0.001,0.001,0.001,0.001,0.002c0.002,0.002,0.003,0.005,0.005,0.007c0,0,0.001,0.002,0.001,0.002         c0.002,0.003,0.004,0.005,0.005,0.008c0.001,0.001,0,0.001,0.001,0.001c0.002,0.003,0.003,0.005,0.005,0.007l0.001,0.001         c0.002,0.003,0.003,0.005,0.005,0.008c0,0,0,0.001,0.001,0.001c0.002,0.003,0.003,0.005,0.005,0.008         c0,0,0.001,0.001,0.001,0.002c0.002,0.003,0.003,0.005,0.005,0.008c0.001,0.001,0.001,0.001,0.001,0.002         c0.002,0.003,0.003,0.005,0.005,0.008c0,0,0.001,0.001,0.001,0.002c0.002,0.003,0.003,0.005,0.005,0.008l0.001,0.001         c0.002,0.002,0.003,0.005,0.005,0.007c0,0,0.001,0.001,0.001,0.001c0.002,0.003,0.004,0.006,0.005,0.008         c0,0,0.001,0.001,0.001,0.002c0.002,0.003,0.003,0.005,0.005,0.007c0.001,0.001,0.001,0.001,0.001,0.002         c0.002,0.002,0.003,0.005,0.005,0.007l0.001,0.002c0.002,0.003,0.003,0.005,0.005,0.008l0.001,0.001         c0.002,0.002,0.003,0.005,0.005,0.007c0.001,0.001,0.001,0.001,0.001,0.001c0.002,0.003,0.004,0.005,0.005,0.007         c0.001,0.001,0.001,0.001,0.001,0.002c0.002,0.002,0.003,0.005,0.005,0.007c0.001,0.001,0.001,0.002,0.002,0.002         c0.002,0.002,0.003,0.005,0.005,0.007c0.001,0.001,0.001,0.001,0.002,0.002c0.002,0.002,0.003,0.005,0.005,0.007         c0.001,0.001,0.001,0.001,0.002,0.002C2.766,24.996,2.768,24.998,2.769,25c0.001,0.001,0.001,0.002,0.002,0.002         c0.001,0.002,0.003,0.004,0.004,0.006l0.001,0.002c0.002,0.002,0.003,0.005,0.005,0.007c0,0,0.001,0.001,0.001,0.002         c0.002,0.002,0.003,0.005,0.005,0.007c0.001,0.001,0.001,0.001,0.001,0.002c0.002,0.002,0.003,0.005,0.005,0.007         c0.001,0.001,0.001,0.002,0.002,0.003c0.002,0.002,0.003,0.005,0.005,0.007c0.001,0.001,0.001,0.001,0.001,0.001         c0.002,0.003,0.003,0.005,0.005,0.007c0.001,0.001,0.001,0.002,0.002,0.003c0.001,0.002,0.003,0.004,0.004,0.006         c0,0,0.001,0.001,0.001,0.002c0.002,0.002,0.003,0.005,0.005,0.007c0.001,0.001,0.001,0.002,0.002,0.003         c0.002,0.002,0.003,0.004,0.005,0.007c0.001,0.001,0.001,0.002,0.002,0.002c0.002,0.002,0.003,0.005,0.005,0.007         c0.001,0.001,0.001,0.002,0.001,0.002c0.002,0.003,0.004,0.005,0.005,0.007c0.001,0.001,0.001,0.002,0.001,0.002         c0.002,0.003,0.003,0.005,0.005,0.007c0.001,0.001,0.001,0.002,0.002,0.003c0.001,0.002,0.003,0.004,0.004,0.006         c0.001,0.001,0.001,0.002,0.002,0.003c0.002,0.002,0.003,0.004,0.005,0.007c0.001,0.001,0.001,0.002,0.002,0.003         c0.002,0.002,0.003,0.004,0.005,0.007c0.001,0.001,0.001,0.002,0.001,0.002c0.002,0.003,0.004,0.005,0.005,0.008         c0.001,0.001,0.001,0.002,0.002,0.002c0.001,0.002,0.003,0.004,0.004,0.006c0.001,0.001,0.001,0.002,0.002,0.003         c0.001,0.002,0.003,0.004,0.004,0.006c0.001,0.001,0.001,0.002,0.002,0.003c0.002,0.002,0.003,0.005,0.005,0.007         c0.001,0.001,0.001,0.002,0.002,0.002c0.002,0.002,0.003,0.004,0.005,0.007c0.001,0.001,0.001,0.002,0.002,0.003         c0.002,0.002,0.003,0.004,0.005,0.007c0.001,0.001,0.001,0.002,0.001,0.002c0.002,0.003,0.003,0.005,0.005,0.006         c0.001,0.001,0.002,0.002,0.002,0.004c0.001,0.002,0.002,0.004,0.004,0.005c0.001,0.001,0.001,0.002,0.002,0.003         c0.001,0.002,0.003,0.004,0.004,0.006c0.001,0.001,0.001,0.002,0.002,0.003c0.001,0.002,0.003,0.004,0.004,0.006         c0.001,0.001,0.001,0.002,0.002,0.003c0.001,0.002,0.003,0.004,0.004,0.006c0.001,0.001,0.001,0.002,0.002,0.003         c0.002,0.002,0.003,0.004,0.005,0.006c0.001,0.001,0.001,0.002,0.002,0.003c0.001,0.002,0.002,0.003,0.004,0.005         c0.001,0.002,0.002,0.002,0.003,0.004c0.001,0.002,0.002,0.003,0.004,0.005c0.001,0.001,0.001,0.002,0.002,0.002         c0.002,0.002,0.003,0.004,0.005,0.007c0.001,0.001,0.001,0.002,0.002,0.003c0.002,0.002,0.003,0.004,0.005,0.006         c0.001,0.001,0.001,0.002,0.001,0.002c0.002,0.003,0.004,0.005,0.005,0.007c0.001,0.001,0.001,0.002,0.002,0.003         c0.001,0.002,0.003,0.004,0.004,0.005c0.001,0.001,0.001,0.002,0.002,0.003c0.001,0.002,0.003,0.004,0.004,0.005         c0.001,0.001,0.002,0.002,0.002,0.003c0.001,0.002,0.003,0.004,0.004,0.005c0.001,0.001,0.001,0.002,0.002,0.003         c0.001,0.002,0.003,0.004,0.004,0.006c0.001,0.001,0.002,0.002,0.002,0.003C2.998,25.327,3,25.329,3.001,25.331         c0.001,0.001,0.001,0.002,0.002,0.003c0.002,0.002,0.003,0.004,0.005,0.007c0.001,0.001,0.001,0.002,0.002,0.002         c0.001,0.002,0.003,0.004,0.004,0.006c0.001,0.001,0.002,0.002,0.002,0.003c0.001,0.002,0.003,0.004,0.004,0.005         c0.001,0.001,0.001,0.002,0.002,0.003c0.002,0.002,0.003,0.004,0.005,0.006c0.001,0.001,0.001,0.002,0.002,0.003         c0.002,0.002,0.003,0.004,0.005,0.006c0.001,0.001,0.001,0.002,0.002,0.003c0.002,0.002,0.003,0.004,0.005,0.007         c0.001,0.001,0.001,0.002,0.002,0.003c0.001,0.002,0.003,0.004,0.004,0.006c0.001,0.001,0.002,0.002,0.002,0.003         c0.001,0.002,0.003,0.004,0.004,0.005c0.001,0.001,0.001,0.002,0.002,0.003c0.001,0.002,0.003,0.004,0.004,0.006         c0.001,0.001,0.001,0.002,0.002,0.003c0.002,0.002,0.003,0.004,0.005,0.007c0,0,0.001,0.001,0.002,0.002         c0.002,0.002,0.003,0.004,0.005,0.007c0.001,0.001,0.001,0.002,0.002,0.003c0.002,0.002,0.003,0.004,0.005,0.007         c0.001,0.001,0.001,0.001,0.002,0.002c0.001,0.002,0.003,0.004,0.004,0.006c0.001,0.001,0.001,0.002,0.002,0.003         c0.002,0.002,0.003,0.004,0.005,0.006c0.001,0.001,0.001,0.001,0.001,0.002c0.002,0.002,0.003,0.004,0.005,0.007         c0.001,0.001,0.001,0.002,0.002,0.003c0.002,0.002,0.003,0.004,0.005,0.007c0.001,0.001,0.001,0.002,0.002,0.002         c0.002,0.002,0.003,0.004,0.005,0.007c0.001,0.001,0.001,0.002,0.002,0.002c0.002,0.002,0.003,0.004,0.005,0.007         c0,0,0.001,0.002,0.001,0.002c0.002,0.002,0.003,0.004,0.005,0.006c0,0,0.001,0.002,0.002,0.002         c0.002,0.002,0.003,0.004,0.005,0.006c0.001,0.001,0.001,0.002,0.002,0.002c0.002,0.002,0.003,0.004,0.005,0.007         c0.001,0.001,0.001,0.002,0.002,0.002c0.002,0.002,0.003,0.004,0.005,0.007c0.001,0.001,0.001,0.002,0.002,0.002         c0.002,0.002,0.003,0.005,0.005,0.007c0.001,0.001,0.001,0.001,0.002,0.002c0.002,0.002,0.003,0.004,0.005,0.006         c0.001,0.001,0.001,0.001,0.002,0.002c0.002,0.002,0.003,0.005,0.005,0.007c0.001,0.001,0.001,0.001,0.001,0.001         c0.002,0.003,0.004,0.005,0.006,0.007l0.001,0.001c0.002,0.003,0.004,0.005,0.006,0.007c0,0,0.001,0.001,0.001,0.001         c0.002,0.003,0.004,0.005,0.006,0.008c0,0,0.001,0.001,0.001,0.001c0.002,0.003,0.004,0.005,0.006,0.008l0.001,0.001         c0.002,0.003,0.004,0.005,0.006,0.008c0,0,0,0,0.001,0.001c0.002,0.003,0.004,0.005,0.006,0.008c0,0,0.001,0.001,0.001,0.001         c0.002,0.002,0.004,0.005,0.006,0.007c0,0,0.001,0.001,0.001,0.002c0.002,0.002,0.004,0.005,0.006,0.007l0.001,0.001         c0.002,0.003,0.004,0.005,0.006,0.008l0.001,0.001c0.002,0.003,0.004,0.005,0.006,0.008l0,0         c0.002,0.003,0.004,0.005,0.006,0.008l0,0.001c0.002,0.003,0.004,0.005,0.006,0.008l0.001,0.001         c0.002,0.002,0.004,0.005,0.006,0.007c0,0,0.001,0.001,0.001,0.001c0.002,0.002,0.004,0.005,0.006,0.007         c0,0,0.001,0.001,0.001,0.001c0.002,0.003,0.004,0.005,0.006,0.008c0,0,0,0,0,0c0.002,0.003,0.004,0.005,0.006,0.008l0,0         c0.002,0.003,0.004,0.005,0.006,0.008c0,0,0,0.001,0,0.001c0.002,0.003,0.004,0.006,0.006,0.008c0,0,0,0,0.001,0.001         c0.002,0.003,0.004,0.005,0.006,0.008c0,0,0,0,0,0c0.007,0.009,0.013,0.017,0.02,0.026l0,0         c0.002,0.003,0.004,0.006,0.006,0.008c0,0,0,0,0,0c0.002,0.003,0.004,0.006,0.006,0.008l0,0         c0.156,0.202,0.316,0.4,0.481,0.594l0.571-0.486C3.799,25.193,3.28,24.461,2.831,23.696L2.831,23.696z M6.271,27.744         l-0.479,0.577c0.291,0.241,0.591,0.473,0.899,0.693l0,0c0.012,0.008,0.024,0.017,0.035,0.025l0,0         c0.003,0.002,0.006,0.004,0.009,0.006l0,0c0.003,0.002,0.006,0.004,0.009,0.006c0,0,0,0,0,0         c0.003,0.002,0.006,0.004,0.009,0.006l0,0c0.003,0.002,0.006,0.004,0.009,0.006l0,0c0.003,0.002,0.005,0.004,0.008,0.006         l0.001,0.001c0.003,0.002,0.005,0.004,0.008,0.006c0,0,0.001,0.001,0.001,0.001c0.003,0.002,0.005,0.004,0.008,0.006         c0,0,0.001,0.001,0.002,0.001c0.003,0.002,0.005,0.004,0.008,0.005l0.002,0.001c0.003,0.002,0.005,0.004,0.008,0.005         c0,0,0.001,0.001,0.001,0.001c0.003,0.002,0.005,0.004,0.007,0.005c0,0,0.001,0.001,0.001,0.001         c0.003,0.002,0.005,0.004,0.008,0.005c0,0,0.002,0.001,0.002,0.001c0.002,0.002,0.005,0.003,0.007,0.005         c0,0,0.002,0.001,0.003,0.002c0.002,0.002,0.004,0.003,0.007,0.005c0.001,0.001,0.001,0.001,0.003,0.002         c0.002,0.001,0.004,0.003,0.006,0.004c0.001,0.001,0.002,0.001,0.003,0.002c0.002,0.001,0.004,0.003,0.005,0.004         c0.001,0.001,0.002,0.002,0.004,0.003c0.002,0.001,0.003,0.002,0.005,0.003c0.001,0.001,0.002,0.002,0.004,0.002         c0.002,0.001,0.004,0.003,0.006,0.004c0.001,0.001,0.002,0.001,0.003,0.002c0.002,0.001,0.004,0.003,0.006,0.004         c0.001,0.001,0.002,0.002,0.003,0.002c0.002,0.001,0.004,0.003,0.006,0.004c0.001,0.001,0.002,0.001,0.003,0.002         c0.001,0.001,0.003,0.002,0.004,0.003c0.002,0.001,0.004,0.003,0.006,0.004c0.001,0.001,0.002,0.001,0.003,0.002         c0.002,0.001,0.004,0.003,0.006,0.004c0.001,0.001,0.002,0.001,0.003,0.002c0.002,0.001,0.004,0.003,0.005,0.004         c0.001,0.001,0.003,0.002,0.004,0.003c0.002,0.001,0.002,0.002,0.004,0.003c0.001,0.001,0.002,0.002,0.004,0.003         c0.002,0.001,0.004,0.003,0.006,0.004c0.001,0.001,0.002,0.001,0.003,0.002c0.002,0.001,0.005,0.003,0.007,0.005         C6.954,29.199,6.955,29.2,6.955,29.2c0.003,0.002,0.005,0.004,0.008,0.005c0.001,0.001,0.002,0.001,0.002,0.002         c0.002,0.002,0.005,0.003,0.007,0.005c0.001,0,0.001,0.001,0.001,0.001c0.006,0.004,0.01,0.007,0.015,0.01c0,0,0,0,0,0         c0.003,0.002,0.006,0.004,0.009,0.006c0,0,0.001,0,0.001,0c0.004,0.002,0.006,0.004,0.009,0.006c0,0,0,0,0,0         c0.015,0.01,0.03,0.02,0.045,0.03l0,0c0.337,0.228,0.683,0.443,1.038,0.645l0.371-0.652         C7.693,28.822,6.955,28.311,6.271,27.744L6.271,27.744z M10.885,30.371l-0.251,0.707c0.438,0.156,0.886,0.293,1.341,0.411         l0,0c0.004,0.001,0.007,0.002,0.01,0.003l0,0c0.007,0.002,0.014,0.004,0.021,0.005l0,0c0.003,0.001,0.007,0.002,0.01,0.003         c0,0,0.001,0,0.001,0c0.003,0.001,0.006,0.002,0.009,0.002c0,0,0.001,0,0.002,0c0.003,0.001,0.006,0.002,0.009,0.002         c0,0,0,0,0,0c0.003,0.001,0.006,0.002,0.009,0.002l0.001,0c0.003,0.001,0.006,0.001,0.009,0.002c0,0,0.002,0,0.002,0.001         c0.003,0.001,0.006,0.001,0.008,0.002c0.001,0,0.002,0,0.003,0.001c0.003,0.001,0.006,0.001,0.008,0.002         c0.001,0,0.002,0,0.003,0.001c0.002,0.001,0.005,0.001,0.007,0.002c0.001,0,0.003,0.001,0.004,0.001         c0.002,0.001,0.005,0.001,0.007,0.002c0.001,0,0.002,0.001,0.003,0.001c0.002,0.001,0.005,0.001,0.007,0.002         c0.001,0,0.003,0.001,0.004,0.001c0.002,0.001,0.005,0.001,0.007,0.002c0.002,0,0.002,0.001,0.004,0.001         c0.002,0,0.003,0.001,0.005,0.001c0.002,0.001,0.005,0.001,0.007,0.002c0.001,0,0.003,0.001,0.004,0.001         c0.002,0,0.004,0.001,0.006,0.002c0.002,0,0.003,0.001,0.005,0.001c0.002,0,0.004,0.001,0.005,0.001         c0.002,0,0.003,0.001,0.005,0.001c0.002,0,0.004,0.001,0.007,0.002c0.001,0,0.002,0,0.003,0.001         c0.003,0.001,0.006,0.001,0.009,0.002c0.001,0,0.002,0,0.003,0.001c0.003,0.001,0.006,0.001,0.009,0.002         c0.001,0,0.002,0,0.003,0.001c0.006,0.001,0.012,0.003,0.017,0.004l0,0c0.004,0.001,0.008,0.002,0.012,0.003l0,0         c0.367,0.089,0.74,0.165,1.117,0.228l0.124-0.74C12.588,30.894,11.721,30.669,10.885,30.371L10.885,30.371z M18.777,30.998         c-0.87,0.16-1.763,0.245-2.654,0.252L16.129,32c0.95-0.008,1.88-0.098,2.784-0.264L18.777,30.998L18.777,30.998z          M23.749,29.137c-0.765,0.452-1.574,0.839-2.404,1.15l0.263,0.702c0.88-0.329,1.724-0.734,2.523-1.207L23.749,29.137         L23.749,29.137z M27.783,25.682c-0.564,0.686-1.192,1.326-1.866,1.904l0.488,0.57c0.166-0.142,0.329-0.288,0.489-0.437l0,0         c0.003-0.002,0.005-0.005,0.008-0.007l0,0c0.003-0.002,0.005-0.005,0.008-0.007l0.001-0.001         c0.002-0.002,0.005-0.005,0.007-0.007c0,0,0,0,0.001-0.001c0.002-0.002,0.005-0.005,0.007-0.007c0,0,0.001-0.001,0.001-0.001         c0.002-0.002,0.004-0.004,0.007-0.006c0,0,0,0,0.001-0.001c0.002-0.002,0.004-0.004,0.007-0.006         c0.001-0.001,0.001-0.001,0.002-0.002c0.002-0.002,0.004-0.004,0.006-0.006c0.001-0.001,0.001-0.001,0.002-0.002         c0.002-0.002,0.004-0.004,0.006-0.006c0.001-0.001,0.002-0.002,0.002-0.002c0.002-0.002,0.004-0.004,0.006-0.006         c0.001-0.001,0.001-0.001,0.002-0.002c0.002-0.002,0.004-0.004,0.006-0.005c0.001-0.001,0.002-0.001,0.003-0.002         c0.002-0.001,0.003-0.003,0.005-0.004c0.001-0.001,0.002-0.002,0.004-0.003c0.001-0.001,0.003-0.003,0.004-0.004         c0.001-0.001,0.002-0.002,0.003-0.003c0.002-0.002,0.003-0.003,0.005-0.005c0.001-0.001,0.002-0.002,0.003-0.003         c0.002-0.002,0.003-0.003,0.005-0.005c0.001-0.001,0.002-0.002,0.003-0.003c0.001-0.001,0.002-0.002,0.003-0.003         c0.002-0.002,0.004-0.003,0.005-0.005c0.001-0.001,0.002-0.002,0.003-0.002c0.002-0.002,0.004-0.003,0.006-0.006         c0.001-0.001,0.002-0.001,0.002-0.002c0.002-0.002,0.004-0.004,0.006-0.006c0.001-0.001,0.001-0.001,0.002-0.002         c0.007-0.007,0.014-0.013,0.021-0.02c0,0,0,0,0,0c0.003-0.003,0.005-0.005,0.008-0.008l0,0         c0.003-0.003,0.005-0.005,0.008-0.008c0,0,0,0,0,0c0.456-0.438,0.886-0.902,1.288-1.39L27.783,25.682L27.783,25.682z          M30.392,21.057c-0.294,0.836-0.664,1.653-1.101,2.427l0.653,0.369c0.071-0.126,0.141-0.254,0.209-0.382l0,0         c0.005-0.01,0.01-0.019,0.015-0.029l0,0c0.002-0.003,0.003-0.006,0.005-0.009l0-0.001c0.002-0.003,0.003-0.006,0.005-0.009         l0,0c0.005-0.009,0.01-0.019,0.015-0.028c0,0,0-0.001,0.001-0.001c0.001-0.003,0.003-0.006,0.004-0.008c0,0,0-0.001,0-0.001         c0.002-0.003,0.003-0.006,0.005-0.009l0.001-0.001c0.002-0.003,0.003-0.006,0.005-0.009c0,0,0,0,0,0         c0.002-0.003,0.003-0.006,0.005-0.009c0,0,0,0,0-0.001c0.001-0.003,0.003-0.006,0.004-0.009l0.001-0.001         c0.001-0.003,0.003-0.006,0.004-0.008c0-0.001,0-0.001,0.001-0.002c0.001-0.003,0.003-0.006,0.004-0.008         c0,0,0.001-0.001,0.001-0.001c0.001-0.003,0.003-0.006,0.004-0.008c0,0,0.001-0.001,0.001-0.002         c0.001-0.003,0.003-0.005,0.004-0.008c0,0,0-0.001,0.001-0.001c0.001-0.003,0.003-0.005,0.004-0.008         c0,0,0.001-0.002,0.001-0.002c0.001-0.003,0.003-0.005,0.004-0.008c0,0,0.001-0.001,0.001-0.002         c0.001-0.003,0.003-0.005,0.004-0.008c0-0.001,0.001-0.002,0.001-0.002c0.001-0.002,0.003-0.005,0.004-0.007         c0-0.001,0.001-0.001,0.001-0.001c0.002-0.003,0.003-0.005,0.004-0.007c0.001-0.001,0.001-0.002,0.002-0.003         c0.001-0.002,0.002-0.004,0.003-0.006c0.001-0.001,0.001-0.002,0.002-0.003c0.001-0.002,0.002-0.004,0.003-0.007         c0-0.001,0.001-0.003,0.002-0.004c0.001-0.002,0.002-0.004,0.003-0.007c0.001-0.001,0.001-0.002,0.002-0.003         c0.001-0.002,0.002-0.004,0.003-0.006c0.001-0.001,0.001-0.003,0.002-0.004c0.001-0.002,0.002-0.004,0.003-0.005         c0.001-0.001,0.001-0.003,0.002-0.004c0.001-0.002,0.002-0.004,0.003-0.005c0.001-0.001,0.001-0.002,0.002-0.004         c0.001-0.002,0.002-0.004,0.003-0.006c0.001-0.001,0.001-0.003,0.002-0.004c0.001-0.002,0.002-0.003,0.002-0.005         c0.001-0.002,0.002-0.004,0.003-0.005c0.001-0.001,0.001-0.003,0.002-0.004c0.001-0.002,0.002-0.004,0.003-0.006         c0.001-0.001,0.001-0.002,0.002-0.003c0.001-0.002,0.002-0.004,0.003-0.007c0.001-0.001,0.001-0.002,0.002-0.004         c0.001-0.002,0.002-0.004,0.003-0.005c0.001-0.002,0.002-0.003,0.002-0.005c0.001-0.002,0.001-0.003,0.002-0.004         c0.001-0.002,0.002-0.004,0.003-0.005c0.001-0.001,0.002-0.003,0.002-0.005c0.001-0.001,0.001-0.002,0.002-0.003         c0.001-0.002,0.002-0.005,0.003-0.007c0.001-0.001,0.001-0.002,0.002-0.003c0.001-0.002,0.002-0.004,0.003-0.007         c0.001-0.001,0.001-0.002,0.002-0.003c0.002-0.003,0.003-0.007,0.005-0.01l0,0c0.001-0.002,0.002-0.004,0.003-0.005         c0,0,0,0,0-0.001c0.002-0.004,0.003-0.006,0.005-0.01c0,0,0-0.001,0.001-0.001c0.001-0.003,0.003-0.006,0.004-0.009         c0,0,0.001-0.001,0.001-0.002c0.001-0.003,0.003-0.006,0.004-0.009c0-0.001,0-0.001,0-0.001         c0.005-0.01,0.009-0.018,0.013-0.027c0,0,0,0,0-0.001c0.002-0.004,0.003-0.007,0.005-0.01c0,0,0,0,0,0         c0.198-0.405,0.379-0.819,0.543-1.243l0,0c0.007-0.017,0.013-0.034,0.02-0.051c0,0,0-0.001,0-0.001         c0.001-0.003,0.003-0.007,0.004-0.01c0,0,0-0.001,0.001-0.001c0.001-0.003,0.002-0.006,0.004-0.009         c0-0.001,0-0.001,0.001-0.002c0.001-0.003,0.002-0.006,0.003-0.009c0-0.001,0-0.001,0.001-0.002         c0.001-0.001,0.001-0.003,0.002-0.005c0-0.001,0.001-0.003,0.001-0.004c0.001-0.002,0.002-0.005,0.003-0.007         c0-0.001,0.001-0.002,0.001-0.003c0.001-0.002,0.002-0.005,0.003-0.007c0-0.001,0.001-0.003,0.001-0.004         c0.001-0.002,0.002-0.004,0.003-0.007c0.001-0.001,0.001-0.003,0.002-0.004c0.001-0.001,0.001-0.003,0.002-0.005         c0.001-0.002,0.002-0.004,0.002-0.006c0.001-0.001,0.001-0.003,0.002-0.004c0.001-0.002,0.001-0.004,0.002-0.006         c0.001-0.002,0.001-0.003,0.002-0.004c0.001-0.002,0.001-0.004,0.002-0.005c0.001-0.002,0.001-0.003,0.002-0.005         c0.001-0.002,0.001-0.004,0.002-0.006c0-0.001,0.001-0.002,0.001-0.003c0.001-0.002,0.002-0.005,0.003-0.007         c0-0.001,0.001-0.002,0.001-0.003c0.001-0.003,0.002-0.005,0.003-0.008c0-0.001,0.001-0.002,0.001-0.003         c0.001-0.003,0.002-0.005,0.003-0.008c0-0.001,0-0.001,0.001-0.002c0.001-0.003,0.002-0.005,0.003-0.008         c0-0.001,0-0.001,0.001-0.002c0.001-0.003,0.002-0.005,0.003-0.008c0-0.001,0-0.001,0.001-0.002         c0.001-0.003,0.002-0.006,0.003-0.009c0,0,0-0.001,0-0.001c0.001-0.003,0.002-0.006,0.003-0.009c0,0,0-0.001,0.001-0.002         c0.001-0.003,0.002-0.006,0.003-0.009l0,0c0.004-0.01,0.008-0.02,0.011-0.031l0,0c0.023-0.062,0.045-0.124,0.067-0.187         L30.392,21.057L30.392,21.057z M31.999,15.807l-0.75,0.009L31.25,16c0,0.83-0.067,1.663-0.2,2.475l0.74,0.121         c0.002-0.012,0.004-0.023,0.006-0.035l0,0c0.077-0.479,0.133-0.965,0.166-1.457l0,0c0.001-0.017,0.002-0.033,0.003-0.05         c0,0,0-0.001,0-0.001c0-0.006,0.001-0.012,0.001-0.018l0-0.001c0-0.004,0-0.007,0.001-0.012l0-0.001         c0-0.006,0.001-0.012,0.001-0.018c0,0,0-0.001,0-0.001c0-0.006,0.001-0.012,0.001-0.018c0,0,0,0,0,0         c0-0.004,0-0.008,0.001-0.012l0,0c0-0.006,0.001-0.012,0.001-0.018c0,0,0-0.001,0-0.001c0-0.006,0.001-0.012,0.001-0.018         c0-0.001,0-0.001,0-0.001c0-0.004,0-0.008,0.001-0.011c0,0,0-0.001,0-0.002c0-0.002,0-0.004,0-0.006c0,0,0-0.001,0-0.001         c0-0.004,0-0.007,0.001-0.011c0-0.001,0-0.002,0-0.002c0-0.004,0-0.008,0.001-0.011l0-0.001c0-0.002,0-0.004,0-0.005         c0,0,0-0.002,0-0.003c0-0.003,0-0.006,0-0.009c0-0.001,0-0.002,0-0.002c0-0.002,0-0.003,0-0.006c0-0.001,0-0.001,0-0.001         c0-0.004,0-0.007,0.001-0.01c0-0.001,0-0.002,0-0.003c0-0.003,0-0.005,0-0.008c0-0.001,0-0.002,0-0.004         c0-0.002,0-0.003,0-0.005c0-0.001,0-0.002,0-0.003c0-0.003,0-0.005,0-0.008c0-0.001,0-0.002,0-0.003c0-0.002,0-0.003,0-0.005         c0-0.001,0-0.002,0-0.003c0-0.003,0-0.006,0-0.008c0-0.001,0-0.002,0-0.003c0-0.003,0-0.006,0-0.009c0,0,0-0.002,0-0.003         c0-0.002,0-0.004,0-0.005c0-0.001,0-0.002,0-0.003c0-0.002,0-0.005,0-0.008c0-0.001,0-0.003,0-0.004c0-0.002,0-0.003,0-0.005         c0-0.001,0-0.002,0-0.003c0-0.003,0-0.006,0-0.008c0-0.001,0-0.002,0-0.003c0-0.003,0-0.006,0-0.008c0-0.001,0-0.002,0-0.003         c0-0.002,0-0.003,0-0.005c0-0.001,0-0.003,0-0.004c0-0.002,0-0.005,0-0.007c0-0.001,0-0.003,0-0.004c0-0.002,0-0.003,0-0.005         c0-0.001,0-0.003,0-0.004c0-0.003,0-0.005,0-0.008c0-0.001,0-0.002,0-0.003c0-0.002,0-0.004,0-0.007c0-0.002,0-0.003,0-0.005         c0-0.002,0-0.003,0-0.005c0-0.001,0-0.003,0-0.004c0-0.002,0-0.005,0-0.007c0-0.001,0-0.003,0-0.004c0-0.002,0-0.003,0-0.005         c0-0.002,0-0.003,0-0.005c0-0.002,0-0.004,0-0.006c0-0.001,0-0.003,0-0.004c0-0.002,0-0.003,0-0.004c0-0.002,0-0.005,0-0.007         c0-0.002,0-0.002,0-0.004c0-0.002,0-0.004,0-0.005c0-0.002,0-0.004,0-0.005c0-0.002,0-0.004,0-0.005c0-0.001,0-0.003,0-0.004         c0-0.002,0-0.004,0-0.006c0-0.002,0-0.003,0-0.005c0-0.002,0-0.003,0-0.005c0-0.002,0-0.002,0-0.004c0-0.002,0-0.005,0-0.007         c0-0.002,0-0.003,0-0.004s0-0.003,0-0.005c0-0.002,0-0.003,0-0.005c0-0.002,0-0.004,0-0.005c0-0.001,0-0.003,0-0.004         c0-0.002,0-0.005,0-0.007c0-0.001,0-0.003,0-0.004c0-0.002,0-0.003,0-0.005c0-0.002,0-0.002,0-0.004c0-0.003,0-0.005,0-0.007         c0-0.001,0-0.002,0-0.004c0-0.002,0-0.004,0-0.006c0-0.001,0-0.003,0-0.004c0-0.002,0-0.004,0-0.006c0-0.001,0-0.003,0-0.004         c0-0.002,0-0.005,0-0.007c0-0.001,0-0.003,0-0.004c0-0.002,0-0.004,0-0.005c0-0.001,0-0.002,0-0.004c0-0.003,0-0.005,0-0.008         c0-0.001,0-0.002,0-0.003c0-0.002,0-0.005,0-0.007c0-0.001,0-0.002,0-0.003c0-0.002,0-0.005,0-0.007c0-0.001,0-0.002,0-0.003         c0-0.003,0-0.005,0-0.008c0-0.001,0-0.001,0-0.003c0-0.002,0-0.005,0-0.007c0-0.001,0-0.002,0-0.003c0-0.003,0-0.006,0-0.008         l0-0.003c0-0.003,0-0.005,0-0.008c0-0.001,0-0.001,0-0.002c0-0.003,0-0.005,0-0.008c0-0.001,0-0.001,0-0.003         c0-0.003,0-0.006,0-0.009c0-0.001,0-0.001,0-0.002c0-0.002,0-0.005,0-0.007c0-0.001,0-0.001,0-0.002c0-0.003,0-0.006,0-0.008         c0-0.001,0-0.002,0-0.003c0-0.003,0-0.005,0-0.008l0-0.002c0-0.003,0-0.005,0-0.008c0-0.001,0-0.002,0-0.003         c0-0.003,0-0.005,0-0.008c0-0.001,0-0.001,0-0.003c0-0.002,0-0.004,0-0.007c0-0.001,0-0.002,0-0.003c0-0.003,0-0.006,0-0.008         l0-0.003c0-0.003,0-0.005,0-0.008l0-0.001c0-0.003,0-0.006,0-0.009c0-0.001,0-0.001,0-0.003c0-0.003,0-0.006,0-0.008         c0-0.001,0-0.001,0-0.002c0-0.002,0-0.005,0-0.007c0-0.001,0-0.001,0-0.002c0-0.003,0-0.006,0-0.009c0-0.001,0-0.002,0-0.003         c0-0.003,0-0.005,0-0.008l0-0.001c0-0.003,0-0.005,0-0.008c0-0.001,0-0.002,0-0.003c0-0.003,0-0.006,0-0.008         c0-0.001,0-0.001,0-0.002c0-0.003,0-0.005,0-0.008c0-0.001,0-0.001,0-0.002c0-0.003,0-0.006,0-0.009c0-0.001,0-0.002,0-0.002         c0-0.004,0-0.006,0-0.009l0,0c0-0.003,0-0.006,0-0.009c0-0.001,0-0.002,0-0.002c0-0.003,0-0.006,0-0.009         c0-0.001,0-0.001,0-0.001c0-0.003,0-0.006,0-0.008c0-0.001,0-0.001,0-0.002c0-0.003,0-0.006,0-0.009l0-0.002         c0-0.003,0-0.006,0-0.009l0-0.001c0-0.003,0-0.006,0-0.009c0-0.001,0-0.002,0-0.002c0-0.003,0-0.007,0-0.009l0-0.001         c0-0.003,0-0.005,0-0.008c0-0.001,0-0.001,0-0.002c0-0.003,0-0.006,0-0.009c0-0.001,0-0.001,0-0.001c0-0.007,0-0.013,0-0.019         c0,0,0-0.001,0-0.002c0-0.003,0-0.006,0-0.009c0,0,0-0.001,0-0.002c0-0.003,0-0.005,0-0.008l0-0.001c0-0.003,0-0.006,0-0.009         c0-0.001,0-0.002,0-0.002c0-0.004,0-0.007,0-0.01l0,0c0-0.003,0-0.006,0-0.009c0,0,0-0.002,0-0.002c0-0.003,0-0.006,0-0.009         c0-0.001,0-0.001,0-0.002c0-0.003,0-0.005,0-0.008c0-0.001,0-0.001,0-0.002c0-0.003,0-0.006,0-0.009c0,0,0-0.002,0-0.002         c0-0.003,0-0.006,0-0.009l0,0c0-0.004,0-0.007,0-0.011c0-0.001,0-0.001,0-0.001c0-0.003,0-0.007,0-0.01         c0-0.001,0-0.002,0-0.002c0-0.004,0-0.007,0-0.01c0-0.001,0-0.002,0-0.003c0-0.003,0-0.006,0-0.009c0-0.001,0-0.003,0-0.004         c0-0.003,0-0.005,0-0.008c0-0.002,0-0.004,0-0.005c0-0.001,0-0.003,0-0.004c0-0.003,0-0.006,0-0.009c0-0.001,0-0.001,0-0.002         C32,15.883,31.999,15.845,31.999,15.807L31.999,15.807z M30.967,10.332l-0.701,0.266c0.314,0.829,0.557,1.692,0.721,2.565         l0.737-0.139c-0.075-0.399-0.165-0.792-0.269-1.18c0-0.001,0,0,0,0c-0.004-0.014-0.008-0.028-0.011-0.042l0-0.001         c-0.003-0.01-0.006-0.021-0.008-0.031l0,0c-0.001-0.003-0.002-0.007-0.003-0.01c0,0,0-0.001,0-0.001         c-0.001-0.003-0.002-0.006-0.003-0.01c0-0.001,0-0.001,0-0.001c-0.001-0.004-0.002-0.007-0.003-0.01c0,0,0,0,0,0         c-0.001-0.004-0.002-0.007-0.003-0.01c0-0.001,0,0,0-0.001c-0.001-0.003-0.002-0.007-0.003-0.01c0,0,0-0.001,0-0.001         c-0.001-0.003-0.002-0.006-0.003-0.01c0-0.001,0-0.001,0-0.001c-0.001-0.003-0.002-0.006-0.003-0.009c0,0,0-0.001,0-0.001         c-0.001-0.003-0.002-0.006-0.003-0.009c0-0.001,0,0,0-0.001c-0.001-0.003-0.002-0.006-0.003-0.009c0,0,0-0.001,0-0.002         c-0.001-0.003-0.002-0.006-0.003-0.009c0-0.001,0-0.001-0.001-0.002c-0.001-0.003-0.002-0.006-0.002-0.009         c0,0,0-0.002-0.001-0.002c-0.001-0.003-0.002-0.006-0.003-0.009l0-0.001c-0.001-0.003-0.002-0.006-0.003-0.009         c0,0,0-0.001,0-0.001c-0.001-0.003-0.002-0.006-0.003-0.009c0,0,0-0.001,0-0.001c-0.001-0.003-0.002-0.006-0.003-0.009         c0,0,0-0.001-0.001-0.002c-0.001-0.003-0.002-0.006-0.003-0.009c0,0,0-0.001,0-0.001c-0.001-0.003-0.002-0.006-0.003-0.009         c0,0,0,0,0-0.001c-0.001-0.003-0.002-0.006-0.003-0.009c0,0,0-0.001-0.001-0.002c-0.001-0.003-0.002-0.006-0.002-0.009         c0-0.001,0-0.001-0.001-0.002c-0.001-0.003-0.002-0.006-0.002-0.009c0-0.001,0-0.001-0.001-0.002         c-0.001-0.003-0.002-0.006-0.002-0.008l0-0.002c-0.001-0.003-0.002-0.006-0.002-0.008c0-0.001,0-0.001-0.001-0.002         c-0.001-0.003-0.002-0.006-0.002-0.008c0-0.001,0-0.001-0.001-0.002c-0.001-0.003-0.002-0.006-0.002-0.008l-0.001-0.002         c-0.001-0.003-0.002-0.005-0.002-0.008c0,0-0.001-0.002-0.001-0.002c-0.001-0.003-0.002-0.005-0.002-0.008         c0-0.001,0-0.001-0.001-0.002c-0.001-0.003-0.002-0.005-0.002-0.008c0-0.001-0.001-0.002-0.001-0.003         c-0.001-0.003-0.002-0.005-0.002-0.008c0-0.001-0.001-0.002-0.001-0.003c-0.001-0.003-0.002-0.005-0.002-0.008         c0-0.001,0-0.002-0.001-0.003c-0.001-0.002-0.001-0.005-0.002-0.007c0,0,0-0.002,0-0.002         c-0.001-0.003-0.002-0.006-0.003-0.008c0-0.001-0.001-0.002-0.001-0.003c-0.001-0.003-0.002-0.005-0.002-0.008         c0-0.001-0.001-0.002-0.001-0.003c-0.001-0.003-0.002-0.005-0.002-0.008c0-0.001-0.001-0.002-0.001-0.003         c-0.001-0.002-0.001-0.005-0.002-0.007c0-0.001-0.001-0.002-0.001-0.004c-0.001-0.002-0.001-0.004-0.002-0.006         c0-0.001-0.001-0.003-0.001-0.004c-0.001-0.002-0.001-0.005-0.002-0.007c0-0.001-0.001-0.003-0.001-0.004         c-0.001-0.003-0.001-0.005-0.002-0.007c0-0.001-0.001-0.002-0.001-0.003c-0.001-0.002-0.001-0.005-0.002-0.007         c0-0.001-0.001-0.003-0.001-0.004c-0.001-0.002-0.001-0.004-0.002-0.006c0-0.001-0.001-0.003-0.001-0.005         c-0.001-0.002-0.001-0.004-0.002-0.006c0-0.001-0.001-0.002-0.001-0.004c-0.001-0.002-0.001-0.005-0.002-0.007         c0-0.001-0.001-0.003-0.001-0.004c-0.001-0.002-0.001-0.005-0.002-0.007c0-0.001-0.001-0.003-0.001-0.004         c0-0.002-0.001-0.003-0.001-0.005c-0.001-0.002-0.001-0.004-0.002-0.006c0-0.002-0.001-0.003-0.001-0.005         c0-0.001-0.001-0.003-0.001-0.004c-0.001-0.002-0.001-0.005-0.002-0.007c0-0.001-0.001-0.003-0.001-0.004         c-0.001-0.002-0.001-0.005-0.002-0.007c0-0.001-0.001-0.002-0.001-0.004c-0.001-0.002-0.001-0.004-0.002-0.005         c-0.001-0.002-0.001-0.004-0.002-0.006c-0.001-0.002-0.001-0.003-0.002-0.005c0-0.001-0.001-0.003-0.001-0.004         c-0.001-0.002-0.001-0.004-0.002-0.007c0-0.001-0.001-0.002-0.001-0.004c-0.001-0.002-0.001-0.005-0.002-0.007         c0-0.001-0.001-0.002-0.001-0.004c-0.001-0.002-0.001-0.004-0.002-0.006c-0.001-0.002-0.001-0.003-0.002-0.005         c-0.001-0.002-0.001-0.003-0.001-0.005c-0.001-0.002-0.001-0.004-0.002-0.006c-0.001-0.002-0.001-0.003-0.002-0.005         c0-0.001-0.001-0.003-0.001-0.004c-0.001-0.002-0.001-0.004-0.002-0.007c0-0.001-0.001-0.003-0.001-0.004         c-0.001-0.002-0.001-0.004-0.002-0.006c0-0.001-0.001-0.004-0.002-0.005c0-0.001-0.001-0.003-0.001-0.004         c-0.001-0.002-0.001-0.005-0.002-0.007c0-0.001-0.001-0.002-0.001-0.004c-0.001-0.002-0.001-0.004-0.002-0.007         c0-0.001-0.001-0.003-0.001-0.004c-0.001-0.002-0.001-0.003-0.002-0.005c-0.001-0.002-0.001-0.003-0.002-0.005         c-0.001-0.002-0.001-0.004-0.002-0.006c0-0.001-0.001-0.003-0.001-0.004c-0.001-0.002-0.001-0.005-0.002-0.007         c0-0.001-0.001-0.002-0.001-0.003c-0.001-0.002-0.002-0.005-0.002-0.008c0-0.001-0.001-0.002-0.001-0.003         c-0.001-0.002-0.002-0.006-0.003-0.008c0-0.001-0.001-0.002-0.001-0.003c-0.001-0.002-0.001-0.003-0.002-0.005         c0-0.001-0.001-0.003-0.001-0.004c-0.001-0.002-0.001-0.004-0.002-0.007c0-0.001-0.001-0.002-0.001-0.003         c-0.001-0.003-0.002-0.005-0.003-0.008c0-0.001-0.001-0.002-0.001-0.003c-0.001-0.003-0.002-0.006-0.003-0.009         c0-0.001,0-0.001-0.001-0.002c-0.001-0.002-0.001-0.004-0.002-0.006l-0.001-0.002c-0.001-0.003-0.002-0.006-0.003-0.009         c0-0.001-0.001-0.002-0.001-0.003c-0.001-0.003-0.002-0.006-0.003-0.009c0-0.001,0-0.001-0.001-0.002         c-0.001-0.003-0.002-0.007-0.003-0.01l0-0.001c-0.002-0.006-0.004-0.011-0.006-0.017l0-0.001         c-0.001-0.003-0.002-0.007-0.003-0.01l0-0.001c-0.004-0.014-0.009-0.026-0.013-0.04c0,0,0-0.001,0-0.001         c-0.001-0.003-0.002-0.007-0.003-0.01c0,0,0-0.001,0-0.001c-0.005-0.014-0.009-0.027-0.013-0.04l0,0         c-0.005-0.014-0.009-0.026-0.013-0.04c0,0,0-0.001,0-0.001C31.098,10.688,31.034,10.509,30.967,10.332L30.967,10.332z          M28.113,5.547l-0.568,0.49c0.581,0.673,1.106,1.4,1.56,2.161l0.644-0.384c0,0,0,0,0-0.001         c-0.002-0.003-0.003-0.005-0.005-0.008c0,0-0.001-0.001-0.001-0.001c-0.002-0.003-0.003-0.006-0.005-0.008l-0.001-0.001         c-0.004-0.006-0.007-0.012-0.011-0.018l0,0c-0.002-0.003-0.004-0.006-0.005-0.009l0,0c-0.002-0.003-0.004-0.006-0.005-0.009         l0-0.001c-0.002-0.003-0.004-0.006-0.005-0.009l0-0.001c-0.002-0.003-0.004-0.006-0.005-0.009l0,0         C29.236,6.963,28.703,6.229,28.113,5.547L28.113,5.547z M23.796,2.025L23.43,2.679c0.774,0.433,1.516,0.937,2.204,1.499         l0.474-0.581c-0.006-0.005-0.011-0.009-0.017-0.014l0,0c-0.011-0.009-0.022-0.018-0.033-0.027l0,0         c-0.003-0.002-0.005-0.004-0.008-0.006c0,0,0,0-0.001-0.001c-0.003-0.002-0.005-0.004-0.008-0.006         c0,0-0.001-0.001-0.001-0.001c-0.003-0.002-0.005-0.004-0.008-0.006l0,0c-0.003-0.002-0.005-0.004-0.008-0.007l0,0         c-0.003-0.002-0.005-0.004-0.008-0.006c0,0,0,0-0.001-0.001c-0.002-0.002-0.005-0.004-0.007-0.006         c0,0-0.001-0.001-0.002-0.001c-0.002-0.002-0.005-0.004-0.007-0.006c-0.001-0.001-0.001-0.001-0.002-0.001         c-0.002-0.002-0.005-0.004-0.007-0.006L25.989,3.5c-0.002-0.002-0.005-0.004-0.007-0.006         c-0.001-0.001-0.001-0.001-0.002-0.001c-0.002-0.002-0.004-0.003-0.006-0.005c-0.001-0.001-0.002-0.001-0.002-0.002         c-0.002-0.002-0.004-0.003-0.006-0.005c-0.001-0.001-0.001-0.001-0.001-0.001c-0.003-0.002-0.005-0.004-0.007-0.006         c-0.001-0.001-0.002-0.001-0.002-0.001c-0.003-0.002-0.005-0.004-0.007-0.006c-0.001-0.001-0.002-0.001-0.003-0.002         c-0.002-0.002-0.004-0.003-0.006-0.005c-0.001-0.001-0.002-0.002-0.003-0.002c-0.002-0.001-0.003-0.003-0.005-0.004         c-0.001-0.001-0.002-0.002-0.003-0.003c-0.002-0.001-0.003-0.003-0.005-0.004c-0.001-0.001-0.003-0.002-0.004-0.003         c-0.002-0.001-0.003-0.003-0.005-0.004c-0.001-0.001-0.002-0.002-0.003-0.003c-0.002-0.001-0.004-0.003-0.005-0.004         c-0.002-0.001-0.002-0.002-0.004-0.003c-0.002-0.001-0.004-0.003-0.005-0.004c-0.001-0.001-0.002-0.002-0.004-0.003         c-0.001-0.001-0.002-0.002-0.004-0.003c-0.002-0.002-0.003-0.002-0.005-0.004c-0.001-0.001-0.002-0.002-0.004-0.003         c-0.002-0.001-0.003-0.003-0.005-0.004c-0.001-0.001-0.002-0.002-0.004-0.003c-0.002-0.002-0.004-0.003-0.006-0.005         c-0.001-0.001-0.002-0.002-0.003-0.002c-0.002-0.001-0.003-0.002-0.004-0.003c-0.001-0.001-0.001-0.001-0.002-0.002         c-0.002-0.002-0.005-0.004-0.007-0.006c0,0-0.001-0.001-0.001-0.001c-0.002-0.002-0.005-0.004-0.008-0.006l-0.002-0.001         c-0.003-0.002-0.005-0.004-0.008-0.006c0,0-0.001,0-0.001,0c-0.003-0.002-0.006-0.005-0.009-0.007c0,0-0.001,0-0.001-0.001         c-0.011-0.009-0.022-0.017-0.033-0.026l0,0c-0.546-0.423-1.12-0.811-1.72-1.162l0,0c-0.003-0.002-0.006-0.004-0.01-0.006         c0,0-0.001,0-0.001,0c-0.003-0.002-0.006-0.004-0.009-0.005c0,0-0.001-0.001-0.002-0.001         c-0.003-0.002-0.006-0.004-0.009-0.005c0,0-0.001,0-0.001,0c-0.005-0.003-0.01-0.006-0.015-0.009c0,0-0.001,0-0.001-0.001         c-0.003-0.002-0.006-0.004-0.009-0.005c-0.001,0-0.002-0.001-0.003-0.001c-0.003-0.002-0.005-0.003-0.007-0.004         C24.001,2.141,24,2.141,23.999,2.14c-0.002-0.001-0.005-0.003-0.007-0.004c-0.001-0.001-0.002-0.001-0.003-0.002         c-0.001-0.001-0.003-0.002-0.004-0.003c-0.002-0.001-0.004-0.002-0.006-0.003c-0.001-0.001-0.003-0.002-0.004-0.002         c-0.002-0.001-0.004-0.002-0.006-0.003c-0.001-0.001-0.002-0.001-0.004-0.002c-0.002-0.001-0.004-0.002-0.005-0.003         c-0.001-0.001-0.003-0.002-0.005-0.003c-0.001-0.001-0.003-0.002-0.004-0.002c-0.002-0.001-0.004-0.002-0.005-0.003         c-0.002-0.001-0.003-0.002-0.005-0.003c-0.001-0.001-0.002-0.001-0.003-0.002c-0.002-0.001-0.004-0.002-0.006-0.004         c-0.001,0-0.003-0.002-0.004-0.002c-0.002-0.001-0.004-0.003-0.007-0.004c-0.001-0.001-0.002-0.001-0.003-0.002         c-0.002-0.001-0.005-0.003-0.007-0.004c-0.001,0-0.002-0.001-0.003-0.002c-0.002-0.001-0.004-0.002-0.006-0.004         c0,0-0.001-0.001-0.002-0.001c-0.002-0.001-0.005-0.003-0.007-0.004c0,0-0.001-0.001-0.002-0.001         c-0.002-0.001-0.005-0.003-0.007-0.004c0,0-0.002-0.001-0.002-0.001c-0.002-0.001-0.005-0.003-0.007-0.004         c-0.001,0-0.002-0.001-0.003-0.001c-0.002-0.001-0.005-0.003-0.008-0.004c0,0-0.001-0.001-0.002-0.001         c-0.003-0.002-0.005-0.003-0.008-0.005l-0.001-0.001c-0.003-0.002-0.005-0.003-0.008-0.005c0,0,0,0,0,0         c-0.003-0.002-0.006-0.003-0.009-0.005c0,0-0.001-0.001-0.001-0.001c-0.003-0.002-0.006-0.003-0.008-0.005         c0,0-0.001,0-0.001-0.001c-0.003-0.002-0.006-0.003-0.009-0.005c0,0-0.001,0-0.001,0c-0.003-0.002-0.006-0.004-0.009-0.005         l0,0C23.802,2.028,23.799,2.026,23.796,2.025L23.796,2.025z M18.532,0.199L18.415,0.94c0.877,0.139,1.747,0.358,2.584,0.648         l0.246-0.709C20.372,0.577,19.466,0.348,18.532,0.199L18.532,0.199z" fill="#E21B1B"/></g></g></g></g></g></g><g id="Cat_5_"><path d="M18.52,24.493h-2.263h-2.265c0,0,0.006-1.344,0-2.265c-3.099,0.667-3.964-1.699-3.964-1.699    c-0.566-1.132-1.132-1.699-1.132-1.699c-1.132-0.673,0-0.566,0-0.566c1.132,0,1.699,1.132,1.699,1.132    c0.994,1.687,2.762,1.416,3.397,1.132c0-0.566,0.248-1.422,0.566-1.699c-2.473-0.279-4.532-1.699-4.532-4.53    s0.568-3.397,1.135-3.964c-0.114-0.279-0.588-1.311,0.018-2.831c0,0,1.113,0,2.245,1.699c0.561-0.561,2.265-0.566,2.832-0.566    c0.565,0,2.269,0.005,2.83,0.566c1.132-1.699,2.248-1.699,2.248-1.699c0.605,1.52,0.132,2.552,0.017,2.831    c0.566,0.566,1.132,1.132,1.132,3.964s-2.056,4.251-4.53,4.53c0.319,0.276,0.566,1.251,0.566,1.699L18.52,24.493L18.52,24.493z"/></g></g></svg>