<?xml version="1.0" encoding="utf-8"?>
<!-- Generator: Adobe Illustrator 22.0.1, SVG Export Plug-In . SVG Version: 6.00 Build 0)  -->
<svg version="1.1" id="Layer_1" xmlns="http://www.w3.org/2000/svg" xmlns:xlink="http://www.w3.org/1999/xlink" x="0px" y="0px"
	 viewBox="0 0 20 11" style="enable-background:new 0 0 20 11;" xml:space="preserve">
<style type="text/css">
	.st0{fill:#A9A9A9;}
</style>
<title>down-arrow</title>
<g id="Layer_2_1_">
	<g id="Слой_1">
		<path id="Expand_More" class="st0" d="M18.3,0.3L10,8.6L1.7,0.3c-0.4-0.4-1-0.4-1.4,0c0,0,0,0,0,0c-0.4,0.4-0.4,1,0,1.4
			c0,0,0,0,0,0l9,9l0,0c0.4,0.4,1,0.4,1.4,0c0,0,0,0,0,0l9-9c0.4-0.4,0.4-1,0-1.4c0,0,0,0,0,0C19.3-0.1,18.7-0.1,18.3,0.3
			C18.3,0.3,18.3,0.3,18.3,0.3z"/>
	</g>
</g>
</svg>
